<svg xmlns="http://www.w3.org/2000/svg" xmlns:xlink="http://www.w3.org/1999/xlink" viewBox="0 0 548.97 391.04"><defs><style>.cls-1,.cls-10{fill:none;}.cls-2{clip-path:url(#clip-path);}.cls-3{clip-path:url(#clip-path-2);}.cls-4{fill:#545454;}.cls-5{clip-path:url(#clip-path-4);}.cls-6{clip-path:url(#clip-path-5);}.cls-7{fill:#1ca4f3;}.cls-8{clip-path:url(#clip-path-6);}.cls-9{clip-path:url(#clip-path-7);}.cls-10{stroke:#545454;stroke-width:3.28px;}.cls-11{clip-path:url(#clip-path-8);}.cls-12{clip-path:url(#clip-path-9);}.cls-13{clip-path:url(#clip-path-10);}.cls-14{clip-path:url(#clip-path-11);}.cls-15{clip-path:url(#clip-path-12);}.cls-16{fill:#78c6f3;}.cls-17{clip-path:url(#clip-path-13);}.cls-18{clip-path:url(#clip-path-14);}.cls-19{clip-path:url(#clip-path-15);}.cls-20{clip-path:url(#clip-path-16);}.cls-21{clip-path:url(#clip-path-17);}.cls-22{clip-path:url(#clip-path-18);}.cls-23{clip-path:url(#clip-path-19);}.cls-24{clip-path:url(#clip-path-20);}.cls-25{fill:#c2e7fc;}.cls-26{clip-path:url(#clip-path-21);}.cls-27{clip-path:url(#clip-path-22);}.cls-28{fill:#2e2e2e;}.cls-29{clip-path:url(#clip-path-23);}.cls-30{clip-path:url(#clip-path-24);}.cls-31{clip-path:url(#clip-path-25);}.cls-32{clip-path:url(#clip-path-26);}.cls-33{clip-path:url(#clip-path-27);}.cls-34{clip-path:url(#clip-path-28);}.cls-35{fill-rule:evenodd;}.cls-36{clip-path:url(#clip-path-31);}.cls-37{fill:#fff;}.cls-38{clip-path:url(#clip-path-35);}.cls-39{clip-path:url(#clip-path-36);}.cls-40{clip-path:url(#clip-path-39);}.cls-41{clip-path:url(#clip-path-43);}.cls-42{clip-path:url(#clip-path-44);}.cls-43{clip-path:url(#clip-path-47);}.cls-44{clip-path:url(#clip-path-51);}.cls-45{clip-path:url(#clip-path-52);}.cls-46{clip-path:url(#clip-path-55);}</style><clipPath id="clip-path"><rect class="cls-1" x="21.2" y="10.81" width="176" height="308"/></clipPath><clipPath id="clip-path-2"><rect class="cls-1" x="-16.41" y="32.19" width="249.91" height="249.92" transform="translate(-49.37 49.72) rotate(-21.14)"/></clipPath><clipPath id="clip-path-4"><rect class="cls-1" x="209.34" width="139.86" height="82.81"/></clipPath><clipPath id="clip-path-5"><path class="cls-1" d="M250.5,0h57.35a41.16,41.16,0,0,1,0,82.32H250.5A41.16,41.16,0,0,1,250.5,0"/></clipPath><clipPath id="clip-path-6"><rect class="cls-1" x="209.34" width="140.19" height="82.9"/></clipPath><clipPath id="clip-path-7"><path class="cls-1" d="M250.65,0h57.57a41.45,41.45,0,0,1,0,82.9H250.65a41.45,41.45,0,0,1,0-82.9"/></clipPath><clipPath id="clip-path-8"><rect class="cls-1" x="362.53" y="16.14" width="174.67" height="308"/></clipPath><clipPath id="clip-path-9"><rect class="cls-1" x="325.05" y="36.85" width="249.91" height="249.92" transform="translate(135.02 521.63) rotate(-68.58)"/></clipPath><clipPath id="clip-path-10"><rect class="cls-1" x="325.46" y="37.01" width="249.92" height="249.92" transform="matrix(0.37, -0.93, 0.93, 0.37, 135.13, 522.11)"/></clipPath><clipPath id="clip-path-11"><rect class="cls-1" x="293.31" y="157.89" width="157.2" height="82.26"/></clipPath><clipPath id="clip-path-12"><path class="cls-1" d="M334.47,157.89H409a41.16,41.16,0,0,1,0,82.31H334.47a41.16,41.16,0,1,1,0-82.31"/></clipPath><clipPath id="clip-path-13"><rect class="cls-1" x="293.31" y="157.89" width="157.26" height="82.9"/></clipPath><clipPath id="clip-path-14"><path class="cls-1" d="M334.58,157.89H409.3a41.45,41.45,0,0,1,0,82.89H334.58a41.45,41.45,0,0,1,0-82.89"/></clipPath><clipPath id="clip-path-15"><rect class="cls-1" x="113.43" y="157.89" width="139.78" height="82.26"/></clipPath><clipPath id="clip-path-16"><path class="cls-1" d="M154.58,157.89h57.36a41.16,41.16,0,1,1,0,82.31H154.58a41.16,41.16,0,0,1,0-82.31"/></clipPath><clipPath id="clip-path-17"><rect class="cls-1" x="113.43" y="157.89" width="140.19" height="82.9"/></clipPath><clipPath id="clip-path-18"><path class="cls-1" d="M154.74,157.89h57.57a41.45,41.45,0,0,1,0,82.89H154.74a41.45,41.45,0,0,1,0-82.89"/></clipPath><clipPath id="clip-path-19"><rect class="cls-1" x="46" y="308.14" width="140.26" height="82.67"/></clipPath><clipPath id="clip-path-20"><path class="cls-1" d="M87.16,308.14h57.35a41.16,41.16,0,1,1,0,82.31H87.16a41.16,41.16,0,1,1,0-82.31"/></clipPath><clipPath id="clip-path-21"><rect class="cls-1" x="46" y="308.14" width="140.19" height="82.9"/></clipPath><clipPath id="clip-path-22"><path class="cls-1" d="M87.32,308.14h57.56a41.45,41.45,0,0,1,0,82.9H87.32a41.45,41.45,0,0,1,0-82.9"/></clipPath><clipPath id="clip-path-23"><rect class="cls-1" x="371.27" y="306.55" width="140.26" height="82.83"/></clipPath><clipPath id="clip-path-24"><path class="cls-1" d="M412.43,306.55h57.35a41.16,41.16,0,1,1,0,82.32H412.43a41.16,41.16,0,0,1,0-82.32"/></clipPath><clipPath id="clip-path-25"><rect class="cls-1" x="371.27" y="306.55" width="140.19" height="82.9"/></clipPath><clipPath id="clip-path-26"><path class="cls-1" d="M412.59,306.55h57.56a41.45,41.45,0,0,1,0,82.9H412.59a41.45,41.45,0,0,1,0-82.9"/></clipPath><clipPath id="clip-path-27"><rect class="cls-1" x="227.87" y="89.47" width="32" height="65.33"/></clipPath><clipPath id="clip-path-28"><rect class="cls-1" x="207.86" y="113.96" width="71.93" height="15.85" transform="translate(31.69 293.07) rotate(-65.46)"/></clipPath><clipPath id="clip-path-31"><rect class="cls-1" x="246.53" y="88.14" width="16" height="14.67"/></clipPath><clipPath id="clip-path-35"><rect class="cls-1" x="286.53" y="89.47" width="29.33" height="66.67"/></clipPath><clipPath id="clip-path-36"><rect class="cls-1" x="292.85" y="86.04" width="15.85" height="71.93" transform="translate(-23.7 130.08) rotate(-23.51)"/></clipPath><clipPath id="clip-path-39"><rect class="cls-1" x="282.53" y="88.14" width="16" height="16"/></clipPath><clipPath id="clip-path-43"><rect class="cls-1" x="166.53" y="242.81" width="32" height="65.33"/></clipPath><clipPath id="clip-path-44"><rect class="cls-1" x="146.67" y="267.36" width="71.93" height="15.85" transform="translate(-143.64 327.11) rotate(-65.46)"/></clipPath><clipPath id="clip-path-47"><rect class="cls-1" x="185.2" y="241.47" width="16" height="16"/></clipPath><clipPath id="clip-path-51"><rect class="cls-1" x="350.53" y="248.14" width="30.67" height="65.33"/></clipPath><clipPath id="clip-path-52"><rect class="cls-1" x="358.09" y="244.36" width="15.85" height="71.93" transform="translate(-81.43 169.24) rotate(-23.51)"/></clipPath><clipPath id="clip-path-55"><rect class="cls-1" x="347.87" y="246.81" width="16" height="16"/></clipPath></defs><g id="Livello_2" data-name="Livello 2"><g id="Livello_1-2" data-name="Livello 1"><g class="cls-2"><g class="cls-3"><g class="cls-3"><path class="cls-4" d="M39.35,317.58a2.52,2.52,0,0,1-3.26-1.43c-19.69-50.91-18.21-106.66,4.15-157A204.74,204.74,0,0,1,154.15,50.52l33-12.75-48-21.12a2.48,2.48,0,0,1-1.33-1.39A2.52,2.52,0,0,1,141.19,12l53.55,23.58a2.52,2.52,0,0,1,.43.24l.17.15c.06.06.14.11.21.17l.16.21c0,.06.1.11.14.18a2.78,2.78,0,0,1,.35.92,1.6,1.6,0,0,1,0,.23,1.13,1.13,0,0,1,0,.26,2.4,2.4,0,0,1,0,.28,1.52,1.52,0,0,1,0,.21,1.74,1.74,0,0,1-.16.47L172.25,92.41a2.52,2.52,0,0,1-4.62-2l21.3-47.91L156,55.22C52.65,95.17,1,211.4,40.79,314.33A2.5,2.5,0,0,1,39.35,317.58Z"/></g></g></g><g class="cls-5"><g class="cls-6"><path class="cls-7" d="M209.34,0H348.65V81.89H209.34Z"/></g></g><g class="cls-8"><g class="cls-9"><path class="cls-10" d="M250.65,0h57.57a41.45,41.45,0,0,1,0,82.9H250.65a41.45,41.45,0,0,1,0-82.9"/></g></g><g class="cls-11"><g class="cls-12"><g class="cls-13"><path class="cls-4" d="M518.82,322.74a2.52,2.52,0,0,0,3.27-1.42c19.94-50.8,18.73-106.56-3.37-157A204.82,204.82,0,0,0,405.34,55.11L372.44,42.2l48.08-20.88a2.48,2.48,0,0,0,1.34-1.38,2.53,2.53,0,0,0-3.37-3.24L364.83,40a1.85,1.85,0,0,0-.44.24.7.7,0,0,0-.16.14l-.21.18c-.06.06-.11.14-.17.2l-.14.18a2.77,2.77,0,0,0-.36.93c0,.06,0,.14,0,.22a2.28,2.28,0,0,0,0,.27,2.51,2.51,0,0,0,0,.27.78.78,0,0,0,0,.21,2.16,2.16,0,0,0,.15.47L387,96.92a2.53,2.53,0,0,0,3.33,1.3,2.5,2.5,0,0,0,1.3-3.31l-21.06-48,32.91,12.91C506.62,100.27,557.7,216.75,517.39,319.49A2.51,2.51,0,0,0,518.82,322.74Z"/></g></g></g><g class="cls-14"><g class="cls-15"><path class="cls-16" d="M293.31,157.89H450.5v81.89H293.31Z"/></g></g><g class="cls-17"><g class="cls-18"><path class="cls-10" d="M334.58,157.89H409.3a41.45,41.45,0,0,1,0,82.89H334.58a41.45,41.45,0,0,1,0-82.89"/></g></g><g class="cls-19"><g class="cls-20"><path class="cls-16" d="M113.43,157.89H252.74v81.89H113.43Z"/></g></g><g class="cls-21"><g class="cls-22"><path class="cls-10" d="M154.74,157.89h57.57a41.45,41.45,0,0,1,0,82.89H154.74a41.45,41.45,0,0,1,0-82.89"/></g></g><g class="cls-23"><g class="cls-24"><path class="cls-25" d="M46,308.14H185.31V390H46Z"/></g></g><g class="cls-26"><g class="cls-27"><path class="cls-10" d="M87.32,308.14h57.56a41.45,41.45,0,0,1,0,82.9H87.32a41.45,41.45,0,0,1,0-82.9"/></g></g><path class="cls-28" d="M356.67,177.76v-3.9l4.9-3.16h1.85v17.2H359.5v-12Z"/><path class="cls-28" d="M372.67,176.88a8.44,8.44,0,0,1,1.81.21,6.93,6.93,0,0,1,1.34.42l.44.23-1.21,2.41a5.14,5.14,0,0,0-2.38-.66,2.1,2.1,0,0,0-.89.14.5.5,0,0,0-.25.5.47.47,0,0,0,0,.17.44.44,0,0,0,.08.17l.1.12.19.11.19.1.25.08.25.11.27.08.31.08a8.47,8.47,0,0,1,1.13.42,6.78,6.78,0,0,1,1,.63,2.61,2.61,0,0,1,.83,1,3.17,3.17,0,0,1,.29,1.37c0,2.43-1.68,3.65-5.06,3.65a6.71,6.71,0,0,1-2.19-.36,5.23,5.23,0,0,1-1.48-.71l-.45-.37,1.5-2.52a4.85,4.85,0,0,0,.43.35,7.65,7.65,0,0,0,1,.54,2.87,2.87,0,0,0,1.23.34c.76,0,1.15-.26,1.15-.77a.63.63,0,0,0-.29-.55,4.92,4.92,0,0,0-1-.45,9.17,9.17,0,0,1-1.09-.46,5.6,5.6,0,0,1-1.58-1.17,2.53,2.53,0,0,1-.58-1.75,3,3,0,0,1,1.25-2.54A5.7,5.7,0,0,1,372.67,176.88Z"/><path class="cls-28" d="M381,177.2v-4h3.69v4H387V180H384.7v3.39c0,1,.27,1.48.83,1.48a1.25,1.25,0,0,0,.44-.08,1.27,1.27,0,0,0,.35-.17l.13-.08.91,3a5.5,5.5,0,0,1-2.71.67,4.11,4.11,0,0,1-1.79-.36,2.76,2.76,0,0,1-1.14-1,4.56,4.56,0,0,1-.55-1.29,6.22,6.22,0,0,1-.16-1.46V180h-1.54V177.2Z"/><path class="cls-28" d="M310.13,198.23v-3.44h12.1v3.44h-4.1V212h-3.92V198.23Z"/><path class="cls-28" d="M326.09,195.33a2.19,2.19,0,0,1,3.73,1.55,2.19,2.19,0,0,1-4.38,0A2.14,2.14,0,0,1,326.09,195.33Zm-.35,6V212h3.68V201.29Z"/><path class="cls-28" d="M345,207.17H337.2a1.9,1.9,0,0,0,.73,1.66,2.53,2.53,0,0,0,1.58.55,3.69,3.69,0,0,0,1.42-.23,4.5,4.5,0,0,0,1.18-1l2.69,1.33c-1.12,1.87-3,2.79-5.56,2.79a5.77,5.77,0,0,1-4.15-1.64,5.49,5.49,0,0,1,0-8,5.7,5.7,0,0,1,4.15-1.69,5.9,5.9,0,0,1,4.14,1.48,5.45,5.45,0,0,1,1.61,4.21A4.81,4.81,0,0,1,345,207.17Zm-7.67-2h4.06a1.9,1.9,0,0,0-.66-1.27,2,2,0,0,0-1.36-.46,2.12,2.12,0,0,0-1.46.48A1.74,1.74,0,0,0,337.3,205.13Z"/><path class="cls-28" d="M348.8,212V201.29h3.69v1.57h0a1.35,1.35,0,0,1,.13-.21c.07-.09.21-.23.41-.44a4.42,4.42,0,0,1,.67-.56,3,3,0,0,1,.92-.46,3.2,3.2,0,0,1,1.14-.21,4.39,4.39,0,0,1,1.19.17,3.87,3.87,0,0,1,.86.33l.31.19-1.56,3.12a2.93,2.93,0,0,0-1.92-.58,2.21,2.21,0,0,0-1.15.29,1.7,1.7,0,0,0-.68.71,6,6,0,0,0-.28.71,2.1,2.1,0,0,0-.08.46V212Z"/><path class="cls-28" d="M375.41,194.48a9,9,0,0,1,2.73.42,8.75,8.75,0,0,1,2,.79l.63.42-1.59,3.12c-.12-.08-.3-.19-.52-.31a7,7,0,0,0-1.27-.54,5.09,5.09,0,0,0-1.71-.34,2.43,2.43,0,0,0-1.52.42,1.37,1.37,0,0,0-.52,1.12,1,1,0,0,0,.25.67,3.38,3.38,0,0,0,.86.65c.4.22.75.41,1.06.56s.77.35,1.41.62a8.42,8.42,0,0,1,2.86,1.94,3.85,3.85,0,0,1,1.19,2.75,5.85,5.85,0,0,1-.55,2.59,4.09,4.09,0,0,1-1.45,1.72,6.45,6.45,0,0,1-2.07.92,9,9,0,0,1-2.43.31,10.17,10.17,0,0,1-2.21-.23,7.93,7.93,0,0,1-1.81-.56q-.74-.35-1.32-.69a4.59,4.59,0,0,1-.85-.56l-.27-.23,2-3.29c.16.14.39.32.68.54a12.26,12.26,0,0,0,1.55.86,4.65,4.65,0,0,0,2,.54c1.66,0,2.48-.56,2.48-1.69a1.19,1.19,0,0,0-.18-.64,1.94,1.94,0,0,0-.63-.61,6.19,6.19,0,0,0-.79-.48c-.22-.12-.6-.3-1.13-.54l-1.14-.56a6.43,6.43,0,0,1-2.42-1.94,4.15,4.15,0,0,1-.85-2.5,4.72,4.72,0,0,1,1.71-3.77A5.78,5.78,0,0,1,375.41,194.48Z"/><path class="cls-28" d="M385.91,210.69a6.14,6.14,0,0,1,0-8,4.93,4.93,0,0,1,3.82-1.67,4.8,4.8,0,0,1,3.5,1.35v-1h3.71V212h-3.67v-1.21h0a4.5,4.5,0,0,1-3.5,1.52A5,5,0,0,1,385.91,210.69Zm3.13-5.83a2.45,2.45,0,0,0-.71,1.81,2.47,2.47,0,0,0,.69,1.81,2.44,2.44,0,0,0,1.81.69,2.37,2.37,0,0,0,1.77-.71,2.43,2.43,0,0,0,.71-1.79,2.46,2.46,0,0,0-2.48-2.52A2.47,2.47,0,0,0,389,204.86Z"/><path class="cls-28" d="M401.52,212V194.06h3.69V212Z"/><path class="cls-28" d="M420.65,207.17h-7.77a1.9,1.9,0,0,0,.73,1.66,2.53,2.53,0,0,0,1.58.55,3.69,3.69,0,0,0,1.42-.23,4.5,4.5,0,0,0,1.18-1l2.69,1.33c-1.12,1.87-3,2.79-5.56,2.79a5.77,5.77,0,0,1-4.15-1.64,5.49,5.49,0,0,1,0-8,5.7,5.7,0,0,1,4.15-1.69,5.94,5.94,0,0,1,4.15,1.48,5.48,5.48,0,0,1,1.6,4.21A4.81,4.81,0,0,1,420.65,207.17Zm-7.67-2H417a1.9,1.9,0,0,0-.66-1.27,2,2,0,0,0-1.36-.46,2.08,2.08,0,0,0-1.45.48A1.71,1.71,0,0,0,413,205.13Z"/><path class="cls-28" d="M429.13,201a7.92,7.92,0,0,1,1.81.21,7.17,7.17,0,0,1,1.34.42l.43.22-1.2,2.42a5.16,5.16,0,0,0-2.38-.67,2.12,2.12,0,0,0-.9.15.59.59,0,0,0-.22.67.4.4,0,0,0,.08.16l.1.13.19.1.19.11.25.08.25.1.27.09.31.08a9,9,0,0,1,1.13.42,6.36,6.36,0,0,1,1,.62,2.77,2.77,0,0,1,.83,1,3.25,3.25,0,0,1,.29,1.38q0,3.65-5.06,3.64a6.88,6.88,0,0,1-2.19-.35,5.09,5.09,0,0,1-1.48-.71l-.46-.37,1.5-2.52.44.35a9.17,9.17,0,0,0,1,.54,2.84,2.84,0,0,0,1.23.33c.76,0,1.15-.25,1.15-.77a.61.61,0,0,0-.3-.54,4.85,4.85,0,0,0-1-.46,8.25,8.25,0,0,1-1.08-.45,5.46,5.46,0,0,1-1.58-1.17,2.56,2.56,0,0,1-.59-1.75,3,3,0,0,1,1.25-2.54A5.75,5.75,0,0,1,429.13,201Z"/><g class="cls-29"><g class="cls-30"><path class="cls-25" d="M371.27,306.55H510.58v81.89H371.27Z"/></g></g><g class="cls-31"><g class="cls-32"><path class="cls-10" d="M412.59,306.55h57.56a41.45,41.45,0,0,1,0,82.9H412.59a41.45,41.45,0,0,1,0-82.9"/></g></g><path class="cls-28" d="M424.71,322.36a2.18,2.18,0,0,0-1.6.84,6,6,0,0,0-1.11,1.62l-.35.81-3.27-1.58a4.72,4.72,0,0,1,.21-.54,9.72,9.72,0,0,1,.68-1.19,8.44,8.44,0,0,1,1.19-1.52,6.72,6.72,0,0,1,1.79-1.21,5.71,5.71,0,0,1,2.46-.54,9.13,9.13,0,0,1,3,.44,5.31,5.31,0,0,1,2,1.06,4.85,4.85,0,0,1,1.1,1.5,5.19,5.19,0,0,1,.54,1.56,8,8,0,0,1,.13,1.48,5.34,5.34,0,0,1-.63,2.4,9.53,9.53,0,0,1-1.52,2.21,22.92,22.92,0,0,1-1.79,1.77,19.22,19.22,0,0,1-1.52,1.23l-.63.43h6.4v3.44H418.29v-1l1-.79c.4-.34,1.11-1,2.13-2s1.9-1.85,2.68-2.69a22.18,22.18,0,0,0,2.13-2.7,4.72,4.72,0,0,0,1-2.36,2.94,2.94,0,0,0-.09-.71,4,4,0,0,0-.27-.85,1.67,1.67,0,0,0-.75-.83A2.5,2.5,0,0,0,424.71,322.36Z"/><path class="cls-28" d="M436.19,336.57V325.86h3.69V327h0a4.29,4.29,0,0,1,3.06-1.46,6.2,6.2,0,0,1,1.59.21,5.28,5.28,0,0,1,1.5.67,3.12,3.12,0,0,1,1.16,1.25,3.58,3.58,0,0,1,.46,1.85v7H444v-6a2.18,2.18,0,0,0-.54-1.46,1.68,1.68,0,0,0-1.37-.62,2.19,2.19,0,0,0-1.52.64,2,2,0,0,0-.67,1.44v6Z"/><path class="cls-28" d="M452.8,335.26a6.14,6.14,0,0,1,0-8,4.91,4.91,0,0,1,3.81-1.67,4.79,4.79,0,0,1,3.5,1.35v-8.27h3.71v17.94h-3.67v-1.21h0a4.49,4.49,0,0,1-3.5,1.52A5,5,0,0,1,452.8,335.26Zm3.12-5.83a2.44,2.44,0,0,0-.7,1.81,2.35,2.35,0,0,0,2.5,2.5,2.39,2.39,0,0,0,1.77-.71,2.52,2.52,0,0,0-1.77-4.31A2.51,2.51,0,0,0,455.92,329.43Z"/><path class="cls-28" d="M379.52,346.9v-3.44h12.1v3.44h-4.1v13.77H383.6V346.9Z"/><path class="cls-28" d="M395.48,344a2.08,2.08,0,0,1,1.54-.64,2.19,2.19,0,0,1,0,4.37,2.18,2.18,0,0,1-1.54-3.73Zm-.36,6v10.71h3.69V350Z"/><path class="cls-28" d="M414.35,355.84h-7.77a1.92,1.92,0,0,0,.73,1.66,2.55,2.55,0,0,0,1.59.54,3.46,3.46,0,0,0,1.41-.23,4.25,4.25,0,0,0,1.19-.95l2.69,1.33a6,6,0,0,1-5.56,2.79,5.82,5.82,0,0,1-4.15-1.64,5.49,5.49,0,0,1,0-8,5.7,5.7,0,0,1,4.15-1.69,5.85,5.85,0,0,1,4.14,1.48,5.45,5.45,0,0,1,1.61,4.21A4,4,0,0,1,414.35,355.84Zm-7.66-2h4.06a1.93,1.93,0,0,0-.67-1.27,2,2,0,0,0-1.35-.46,2.16,2.16,0,0,0-1.46.48A1.72,1.72,0,0,0,406.69,353.79Z"/><path class="cls-28" d="M418.19,360.67V350h3.69v1.56h0l.12-.21.42-.43a5.18,5.18,0,0,1,.67-.57,3.22,3.22,0,0,1,.91-.45,3.29,3.29,0,0,1,1.15-.21,4.8,4.8,0,0,1,1.19.16,4.21,4.21,0,0,1,.85.34l.31.19L426,353.46a2.87,2.87,0,0,0-1.91-.58,2.21,2.21,0,0,0-1.15.29,1.8,1.8,0,0,0-.69.71,5.16,5.16,0,0,0-.27.71,1.52,1.52,0,0,0-.08.45v5.63Z"/><path class="cls-28" d="M444.8,343.15a9.36,9.36,0,0,1,2.73.41,9.17,9.17,0,0,1,2,.8l.62.41-1.58,3.13a5.94,5.94,0,0,0-.52-.31,8.43,8.43,0,0,0-1.27-.55,5.1,5.1,0,0,0-1.71-.33,2.41,2.41,0,0,0-1.52.42,1.35,1.35,0,0,0-.52,1.12,1,1,0,0,0,.25.67,3.09,3.09,0,0,0,.85.64c.4.23.76.42,1.06.57l1.42.62a8.52,8.52,0,0,1,2.86,1.94,3.82,3.82,0,0,1,1.18,2.75,5.77,5.77,0,0,1-.54,2.58,4.08,4.08,0,0,1-1.46,1.73,6.31,6.31,0,0,1-2.06.92,9,9,0,0,1-2.44.31,10.83,10.83,0,0,1-2.21-.23,8.84,8.84,0,0,1-1.81-.56c-.49-.23-.92-.46-1.31-.69a4.76,4.76,0,0,1-.85-.56l-.28-.23,2-3.29.69.54a10.47,10.47,0,0,0,1.54.85,4.58,4.58,0,0,0,2,.55c1.65,0,2.48-.57,2.48-1.69a1.15,1.15,0,0,0-.19-.65,1.79,1.79,0,0,0-.62-.6,5.22,5.22,0,0,0-.79-.48c-.23-.13-.6-.3-1.13-.54l-1.14-.56a6.45,6.45,0,0,1-2.42-1.94,4.16,4.16,0,0,1-.86-2.5,4.72,4.72,0,0,1,1.71-3.77A5.78,5.78,0,0,1,444.8,343.15Z"/><path class="cls-28" d="M455.3,359.36a6.15,6.15,0,0,1,0-8.05,4.93,4.93,0,0,1,3.81-1.66,4.77,4.77,0,0,1,3.5,1.35v-1h3.71v10.71h-3.66v-1.21h-.05a4.48,4.48,0,0,1-3.5,1.52A5,5,0,0,1,455.3,359.36Zm3.13-5.84a2.45,2.45,0,0,0-.71,1.82,2.49,2.49,0,0,0,.69,1.81,2.43,2.43,0,0,0,1.81.69,2.37,2.37,0,0,0,1.77-.71,2.43,2.43,0,0,0,.71-1.79,2.46,2.46,0,0,0-.73-1.82,2.41,2.41,0,0,0-1.75-.71A2.47,2.47,0,0,0,458.43,353.52Z"/><path class="cls-28" d="M470.91,360.67V342.73h3.69v17.94Z"/><path class="cls-28" d="M490,355.84h-7.78a1.92,1.92,0,0,0,.73,1.66,2.55,2.55,0,0,0,1.59.54,3.46,3.46,0,0,0,1.41-.23,4.25,4.25,0,0,0,1.19-.95l2.69,1.33a6,6,0,0,1-5.56,2.79,5.82,5.82,0,0,1-4.15-1.64,5.49,5.49,0,0,1,0-8,5.7,5.7,0,0,1,4.15-1.69,5.85,5.85,0,0,1,4.14,1.48,5.45,5.45,0,0,1,1.61,4.21A4.81,4.81,0,0,1,490,355.84Zm-7.67-2h4.06a1.93,1.93,0,0,0-.67-1.27,2,2,0,0,0-1.35-.46,2.17,2.17,0,0,0-1.46.48A1.72,1.72,0,0,0,482.37,353.79Z"/><path class="cls-28" d="M498.52,349.65a7.92,7.92,0,0,1,1.81.21,8,8,0,0,1,1.33.41l.44.23-1.21,2.42a5.09,5.09,0,0,0-2.37-.67,2,2,0,0,0-.9.15.5.5,0,0,0-.25.5.78.78,0,0,0,0,.16.32.32,0,0,0,.09.17.64.64,0,0,1,.1.13l.19.1.18.1.25.09.25.1.28.09a2,2,0,0,0,.31.08,6.57,6.57,0,0,1,1.12.42,5.94,5.94,0,0,1,1,.62,2.8,2.8,0,0,1,.84,1,3.21,3.21,0,0,1,.29,1.38q0,3.65-5.06,3.64a6.88,6.88,0,0,1-2.19-.35,5.36,5.36,0,0,1-1.48-.71l-.46-.38,1.5-2.52c.11.1.26.22.44.36a8.93,8.93,0,0,0,1,.54,3,3,0,0,0,1.23.33c.76,0,1.14-.25,1.14-.77a.61.61,0,0,0-.29-.54,4.59,4.59,0,0,0-1-.46A8.92,8.92,0,0,1,496,356a5.45,5.45,0,0,1-1.59-1.16,2.57,2.57,0,0,1-.58-1.75,3,3,0,0,1,1.25-2.55A5.78,5.78,0,0,1,498.52,349.65Z"/><g class="cls-33"><g class="cls-34"><g class="cls-34"><g class="cls-34"><path class="cls-35" d="M228.25,153.67h0c-.14.46.28.64.69.71.22.13.45.19.62,0h.05a.69.69,0,0,0,0-.13.2.2,0,0,0,0-.08c.39-.88,2.39-5.4,2.75-6.13,1.7-3.41,3.66-7.21,5.25-10.66q7.62-16.56,15.22-33.41c1.53-3.38,3.08-6.61,4.58-10,.34-.78,1-2,1.23-2.43a.52.52,0,0,0,.07-.11,1.21,1.21,0,0,0,.17-.6.75.75,0,0,0-.19-.43.73.73,0,0,0-.46-.25.7.7,0,0,0-.71.25l-.09.12c-.11.18-1,1.75-1.44,2.83-1.5,3.39-3,6.61-4.57,10q-7.6,16.83-15.21,33.4c-1.59,3.44-3.54,7.22-5.23,10.62-.37.74-2.39,5.31-2.79,6.2Z"/></g></g></g></g><g class="cls-36"><g class="cls-34"><g class="cls-34"><g class="cls-34"><path class="cls-35" d="M248.18,97.13c1.14-.81,6.64-4.42,9.26-5.89L258,91c0,.14.08.25.08.28.5,2.78,1.39,8.34,1.79,10.91a.79.79,0,0,0,.89.65.78.78,0,0,0,.64-.89c-.4-2.58-1.29-8.15-1.8-10.94a7.64,7.64,0,0,0-.25-1,1.93,1.93,0,0,0-.26-.54.79.79,0,0,0-.68-.32,1.39,1.39,0,0,0-.49.12c-.26.11-.68.32-1.2.61-2.79,1.56-8.76,5.49-9.56,6.08a1.06,1.06,0,0,0-.35.42.73.73,0,0,0,.13.77.82.82,0,0,0,1.05.15A.79.79,0,0,0,248.18,97.13Z"/></g></g></g></g><path class="cls-37" d="M235.18,28.29h7.5L248.36,37l5.71-8.75h7.48L251.49,43.37V55.62h-6.23V43.37Z"/><path class="cls-37" d="M265.29,41.93a13.77,13.77,0,0,1,4-10,13.57,13.57,0,0,1,19.46,0,13.77,13.77,0,0,1,4,10A14,14,0,0,1,288.86,52a13.94,13.94,0,0,1-19.69,0A14.09,14.09,0,0,1,265.29,41.93Zm6.71,0a11,11,0,0,0,.67,3.94,6.57,6.57,0,0,0,2.31,3,6.73,6.73,0,0,0,4.08,1.21,6.12,6.12,0,0,0,5.25-2.38,9.36,9.36,0,0,0,1.77-5.77,9.22,9.22,0,0,0-1.81-5.73,6.09,6.09,0,0,0-5.21-2.41,6.21,6.21,0,0,0-5.23,2.41A9.18,9.18,0,0,0,272,41.93Z"/><path class="cls-37" d="M320.52,28.29V45.91c0,3.37-.91,5.91-2.71,7.63s-4.46,2.58-8,2.58-6.14-.86-8-2.58-2.71-4.26-2.71-7.63V28.29h6.23V44.1c0,2.21.35,3.74,1,4.6a5.1,5.1,0,0,0,6.8,0c.7-.86,1.06-2.39,1.06-4.6V28.29Z"/><path d="M168.21,177.76v-3.9l4.9-3.16H175v17.2H171v-12Z"/><path d="M184.21,176.88a8.44,8.44,0,0,1,1.81.21,6.93,6.93,0,0,1,1.34.42l.44.23-1.21,2.41a5.14,5.14,0,0,0-2.38-.66,2.1,2.1,0,0,0-.89.14.5.5,0,0,0-.25.5.47.47,0,0,0,0,.17.44.44,0,0,0,.08.17l.1.12.19.11.19.1.25.08.25.11.27.08.31.08a8.47,8.47,0,0,1,1.13.42,6.78,6.78,0,0,1,1,.63,2.61,2.61,0,0,1,.83,1,3.17,3.17,0,0,1,.29,1.37c0,2.43-1.68,3.65-5.06,3.65a6.66,6.66,0,0,1-2.19-.36,5.23,5.23,0,0,1-1.48-.71l-.45-.37,1.5-2.52a3.72,3.72,0,0,0,.43.35,7.65,7.65,0,0,0,1,.54,2.87,2.87,0,0,0,1.23.34c.76,0,1.15-.26,1.15-.77a.63.63,0,0,0-.29-.55,4.92,4.92,0,0,0-1-.45,9.17,9.17,0,0,1-1.09-.46,5.6,5.6,0,0,1-1.58-1.17,2.53,2.53,0,0,1-.58-1.75,3,3,0,0,1,1.25-2.54A5.7,5.7,0,0,1,184.21,176.88Z"/><path d="M192.55,177.2v-4h3.69v4h2.25V180h-2.25v3.39c0,1,.27,1.48.83,1.48a1.25,1.25,0,0,0,.44-.08,1.27,1.27,0,0,0,.35-.17l.13-.08.91,3a5.5,5.5,0,0,1-2.71.67,4.11,4.11,0,0,1-1.79-.36,2.76,2.76,0,0,1-1.14-1,4.56,4.56,0,0,1-.55-1.29,6.22,6.22,0,0,1-.16-1.46V180H191V177.2Z"/><path d="M121.67,198.23v-3.44h12.1v3.44h-4.1V212h-3.92V198.23Z"/><path d="M137.63,195.33a2.19,2.19,0,0,1,3.73,1.55,2.19,2.19,0,0,1-4.38,0A2.14,2.14,0,0,1,137.63,195.33Zm-.35,6V212H141V201.29Z"/><path d="M156.51,207.17h-7.77a1.9,1.9,0,0,0,.73,1.66,2.53,2.53,0,0,0,1.58.55,3.69,3.69,0,0,0,1.42-.23,4.5,4.5,0,0,0,1.18-1l2.69,1.33c-1.12,1.87-3,2.79-5.56,2.79a5.77,5.77,0,0,1-4.15-1.64,5.49,5.49,0,0,1,0-8,5.7,5.7,0,0,1,4.15-1.69,5.9,5.9,0,0,1,4.14,1.48,5.45,5.45,0,0,1,1.61,4.21A4.81,4.81,0,0,1,156.51,207.17Zm-7.67-2h4.06a1.9,1.9,0,0,0-.66-1.27,2,2,0,0,0-1.36-.46,2.12,2.12,0,0,0-1.46.48A1.74,1.74,0,0,0,148.84,205.13Z"/><path d="M160.34,212V201.29H164v1.57h0a1.35,1.35,0,0,1,.13-.21c.07-.09.21-.23.41-.44a4.42,4.42,0,0,1,.67-.56,3,3,0,0,1,.92-.46,3.2,3.2,0,0,1,1.14-.21,4.39,4.39,0,0,1,1.19.17,3.87,3.87,0,0,1,.86.33l.31.19-1.56,3.12a2.93,2.93,0,0,0-1.92-.58,2.21,2.21,0,0,0-1.15.29,1.7,1.7,0,0,0-.68.71,6,6,0,0,0-.28.71,2.1,2.1,0,0,0-.08.46V212Z"/><path d="M187,194.48a9,9,0,0,1,2.73.42,8.75,8.75,0,0,1,2,.79l.63.42-1.59,3.12c-.12-.08-.3-.19-.52-.31a7,7,0,0,0-1.27-.54,5.09,5.09,0,0,0-1.71-.34,2.43,2.43,0,0,0-1.52.42,1.37,1.37,0,0,0-.52,1.12,1,1,0,0,0,.25.67,3.38,3.38,0,0,0,.86.65c.4.22.75.41,1.06.56s.77.35,1.41.62a8.42,8.42,0,0,1,2.86,1.94,3.85,3.85,0,0,1,1.19,2.75,5.85,5.85,0,0,1-.55,2.59,4.09,4.09,0,0,1-1.45,1.72,6.45,6.45,0,0,1-2.07.92,9,9,0,0,1-2.43.31,10.17,10.17,0,0,1-2.21-.23,7.93,7.93,0,0,1-1.81-.56q-.73-.35-1.32-.69a4.59,4.59,0,0,1-.85-.56l-.27-.23,2-3.29c.16.14.39.32.68.54a12.26,12.26,0,0,0,1.55.86,4.65,4.65,0,0,0,2,.54c1.66,0,2.48-.56,2.48-1.69a1.19,1.19,0,0,0-.18-.64,1.94,1.94,0,0,0-.63-.61,6.19,6.19,0,0,0-.79-.48c-.22-.12-.6-.3-1.13-.54l-1.14-.56a6.43,6.43,0,0,1-2.42-1.94,4.15,4.15,0,0,1-.85-2.5,4.72,4.72,0,0,1,1.71-3.77A5.78,5.78,0,0,1,187,194.48Z"/><path d="M197.45,210.69a6.14,6.14,0,0,1,0-8,4.93,4.93,0,0,1,3.82-1.67,4.8,4.8,0,0,1,3.5,1.35v-1h3.71V212h-3.67v-1.21h0a4.5,4.5,0,0,1-3.5,1.52A5,5,0,0,1,197.45,210.69Zm3.13-5.83a2.45,2.45,0,0,0-.71,1.81,2.47,2.47,0,0,0,.69,1.81,2.44,2.44,0,0,0,1.81.69,2.37,2.37,0,0,0,1.77-.71,2.43,2.43,0,0,0,.71-1.79,2.46,2.46,0,0,0-2.48-2.52A2.47,2.47,0,0,0,200.58,204.86Z"/><path d="M213.06,212V194.06h3.69V212Z"/><path d="M232.19,207.17h-7.77a1.9,1.9,0,0,0,.73,1.66,2.53,2.53,0,0,0,1.58.55,3.69,3.69,0,0,0,1.42-.23,4.5,4.5,0,0,0,1.18-1l2.69,1.33c-1.12,1.87-3,2.79-5.56,2.79a5.77,5.77,0,0,1-4.15-1.64,5.49,5.49,0,0,1,0-8,5.7,5.7,0,0,1,4.15-1.69,5.94,5.94,0,0,1,4.15,1.48,5.48,5.48,0,0,1,1.6,4.21A4.81,4.81,0,0,1,232.19,207.17Zm-7.67-2h4.06a1.9,1.9,0,0,0-.66-1.27,2,2,0,0,0-1.36-.46,2.08,2.08,0,0,0-1.45.48A1.71,1.71,0,0,0,224.52,205.13Z"/><path d="M240.67,201a7.92,7.92,0,0,1,1.81.21,7.17,7.17,0,0,1,1.34.42l.43.22-1.2,2.42a5.16,5.16,0,0,0-2.38-.67,2.12,2.12,0,0,0-.9.15.59.59,0,0,0-.22.67.4.4,0,0,0,.08.16l.1.13.19.1.19.11.25.08.25.1.27.09.31.08a9,9,0,0,1,1.13.42,6.36,6.36,0,0,1,1,.62,2.77,2.77,0,0,1,.83,1,3.25,3.25,0,0,1,.29,1.38q0,3.65-5.06,3.64a6.88,6.88,0,0,1-2.19-.35,5.09,5.09,0,0,1-1.48-.71l-.46-.37,1.5-2.52.44.35a9.17,9.17,0,0,0,1,.54,2.84,2.84,0,0,0,1.23.33c.76,0,1.15-.25,1.15-.77a.61.61,0,0,0-.3-.54,4.85,4.85,0,0,0-1-.46,8.25,8.25,0,0,1-1.08-.45,5.46,5.46,0,0,1-1.58-1.17,2.56,2.56,0,0,1-.59-1.75,3,3,0,0,1,1.25-2.54A5.75,5.75,0,0,1,240.67,201Z"/><path class="cls-28" d="M99.44,324a2.2,2.2,0,0,0-1.6.83,6.05,6.05,0,0,0-1.11,1.63l-.35.81-3.27-1.58a4.1,4.1,0,0,1,.21-.54,9.72,9.72,0,0,1,.68-1.19,8.1,8.1,0,0,1,1.19-1.52A6.28,6.28,0,0,1,97,321.18a5.71,5.71,0,0,1,2.46-.54,9.14,9.14,0,0,1,3,.43,5.46,5.46,0,0,1,2,1.07,4.63,4.63,0,0,1,1.1,1.5,5.19,5.19,0,0,1,.54,1.56,7.91,7.91,0,0,1,.13,1.48,5.3,5.3,0,0,1-.63,2.39,9.32,9.32,0,0,1-1.52,2.21,22.92,22.92,0,0,1-1.79,1.77,17.18,17.18,0,0,1-1.52,1.23l-.63.44h6.4v3.44H93v-1l1-.79c.4-.35,1.11-1,2.13-2s1.9-1.86,2.68-2.69a21.53,21.53,0,0,0,2.13-2.71,4.69,4.69,0,0,0,1-2.35,2.88,2.88,0,0,0-.09-.71,4,4,0,0,0-.27-.85,1.69,1.69,0,0,0-.75-.84A2.5,2.5,0,0,0,99.44,324Z"/><path class="cls-28" d="M110.92,338.16V327.45h3.69v1.15h0a4.29,4.29,0,0,1,3.06-1.46,6.2,6.2,0,0,1,1.59.21,5.54,5.54,0,0,1,1.5.66,3.19,3.19,0,0,1,1.16,1.25,3.62,3.62,0,0,1,.46,1.86v7h-3.71v-6a2.15,2.15,0,0,0-.54-1.46,1.7,1.7,0,0,0-1.37-.63,2.16,2.16,0,0,0-1.52.65,2,2,0,0,0-.67,1.44v6Z"/><path class="cls-28" d="M127.53,336.85a6.15,6.15,0,0,1,0-8.05,4.9,4.9,0,0,1,3.81-1.66,4.79,4.79,0,0,1,3.5,1.35v-8.27h3.71v17.94h-3.67V337h0a4.52,4.52,0,0,1-3.5,1.52A5,5,0,0,1,127.53,336.85Zm3.12-5.84a2.49,2.49,0,0,0,1.8,4.31,2.38,2.38,0,0,0,1.77-.7,2.65,2.65,0,0,0,0-3.61,2.41,2.41,0,0,0-1.75-.71A2.51,2.51,0,0,0,130.65,331Z"/><path class="cls-28" d="M54.25,348.48v-3.43h12.1v3.43h-4.1v13.77H58.33V348.48Z"/><path class="cls-28" d="M70.21,345.59a2.09,2.09,0,0,1,1.54-.65,2.19,2.19,0,0,1,0,4.38,2.09,2.09,0,0,1-1.54-.65,2.15,2.15,0,0,1,0-3.08Zm-.36,6v10.7h3.69v-10.7Z"/><path class="cls-28" d="M89.08,357.42H81.31a1.94,1.94,0,0,0,.73,1.67,2.61,2.61,0,0,0,1.59.54A3.46,3.46,0,0,0,85,359.4a4.32,4.32,0,0,0,1.19-1l2.69,1.34a6,6,0,0,1-5.56,2.79,5.78,5.78,0,0,1-4.15-1.65,5.49,5.49,0,0,1,0-8,5.74,5.74,0,0,1,4.15-1.69,5.9,5.9,0,0,1,4.14,1.48,5.45,5.45,0,0,1,1.61,4.21A3.89,3.89,0,0,1,89.08,357.42Zm-7.66-2h4.06a1.93,1.93,0,0,0-.67-1.27,2,2,0,0,0-1.35-.46,2.11,2.11,0,0,0-1.46.48A1.7,1.7,0,0,0,81.42,355.38Z"/><path class="cls-28" d="M92.92,362.25v-10.7h3.69v1.56h0l.12-.21.42-.44a5.1,5.1,0,0,1,.67-.56,3.22,3.22,0,0,1,.91-.46,3.54,3.54,0,0,1,1.15-.21,4.39,4.39,0,0,1,1.19.17,4.3,4.3,0,0,1,.85.33l.31.19-1.56,3.13a2.87,2.87,0,0,0-1.91-.59,2.21,2.21,0,0,0-1.15.29,1.86,1.86,0,0,0-.69.71,5.69,5.69,0,0,0-.27.71,1.63,1.63,0,0,0-.08.46v5.62Z"/><path class="cls-28" d="M119.53,344.73a9,9,0,0,1,2.73.42,9.24,9.24,0,0,1,2,.79l.62.42-1.58,3.12-.52-.31a8.69,8.69,0,0,0-1.27-.54,5.1,5.1,0,0,0-1.71-.33,2.48,2.48,0,0,0-1.52.41,1.37,1.37,0,0,0-.52,1.13,1,1,0,0,0,.25.66,3.09,3.09,0,0,0,.85.65l1.06.56,1.42.63a8.37,8.37,0,0,1,2.86,1.94,3.81,3.81,0,0,1,1.18,2.75,5.8,5.8,0,0,1-.54,2.58,4.14,4.14,0,0,1-1.46,1.73,6.5,6.5,0,0,1-2.06.91,9,9,0,0,1-2.44.32,10.83,10.83,0,0,1-2.21-.23,8.84,8.84,0,0,1-1.81-.56c-.49-.24-.93-.47-1.31-.69a5.38,5.38,0,0,1-.85-.56l-.28-.23,2-3.3c.17.15.4.33.69.55a12.81,12.81,0,0,0,1.54.85,4.55,4.55,0,0,0,2,.54c1.65,0,2.48-.56,2.48-1.69a1.14,1.14,0,0,0-.19-.64,1.8,1.8,0,0,0-.62-.61,6,6,0,0,0-.79-.47c-.23-.13-.6-.31-1.13-.55l-1.14-.56a6.27,6.27,0,0,1-2.42-1.94,4.14,4.14,0,0,1-.86-2.5,4.74,4.74,0,0,1,1.71-3.77A5.83,5.83,0,0,1,119.53,344.73Z"/><path class="cls-28" d="M130,360.94a6.14,6.14,0,0,1,0-8,4.91,4.91,0,0,1,3.81-1.67,4.78,4.78,0,0,1,3.5,1.36v-1h3.71v10.7h-3.66v-1.2h0a4.51,4.51,0,0,1-3.5,1.52A4.94,4.94,0,0,1,130,360.94Zm3.13-5.83a2.43,2.43,0,0,0-.71,1.81,2.46,2.46,0,0,0,.69,1.81,2.43,2.43,0,0,0,1.81.69,2.34,2.34,0,0,0,1.77-.71A2.52,2.52,0,0,0,135,354.4,2.47,2.47,0,0,0,133.16,355.11Z"/><path class="cls-28" d="M145.64,362.25V344.32h3.69v17.93Z"/><path class="cls-28" d="M164.77,357.42H157a1.94,1.94,0,0,0,.73,1.67,2.61,2.61,0,0,0,1.59.54,3.46,3.46,0,0,0,1.41-.23,4.32,4.32,0,0,0,1.19-1l2.69,1.34a6,6,0,0,1-5.56,2.79,5.78,5.78,0,0,1-4.15-1.65,5.49,5.49,0,0,1,0-8,5.74,5.74,0,0,1,4.15-1.69,5.9,5.9,0,0,1,4.14,1.48,5.45,5.45,0,0,1,1.61,4.21A4.66,4.66,0,0,1,164.77,357.42Zm-7.67-2h4.06a1.93,1.93,0,0,0-.67-1.27,2,2,0,0,0-1.35-.46,2.12,2.12,0,0,0-1.46.48A1.7,1.7,0,0,0,157.1,355.38Z"/><path class="cls-28" d="M173.25,351.23a8.52,8.52,0,0,1,1.81.21,7,7,0,0,1,1.33.42l.44.23-1.21,2.41a5.07,5.07,0,0,0-2.37-.66,2.15,2.15,0,0,0-.9.14.5.5,0,0,0-.25.5.88.88,0,0,0,0,.17.32.32,0,0,0,.09.17l.1.12.19.11.18.1.25.08.25.11.28.08a2,2,0,0,0,.31.08,8.84,8.84,0,0,1,1.12.42,6.78,6.78,0,0,1,1,.63,2.71,2.71,0,0,1,.84,1,3.17,3.17,0,0,1,.29,1.37q0,3.65-5.06,3.65a6.62,6.62,0,0,1-2.19-.36,5.09,5.09,0,0,1-1.48-.71l-.46-.37,1.5-2.52a5.2,5.2,0,0,0,.44.35,6.43,6.43,0,0,0,1,.54,2.87,2.87,0,0,0,1.23.34c.76,0,1.14-.26,1.14-.77a.6.6,0,0,0-.29-.54,4.16,4.16,0,0,0-1-.46,8.92,8.92,0,0,1-1.08-.46,5.47,5.47,0,0,1-1.59-1.17,2.53,2.53,0,0,1-.58-1.75,3,3,0,0,1,1.25-2.54A5.71,5.71,0,0,1,173.25,351.23Z"/><path class="cls-28" d="M8.25,81.4v3a10.64,10.64,0,0,1,2.17.56A8.4,8.4,0,0,1,12,85.7l.5.31-1.58,3.1-.53-.31a6.61,6.61,0,0,0-1.27-.52A5,5,0,0,0,7.38,88a2.47,2.47,0,0,0-1.53.41,1.36,1.36,0,0,0-.52,1.13,1.09,1.09,0,0,0,.23.64,2.59,2.59,0,0,0,.82.67c.4.22.73.4,1,.52l1.39.58.06,0,.09,0a8.65,8.65,0,0,1,2.85,1.93A3.86,3.86,0,0,1,13,96.67a5,5,0,0,1-1.29,3.69,6,6,0,0,1-3.42,1.69v3.12H5.92v-3a11.42,11.42,0,0,1-2-.32,8.54,8.54,0,0,1-1.65-.56c-.45-.22-.85-.44-1.21-.65a5.53,5.53,0,0,1-.77-.52L0,99.92l2-3.27c.18.14.4.33.69.55a12.69,12.69,0,0,0,1.56.85,4.73,4.73,0,0,0,2,.54c1.63,0,2.46-.56,2.46-1.69a1.32,1.32,0,0,0-.19-.66,2,2,0,0,0-.63-.61c-.29-.19-.55-.35-.79-.48l-1.12-.54c-.5-.23-.89-.42-1.15-.56a6.62,6.62,0,0,1-2.41-1.92,4.07,4.07,0,0,1-.86-2.5,4.75,4.75,0,0,1,1.27-3.31,5.81,5.81,0,0,1,3.13-1.79V81.4Z"/><path class="cls-28" d="M24.22,87.49a2.25,2.25,0,0,0-1.65.85,6.22,6.22,0,0,0-1.17,1.71l-.35.83-3.4-1.64a4.1,4.1,0,0,1,.21-.54,13.82,13.82,0,0,1,.73-1.25,9,9,0,0,1,1.23-1.57,6.78,6.78,0,0,1,1.85-1.25,6,6,0,0,1,2.55-.56,9.6,9.6,0,0,1,3,.44,5.56,5.56,0,0,1,2,1.1,5,5,0,0,1,1.16,1.54A6.13,6.13,0,0,1,31,88.8a9.36,9.36,0,0,1,.12,1.52,5.41,5.41,0,0,1-.66,2.46,10.92,10.92,0,0,1-1.57,2.29,24.45,24.45,0,0,1-1.85,1.83,16,16,0,0,1-1.56,1.27l-.65.46h6.6v3.57H17.57v-1c.25-.19.58-.46,1-.81s1.15-1,2.19-2,2-1.93,2.79-2.79a23.59,23.59,0,0,0,2.19-2.79,4.88,4.88,0,0,0,1-2.44,3.17,3.17,0,0,0-.09-.73,3.79,3.79,0,0,0-.29-.89,1.76,1.76,0,0,0-.77-.86A2.56,2.56,0,0,0,24.22,87.49Z"/><path class="cls-28" d="M39,97.57a2.37,2.37,0,0,1,1.75.73,2.46,2.46,0,0,1,0,3.5A2.47,2.47,0,1,1,39,97.57Z"/><path class="cls-28" d="M45.74,98.65,49,97.11c.4,1.35,1.44,2,3.12,2a2.4,2.4,0,0,0,1.81-.73,2.53,2.53,0,0,0,.73-1.85,2.56,2.56,0,0,0-.71-1.85,3.46,3.46,0,0,0-1.66-1A7.67,7.67,0,0,0,50,93.4,7.36,7.36,0,0,0,47,94l1.48-9.59h9.08V88H51.92l-.39,2.47h.23l.27,0a9,9,0,0,1,2.46.32,6.38,6.38,0,0,1,2.1,1,4.31,4.31,0,0,1,1.52,1.93,7.43,7.43,0,0,1,.56,3,5.38,5.38,0,0,1-1.87,4.21,6.85,6.85,0,0,1-4.73,1.65,7.07,7.07,0,0,1-4.19-1.13A5.77,5.77,0,0,1,45.74,98.65Z"/><path class="cls-28" d="M498.54,80.35v3a10.64,10.64,0,0,1,2.17.56,8.4,8.4,0,0,1,1.54.69l.5.31-1.58,3.1-.52-.31a8.14,8.14,0,0,0-1.27-.52,5.15,5.15,0,0,0-1.71-.33,2.42,2.42,0,0,0-1.52.41,1.33,1.33,0,0,0-.52,1.13,1,1,0,0,0,.23.64,2.65,2.65,0,0,0,.81.67,11.13,11.13,0,0,0,1,.52l1.39.59.07,0,.08,0a8.53,8.53,0,0,1,2.85,1.94,3.79,3.79,0,0,1,1.19,2.77A5,5,0,0,1,502,99.3a6,6,0,0,1-3.42,1.69v3.13h-2.33v-3a10.58,10.58,0,0,1-2-.32,8.54,8.54,0,0,1-1.65-.56c-.45-.22-.85-.44-1.21-.64a6.59,6.59,0,0,1-.77-.52l-.25-.23,2-3.27.69.54a11.44,11.44,0,0,0,1.56.85,4.59,4.59,0,0,0,2,.54q2.46,0,2.46-1.68a1.24,1.24,0,0,0-.19-.67,2,2,0,0,0-.62-.61c-.29-.19-.56-.35-.79-.47s-.62-.31-1.13-.55-.89-.42-1.15-.56a6.62,6.62,0,0,1-2.41-1.92,4.05,4.05,0,0,1-.86-2.5,4.79,4.79,0,0,1,1.27-3.31,5.91,5.91,0,0,1,3.13-1.79V80.35Z"/><path class="cls-28" d="M514.51,86.43a2.31,2.31,0,0,0-1.65.85A6.31,6.31,0,0,0,511.7,89l-.36.83L508,88.18a5.71,5.71,0,0,1,.2-.54c.11-.24.36-.65.73-1.25a9,9,0,0,1,1.23-1.57A7.08,7.08,0,0,1,512,83.57a5.9,5.9,0,0,1,2.54-.56,9.56,9.56,0,0,1,3,.44,5.48,5.48,0,0,1,2,1.1,5,5,0,0,1,1.17,1.55,5.91,5.91,0,0,1,.56,1.64,9.45,9.45,0,0,1,.12,1.52,5.41,5.41,0,0,1-.66,2.46A10.51,10.51,0,0,1,519.2,94c-.62.67-1.23,1.28-1.86,1.84a16.62,16.62,0,0,1-1.56,1.27l-.65.45h6.61v3.57H507.86v-1c.25-.2.59-.47,1-.82s1.15-1,2.19-2,2-1.92,2.79-2.79A22.8,22.8,0,0,0,516,91.7a4.79,4.79,0,0,0,1-2.44,3.79,3.79,0,0,0-.08-.73,4,4,0,0,0-.3-.89,1.76,1.76,0,0,0-.77-.86A2.56,2.56,0,0,0,514.51,86.43Z"/><path class="cls-28" d="M529.26,96.51a2.35,2.35,0,0,1,1.75.73,2.46,2.46,0,0,1,0,3.5,2.32,2.32,0,0,1-1.75.73,2.47,2.47,0,0,1-1.73-4.23A2.41,2.41,0,0,1,529.26,96.51Z"/><path class="cls-28" d="M536,97.6l3.21-1.55c.4,1.35,1.44,2,3.12,2a2.46,2.46,0,0,0,1.82-.72,2.78,2.78,0,0,0,0-3.71,3.54,3.54,0,0,0-1.67-1,7.68,7.68,0,0,0-2.23-.29,7.37,7.37,0,0,0-3,.56l1.48-9.59h9.08v3.57h-5.6l-.4,2.48h.23l.27,0a9,9,0,0,1,2.46.31,6.49,6.49,0,0,1,2.1,1,4.31,4.31,0,0,1,1.52,1.93,7.45,7.45,0,0,1,.57,3.05,5.37,5.37,0,0,1-1.88,4.2,6.85,6.85,0,0,1-4.73,1.65,7,7,0,0,1-4.18-1.12A5.83,5.83,0,0,1,536,97.6Z"/><g class="cls-38"><g class="cls-39"><g class="cls-39"><g class="cls-39"><path class="cls-35" d="M314,154.83h0c.25.41.67.21,1,0,.25-.07.44-.2.44-.44l0,0a.38.38,0,0,0-.06-.13.34.34,0,0,1,0-.08c-.4-.87-2.42-5.38-2.73-6.14-1.39-3.54-2.91-7.54-4.41-11Q301,120.2,293.56,103.29c-1.49-3.4-2.86-6.71-4.38-10.1-.35-.78-.81-2-1-2.54a.27.27,0,0,0,0-.12,1.12,1.12,0,0,0-.34-.53.72.72,0,0,0-.44-.15.75.75,0,0,0-.5.18.71.71,0,0,0-.28.69.7.7,0,0,0,0,.14c.06.21.65,1.9,1.13,3,1.53,3.38,2.89,6.68,4.38,10.08q7.42,16.91,14.67,33.64c1.5,3.48,3,7.47,4.4,11,.3.77,2.35,5.33,2.75,6.22Z"/></g></g></g></g><g class="cls-40"><g class="cls-39"><g class="cls-39"><g class="cls-39"><path class="cls-35" d="M285.27,102.21c.17-1.39,1.16-7.89,1.82-10.82,0-.21.1-.41.14-.58a1.91,1.91,0,0,1,.26.13c2.4,1.48,7.13,4.53,9.32,6a.77.77,0,0,0,.84-1.3c-2.19-1.43-6.93-4.49-9.34-6a7.75,7.75,0,0,0-.88-.46,2.1,2.1,0,0,0-.57-.16.76.76,0,0,0-.69.29,1.4,1.4,0,0,0-.24.44,11.09,11.09,0,0,0-.35,1.31c-.7,3.12-1.77,10.18-1.86,11.17a1,1,0,0,0,.07.54.73.73,0,0,0,.66.42.82.82,0,0,0,.81-.69A.88.88,0,0,0,285.27,102.21Z"/></g></g></g></g><path class="cls-28" d="M317.12,105.24v3a10.66,10.66,0,0,1,2.17.57,8.5,8.5,0,0,1,1.54.68l.5.32-1.58,3.1-.53-.31a6,6,0,0,0-1.27-.52,5.08,5.08,0,0,0-1.7-.34,2.4,2.4,0,0,0-1.53.42,1.35,1.35,0,0,0-.52,1.12,1.1,1.1,0,0,0,.23.65,2.73,2.73,0,0,0,.82.67c.4.22.73.39,1,.52l1.39.58.06,0,.09,0a8.68,8.68,0,0,1,2.85,1.94,3.86,3.86,0,0,1,1.19,2.77,5,5,0,0,1-1.29,3.69,6.11,6.11,0,0,1-3.42,1.69V129h-2.33v-3a10.57,10.57,0,0,1-2-.31,9.28,9.28,0,0,1-1.65-.56c-.45-.22-.85-.44-1.21-.65a6.59,6.59,0,0,1-.77-.52l-.25-.23,2-3.27.69.54a11.21,11.21,0,0,0,1.56.86,4.73,4.73,0,0,0,2,.54c1.63,0,2.46-.56,2.46-1.69a1.36,1.36,0,0,0-.19-.67,2.15,2.15,0,0,0-.63-.6c-.29-.19-.55-.35-.79-.48l-1.12-.54c-.5-.23-.89-.42-1.15-.56a6.62,6.62,0,0,1-2.41-1.92,4.1,4.1,0,0,1-.86-2.5,4.73,4.73,0,0,1,1.27-3.31,5.81,5.81,0,0,1,3.13-1.79v-3.13Z"/><path class="cls-28" d="M325.88,115.51v-4l5.08-3.29h1.92V126h-4.06V113.62Z"/><path class="cls-28" d="M337.36,117.14a10.15,10.15,0,0,1,2.08-6.82,6.63,6.63,0,0,1,5.17-2.41,6.55,6.55,0,0,1,5.14,2.41,10.15,10.15,0,0,1,2.09,6.82,13.72,13.72,0,0,1-.59,4.21,7.54,7.54,0,0,1-1.6,2.89,7,7,0,0,1-2.29,1.61,7.2,7.2,0,0,1-2.75.52,7.28,7.28,0,0,1-2.75-.52,7,7,0,0,1-2.31-1.61,7.43,7.43,0,0,1-1.61-2.89A13.73,13.73,0,0,1,337.36,117.14Zm4.1,0a8.66,8.66,0,0,0,.82,4.25,2.58,2.58,0,0,0,2.33,1.41,2.54,2.54,0,0,0,2.31-1.41,8.79,8.79,0,0,0,.81-4.25,8.67,8.67,0,0,0-.83-4.17,2.52,2.52,0,0,0-2.29-1.5,2.56,2.56,0,0,0-2.31,1.5A8.6,8.6,0,0,0,341.46,117.14Z"/><path class="cls-28" d="M203.58,102.61v3a10.64,10.64,0,0,1,2.17.56,8.4,8.4,0,0,1,1.54.69l.5.31-1.58,3.1-.52-.31a8.14,8.14,0,0,0-1.27-.52,5.1,5.1,0,0,0-1.71-.33,2.42,2.42,0,0,0-1.52.41,1.33,1.33,0,0,0-.52,1.13,1,1,0,0,0,.23.64,2.65,2.65,0,0,0,.81.67,11.13,11.13,0,0,0,1,.52l1.4.59.06,0,.08,0a8.67,8.67,0,0,1,2.86,1.94,3.82,3.82,0,0,1,1.18,2.77,5,5,0,0,1-1.29,3.68,6,6,0,0,1-3.42,1.69v3.13h-2.33v-3a10.71,10.71,0,0,1-2-.32,8.78,8.78,0,0,1-1.65-.56c-.44-.22-.85-.44-1.2-.64a6.89,6.89,0,0,1-.78-.52l-.25-.23,2-3.27.69.54a11.44,11.44,0,0,0,1.56.85,4.59,4.59,0,0,0,2,.54q2.46,0,2.46-1.68a1.24,1.24,0,0,0-.19-.67,2,2,0,0,0-.62-.61c-.29-.19-.56-.35-.79-.47s-.62-.31-1.13-.55-.88-.42-1.14-.56a6.57,6.57,0,0,1-2.42-1.92,4.1,4.1,0,0,1-.85-2.5,4.75,4.75,0,0,1,1.27-3.31,5.88,5.88,0,0,1,3.12-1.79v-3.12Z"/><path class="cls-28" d="M212.34,112.88v-4l5.08-3.3h1.92V123.4h-4.06V111Z"/><path class="cls-28" d="M223.82,114.5a10.1,10.1,0,0,1,2.09-6.81,6.7,6.7,0,0,1,10.31,0,10.15,10.15,0,0,1,2.08,6.81,14,14,0,0,1-.58,4.21,7.52,7.52,0,0,1-1.61,2.9,7,7,0,0,1-2.29,1.6,7.2,7.2,0,0,1-2.75.52,7.32,7.32,0,0,1-2.75-.52,7.17,7.17,0,0,1-2.31-1.6,7.39,7.39,0,0,1-1.6-2.9A13.72,13.72,0,0,1,223.82,114.5Zm4.11,0a8.76,8.76,0,0,0,.81,4.25,2.57,2.57,0,0,0,2.33,1.42,2.53,2.53,0,0,0,2.31-1.42,8.64,8.64,0,0,0,.82-4.25,8.55,8.55,0,0,0-.84-4.17,2.51,2.51,0,0,0-2.29-1.5,2.58,2.58,0,0,0-2.31,1.5A8.64,8.64,0,0,0,227.93,114.5Z"/><g class="cls-41"><g class="cls-42"><g class="cls-42"><g class="cls-42"><path class="cls-35" d="M167.07,307.08h0c-.14.46.29.64.69.71.22.14.45.19.62,0h.06a.5.5,0,0,0,0-.13l0-.07c.39-.89,2.39-5.4,2.75-6.14,1.7-3.4,3.67-7.2,5.25-10.66q7.62-16.56,15.22-33.41c1.53-3.38,3.08-6.6,4.58-10,.34-.78,1-2,1.23-2.43l.07-.11a1.1,1.1,0,0,0,.17-.6.78.78,0,0,0-.19-.44.73.73,0,0,0-.46-.25.72.72,0,0,0-.71.26.74.74,0,0,0-.08.12c-.12.18-1,1.75-1.45,2.82-1.5,3.4-3,6.62-4.57,10q-7.6,16.82-15.21,33.39c-1.59,3.44-3.54,7.23-5.23,10.62-.37.75-2.39,5.31-2.78,6.2Z"/></g></g></g></g><g class="cls-43"><g class="cls-42"><g class="cls-42"><g class="cls-42"><path class="cls-35" d="M187,250.53c1.14-.81,6.64-4.42,9.26-5.88l.53-.29a1.46,1.46,0,0,1,.08.29c.5,2.77,1.39,8.33,1.79,10.9a.79.79,0,0,0,.89.65.78.78,0,0,0,.65-.88c-.41-2.58-1.3-8.16-1.81-10.94a7.67,7.67,0,0,0-.25-1,1.61,1.61,0,0,0-.26-.53.82.82,0,0,0-.67-.33,2,2,0,0,0-.49.12,13,13,0,0,0-1.21.62c-2.79,1.56-8.76,5.49-9.55,6.08a1,1,0,0,0-.35.41.71.71,0,0,0,.13.78.8.8,0,0,0,1,.14A.56.56,0,0,0,187,250.53Z"/></g></g></g></g><path class="cls-28" d="M142.4,256v3a11.05,11.05,0,0,1,2.16.56,8.55,8.55,0,0,1,1.55.69l.5.31L145,263.72c-.12-.08-.3-.19-.52-.31a6,6,0,0,0-1.27-.52,5.09,5.09,0,0,0-1.71-.34A2.37,2.37,0,0,0,140,263a1.32,1.32,0,0,0-.52,1.12,1,1,0,0,0,.23.65,2.8,2.8,0,0,0,.81.67c.4.22.74.39,1,.52l1.4.58.06,0,.08,0a8.72,8.72,0,0,1,2.86,1.94,3.86,3.86,0,0,1,1.19,2.77,5.06,5.06,0,0,1-1.3,3.69,6.11,6.11,0,0,1-3.41,1.69v3.12h-2.34v-3a10.81,10.81,0,0,1-2-.31,9.43,9.43,0,0,1-1.64-.56c-.45-.22-.85-.44-1.21-.65a5.81,5.81,0,0,1-.77-.52l-.25-.23,2-3.27.68.54a11.49,11.49,0,0,0,1.57.86,4.7,4.7,0,0,0,2,.54c1.63,0,2.45-.56,2.45-1.69a1.35,1.35,0,0,0-.18-.67,2.28,2.28,0,0,0-.63-.6c-.29-.19-.56-.35-.79-.48l-1.13-.54c-.5-.24-.88-.42-1.14-.56a6.74,6.74,0,0,1-2.42-1.92,4.15,4.15,0,0,1-.85-2.5,4.73,4.73,0,0,1,1.27-3.31,5.82,5.82,0,0,1,3.12-1.79V256Z"/><path class="cls-28" d="M151.15,266.28v-4l5.09-3.29h1.91V276.8h-4.06V264.39Z"/><path class="cls-28" d="M162.63,267.91a10.15,10.15,0,0,1,2.09-6.82,6.72,6.72,0,0,1,10.31,0,10.15,10.15,0,0,1,2.08,6.82,13.62,13.62,0,0,1-.58,4.2,7.65,7.65,0,0,1-1.6,2.9,6.83,6.83,0,0,1-2.3,1.6,7,7,0,0,1-2.75.53,7.17,7.17,0,0,1-2.75-.53,7.07,7.07,0,0,1-2.31-1.6,7.39,7.39,0,0,1-1.6-2.9A13.6,13.6,0,0,1,162.63,267.91Zm4.11,0a8.79,8.79,0,0,0,.81,4.25,2.62,2.62,0,0,0,4.65,0,8.79,8.79,0,0,0,.81-4.25,8.65,8.65,0,0,0-.83-4.17,2.53,2.53,0,0,0-2.3-1.5,2.58,2.58,0,0,0-2.31,1.5A8.73,8.73,0,0,0,166.74,267.91Z"/><g class="cls-44"><g class="cls-45"><g class="cls-45"><g class="cls-45"><path class="cls-35" d="M379.24,313.16h0c.25.41.66.22,1,0,.25-.07.45-.2.44-.44l0,0a.54.54,0,0,0-.07-.13.13.13,0,0,0,0-.08c-.39-.87-2.42-5.38-2.72-6.14-1.4-3.54-2.91-7.54-4.42-11q-7.23-16.74-14.67-33.66c-1.49-3.4-2.85-6.7-4.38-10.09-.35-.78-.8-2-1-2.54a.93.93,0,0,0,0-.13,1.14,1.14,0,0,0-.33-.53.82.82,0,0,0-.45-.14.78.78,0,0,0-.5.17.72.72,0,0,0-.28.7.7.7,0,0,0,0,.14c.07.21.65,1.9,1.14,3,1.52,3.38,2.88,6.68,4.37,10.07q7.42,16.92,14.67,33.65c1.5,3.47,3,7.46,4.4,11,.3.78,2.35,5.33,2.75,6.22A.59.59,0,0,1,379.24,313.16Z"/></g></g></g></g><g class="cls-46"><g class="cls-45"><g class="cls-45"><g class="cls-45"><path class="cls-35" d="M350.51,260.54c.17-1.39,1.16-7.89,1.82-10.83,0-.2.1-.4.15-.58a1.69,1.69,0,0,1,.26.14c2.39,1.47,7.13,4.53,9.31,5.95a.78.78,0,0,0,1.07-.23.76.76,0,0,0-.23-1.06c-2.18-1.43-6.93-4.49-9.33-6-.09,0-.54-.3-.89-.45a2.16,2.16,0,0,0-.56-.17.8.8,0,0,0-.7.29,1.74,1.74,0,0,0-.24.45,10.56,10.56,0,0,0-.35,1.31c-.7,3.11-1.77,10.17-1.86,11.16a1.11,1.11,0,0,0,.07.54.73.73,0,0,0,.67.42.79.79,0,0,0,.8-.68A.67.67,0,0,0,350.51,260.54Z"/></g></g></g></g><path class="cls-28" d="M382.36,263.57v3a10.64,10.64,0,0,1,2.17.56,8.4,8.4,0,0,1,1.54.69l.5.31L385,271.28l-.52-.32a8.14,8.14,0,0,0-1.27-.52,5.15,5.15,0,0,0-1.71-.33,2.35,2.35,0,0,0-1.52.42,1.32,1.32,0,0,0-.52,1.12,1.05,1.05,0,0,0,.23.65,2.8,2.8,0,0,0,.81.66,11.13,11.13,0,0,0,1,.52l1.39.59.07,0,.08,0a8.53,8.53,0,0,1,2.85,1.94,3.8,3.8,0,0,1,1.19,2.77,5.06,5.06,0,0,1-1.29,3.69,6.1,6.1,0,0,1-3.42,1.68v3.13H380v-3a11.55,11.55,0,0,1-2-.31,9.51,9.51,0,0,1-1.65-.57c-.44-.22-.85-.43-1.21-.64a7.59,7.59,0,0,1-.77-.52l-.25-.23,2-3.27.69.54a11.44,11.44,0,0,0,1.56.85,4.59,4.59,0,0,0,2,.54q2.46,0,2.46-1.68a1.24,1.24,0,0,0-.19-.67,1.88,1.88,0,0,0-.62-.6,7.62,7.62,0,0,0-.79-.48c-.24-.13-.62-.31-1.13-.54s-.88-.43-1.14-.57a6.66,6.66,0,0,1-2.42-1.91,4.16,4.16,0,0,1-.86-2.5,4.78,4.78,0,0,1,1.28-3.32,5.91,5.91,0,0,1,3.12-1.79v-3.12Z"/><path class="cls-28" d="M391.12,273.84v-4l5.08-3.29h1.92v17.81h-4.06V271.94Z"/><path class="cls-28" d="M402.6,275.46c0-2.92.69-5.2,2.09-6.81a6.7,6.7,0,0,1,10.31,0,10.17,10.17,0,0,1,2.08,6.81,14,14,0,0,1-.58,4.21,7.52,7.52,0,0,1-1.61,2.9,6.84,6.84,0,0,1-2.29,1.6,7.2,7.2,0,0,1-2.75.52,7.32,7.32,0,0,1-2.75-.52,7,7,0,0,1-2.31-1.6,7.39,7.39,0,0,1-1.6-2.9A13.42,13.42,0,0,1,402.6,275.46Zm4.11,0a8.76,8.76,0,0,0,.81,4.25,2.57,2.57,0,0,0,2.33,1.42,2.53,2.53,0,0,0,2.31-1.42,8.64,8.64,0,0,0,.82-4.25,8.5,8.5,0,0,0-.84-4.16,2.51,2.51,0,0,0-2.29-1.5,2.58,2.58,0,0,0-2.31,1.5A8.59,8.59,0,0,0,406.71,275.46Z"/></g></g></svg>