<svg xmlns="http://www.w3.org/2000/svg" xmlns:xlink="http://www.w3.org/1999/xlink" viewBox="0 0 69.9 256.18"><defs><style>.cls-1{fill:none;}.cls-2{clip-path:url(#clip-path);}.cls-3{fill:#082f69;}.cls-4{clip-path:url(#clip-path-2);}</style><clipPath id="clip-path"><rect class="cls-1" x="8.15" width="61.75" height="143.78"/></clipPath><clipPath id="clip-path-2"><rect class="cls-1" y="109.52" width="61.39" height="146.67"/></clipPath></defs><g id="Livello_2" data-name="Livello 2"><g id="Livello_1-2" data-name="Livello 1"><g class="cls-2"><path class="cls-3" d="M23.47,136.72h0l-7.93-25.26a2.9,2.9,0,0,0-.27-.63.79.79,0,0,0-.48-.38,3.68,3.68,0,0,0-1-.18c-.43,0-1,0-1.8,0s-1.62,0-2.12.06a2.07,2.07,0,0,0-1.07.33.86.86,0,0,0-.26.8,8.71,8.71,0,0,0,.37,1.44l9.7,29a2.86,2.86,0,0,0,.22.54,1,1,0,0,0,.32.37,1.75,1.75,0,0,0,.53.26,5.32,5.32,0,0,0,.82.15c.34,0,.74,0,1.22.06l1.73,0c.83,0,1.52,0,2,0a5.18,5.18,0,0,0,1.23-.17,1.32,1.32,0,0,0,.65-.4,2.07,2.07,0,0,0,.33-.7L69.92,0,23.47,136.72"/></g><g class="cls-4"><path class="cls-3" d="M60.24,129.88a8.54,8.54,0,0,0-1.58-2.53,10,10,0,0,0-2.24-1.85,23.67,23.67,0,0,0-2.57-1.38c-.88-.41-1.73-.79-2.57-1.15A16.82,16.82,0,0,1,49,121.8a5.5,5.5,0,0,1-1.59-1.41,3.08,3.08,0,0,1-.59-1.89,3.62,3.62,0,0,1,.26-1.39,2.94,2.94,0,0,1,.81-1.13,3.88,3.88,0,0,1,1.35-.74,6.21,6.21,0,0,1,1.89-.26,9,9,0,0,1,2.54.34,14.38,14.38,0,0,1,2,.76c.58.28,1.08.54,1.48.77a2.13,2.13,0,0,0,.88.36.64.64,0,0,0,.45-.15,1.2,1.2,0,0,0,.25-.48,5.27,5.27,0,0,0,.12-.84c0-.34,0-.75,0-1.24s0-.81,0-1.1a5.15,5.15,0,0,0-.09-.73,2,2,0,0,0-.15-.48,1.63,1.63,0,0,0-.35-.42,4.13,4.13,0,0,0-1-.64,11.65,11.65,0,0,0-1.78-.68,15.34,15.34,0,0,0-2.17-.49,16.57,16.57,0,0,0-2.32-.17,14.68,14.68,0,0,0-4.24.59,9.92,9.92,0,0,0-3.48,1.75,8.55,8.55,0,0,0-2.34,3,9.4,9.4,0,0,0-.87,4.14,9.25,9.25,0,0,0,.6,3.52,9.08,9.08,0,0,0,1.58,2.55,10.59,10.59,0,0,0,2.2,1.85,24.08,24.08,0,0,0,2.55,1.38l2.54,1.15a16.84,16.84,0,0,1,2.21,1.16,6.18,6.18,0,0,1,1.57,1.42,3.09,3.09,0,0,1,.6,1.91,4.34,4.34,0,0,1-.35,1.75,3.36,3.36,0,0,1-1,1.31,4.81,4.81,0,0,1-1.63.83,7.53,7.53,0,0,1-2.16.29,11.32,11.32,0,0,1-3.24-.42,15.72,15.72,0,0,1-2.4-.92l0,0a17.16,17.16,0,0,1-1.61-.91h0c-2.49-1.37-4.5-.19-5.4,2.9L0,255.83,41.32,142a10.66,10.66,0,0,0,1.77.79,17.24,17.24,0,0,0,2.56.66,16.23,16.23,0,0,0,3.14.28,16.49,16.49,0,0,0,4.68-.65,11.49,11.49,0,0,0,3.83-2,9.29,9.29,0,0,0,2.59-3.25,10.14,10.14,0,0,0,1-4.53,8.76,8.76,0,0,0-.61-3.43"/></g></g></g></svg>