<svg width="23" height="24" viewBox="0 0 23 24" fill="none" xmlns="http://www.w3.org/2000/svg">
<path d="M10.4719 0H12.4729C12.6508 0 12.7397 0.0888889 12.7397 0.266667V23.7333C12.7397 23.9111 12.6508 24 12.4729 24H10.4719C10.294 24 10.2051 23.9111 10.2051 23.7333V0.266667C10.2051 0.0888889 10.294 0 10.4719 0Z" fill="white"/>
<path d="M0.266806 10.7333H22.6785C22.8563 10.7333 22.9453 10.8222 22.9453 11V13C22.9453 13.1778 22.8563 13.2666 22.6785 13.2666H0.266806C0.0889352 13.2666 0 13.1778 0 13V11C0 10.8222 0.0889352 10.7333 0.266806 10.7333Z" fill="white"/>
</svg>
