<svg width="34" height="34" viewBox="0 0 34 34" fill="none" xmlns="http://www.w3.org/2000/svg">
<path d="M7.40109 9.59894L8.8153 8.18473C8.94101 8.05902 9.06672 8.05902 9.19242 8.18473L25.7859 24.7782C25.9116 24.9039 25.9116 25.0296 25.7859 25.1553L24.3717 26.5695C24.2459 26.6952 24.1202 26.6952 23.9945 26.5695L7.40109 9.97607C7.27538 9.85036 7.27538 9.72465 7.40109 9.59894Z" fill="white"/>
<path d="M7.77816 24.401L23.6174 8.56185C23.7431 8.43614 23.8688 8.43614 23.9945 8.56185L25.4087 9.97606C25.5344 10.1018 25.5344 10.2275 25.4087 10.3532L9.5695 26.1924C9.44379 26.3181 9.31808 26.3181 9.19237 26.1924L7.77816 24.7782C7.65245 24.6525 7.65245 24.5267 7.77816 24.401Z" fill="white"/>
</svg>
