<svg width="30" height="23" viewBox="0 0 30 23" fill="none" xmlns="http://www.w3.org/2000/svg">
<path d="M19.25 0C18.9526 0.526775 18.6876 1.0708 18.4564 1.6291C16.1844 1.27374 13.8702 1.27374 11.5982 1.6291C11.367 1.0708 11.102 0.526775 10.8046 0C8.66452 0.361663 6.58404 1.00936 4.62034 1.92531C1.10883 6.93745 -0.483664 13.0224 0.12812 19.0901C2.41651 20.7916 4.98489 22.0893 7.71997 22.9259C8.34276 22.1123 8.89858 21.2505 9.38209 20.349C8.48975 20.0236 7.63207 19.6119 6.82152 19.1198C7.04383 18.9735 7.25412 18.8101 7.45044 18.631C9.81403 19.7571 12.4038 20.3418 15.0273 20.3418C17.6508 20.3418 20.2406 19.7571 22.6042 18.631C22.8138 18.8088 23.0235 18.9717 23.2331 19.1198C22.4181 19.608 21.5613 20.0243 20.6725 20.3638C21.136 21.2858 21.677 22.1676 22.2897 23C25.0214 22.1662 27.5853 20.8682 29.8666 19.1642C30.4931 13.0953 28.8993 7.00542 25.3744 1.99936C23.4327 1.06445 21.3728 0.391978 19.25 0ZM10.0559 15.6246C9.3066 15.5714 8.60725 15.2331 8.10468 14.6809C7.60212 14.1286 7.33543 13.4052 7.36059 12.6626C7.33163 11.919 7.59701 11.1936 8.10033 10.6404C8.60364 10.0873 9.30521 9.75015 10.0559 9.70058C10.8066 9.75015 11.5082 10.0873 12.0115 10.6404C12.5148 11.1936 12.7802 11.919 12.7513 12.6626C12.7802 13.4062 12.5148 14.1316 12.0115 14.6847C11.5082 15.2379 10.8066 15.575 10.0559 15.6246ZM19.9987 15.6246C19.2494 15.5714 18.55 15.2331 18.0475 14.6809C17.5449 14.1286 17.2782 13.4052 17.3034 12.6626C17.2744 11.919 17.5398 11.1936 18.0431 10.6404C18.5464 10.0873 19.248 9.75015 19.9987 9.70058C20.7508 9.74645 21.4546 10.0825 21.9587 10.6365C22.4628 11.1905 22.7269 11.918 22.694 12.6626C22.7269 13.4072 22.4628 14.1347 21.9587 14.6887C21.4546 15.2426 20.7508 15.5787 19.9987 15.6246Z" fill="#FCFCFC"/>
</svg>
