<svg width="28" height="27" viewBox="0 0 28 27" fill="none" xmlns="http://www.w3.org/2000/svg">
<path d="M27.9098 7.96918C27.8941 6.83551 27.6737 5.7131 27.2583 4.65218C26.8981 3.7573 26.348 2.94458 25.6431 2.26596C24.9382 1.58734 24.0939 1.05774 23.1644 0.710999C22.0765 0.317865 20.9272 0.10529 19.7654 0.0823263C18.2697 0.0179622 17.7954 0 13.9984 0C10.2015 0 9.71479 1.00371e-07 8.2299 0.0823263C7.06866 0.105458 5.91991 0.318031 4.83252 0.710999C3.9028 1.0575 3.05845 1.58702 2.35349 2.26567C1.64854 2.94432 1.09849 3.75716 0.73856 4.65218C0.329369 5.69867 0.109032 6.8048 0.0870724 7.92278C0.0202132 9.36423 0 9.82077 0 13.4761C0 17.1313 -1.15846e-08 17.5984 0.0870724 19.0293C0.110395 20.149 0.329631 21.2536 0.73856 22.3029C1.0991 23.1977 1.64955 24.0102 2.35474 24.6885C3.05994 25.3669 3.90436 25.8962 4.83407 26.2426C5.91849 26.6515 7.06744 26.8793 8.23145 26.9162C9.72879 26.9805 10.203 27 14 27C17.797 27 18.2837 27 19.7685 26.9162C20.9303 26.8942 22.0796 26.6821 23.1675 26.289C24.0968 25.9419 24.9408 25.4121 25.6457 24.7335C26.3506 24.055 26.9008 23.2425 27.2614 22.3478C27.6704 21.3 27.8896 20.1954 27.9129 19.0742C27.9798 17.6343 28 17.1777 28 13.521C27.9969 9.86567 27.9969 9.40165 27.9098 7.96918ZM13.9891 20.3885C10.018 20.3885 6.80098 17.2915 6.80098 13.4686C6.80098 9.64564 10.018 6.54868 13.9891 6.54868C15.8955 6.54868 17.7239 7.27773 19.0719 8.57547C20.4199 9.8732 21.1773 11.6333 21.1773 13.4686C21.1773 15.3038 20.4199 17.0639 19.0719 18.3617C17.7239 19.6594 15.8955 20.3885 13.9891 20.3885ZM21.4634 7.90631C21.2432 7.90651 21.0251 7.8649 20.8217 7.78388C20.6182 7.70286 20.4334 7.58401 20.2777 7.43414C20.122 7.28426 19.9985 7.1063 19.9144 6.91044C19.8302 6.71459 19.787 6.50467 19.7872 6.29272C19.7872 6.08091 19.8305 5.87119 19.9147 5.67551C19.9989 5.47983 20.1223 5.30203 20.2779 5.15226C20.4335 5.0025 20.6182 4.88369 20.8214 4.80264C21.0247 4.72159 21.2426 4.67987 21.4626 4.67987C21.6826 4.67987 21.9004 4.72159 22.1037 4.80264C22.307 4.88369 22.4917 5.0025 22.6472 5.15226C22.8028 5.30203 22.9262 5.47983 23.0104 5.67551C23.0946 5.87119 23.1379 6.08091 23.1379 6.29272C23.1379 7.18483 22.3885 7.90631 21.4634 7.90631Z" fill="#FCFCFC"/>
</svg>
