<svg width="31" height="25" viewBox="0 0 31 25" fill="none" xmlns="http://www.w3.org/2000/svg">
<path d="M27.8151 6.23042C27.8356 6.50451 27.8356 6.77703 27.8356 7.04956C27.8356 15.3897 21.4422 25 9.75809 25C6.15835 25 2.81417 23.9647 0 22.1667C0.511093 22.2247 1.00326 22.245 1.53486 22.245C4.39476 22.2519 7.17367 21.3024 9.42367 19.5496C8.0977 19.5257 6.81233 19.0914 5.74702 18.3071C4.68171 17.5229 3.88965 16.4279 3.48143 15.1751C3.87421 15.2331 4.26857 15.2722 4.68186 15.2722C5.25132 15.2722 5.82394 15.1939 6.35554 15.0576C4.91653 14.7692 3.62257 13.9947 2.69368 12.866C1.76479 11.7373 1.25832 10.324 1.26038 8.86637V8.78806C2.10747 9.25636 3.09022 9.54924 4.13134 9.5884C3.25915 9.01295 2.54398 8.23209 2.04964 7.31548C1.5553 6.39888 1.29716 5.37504 1.29824 4.3353C1.29824 3.16376 1.61215 2.08934 2.16268 1.15274C3.75928 3.10271 5.75059 4.69797 8.00765 5.8352C10.2647 6.97243 12.7372 7.62626 15.265 7.75435C15.1672 7.28449 15.1072 6.79739 15.1072 6.30873C15.1068 5.48014 15.2709 4.6596 15.59 3.894C15.9092 3.1284 16.3772 2.43277 16.9673 1.84687C17.5574 1.26097 18.258 0.796284 19.0291 0.479386C19.8002 0.162488 20.6266 -0.000410943 21.4612 7.7851e-07C23.291 7.7851e-07 24.9426 0.761183 26.1036 1.99223C27.5261 1.71911 28.8902 1.20352 30.1356 0.4683C29.6614 1.92616 28.6682 3.16236 27.3419 3.94531C28.6035 3.80244 29.8365 3.47302 31 2.96799C30.131 4.22582 29.0543 5.32882 27.8151 6.23042Z" fill="#FCFCFC"/>
</svg>
