<svg width="60" height="60" viewBox="0 0 60 60" fill="none" xmlns="http://www.w3.org/2000/svg">
<g filter="url(#filter0_d_75_116)">
<circle cx="30" cy="30" r="22" fill="white"/>
</g>
<path d="M36 25.7368H23.5V25.2368L34.5 24.3568V25.2368H36V23.7368C36 22.6368 35.109 21.8648 34.021 22.0198L23.98 23.4538C22.891 23.6098 22 24.6368 22 25.7368V35.7368C22 36.2672 22.2107 36.7759 22.5858 37.151C22.9609 37.5261 23.4696 37.7368 24 37.7368H36C36.5304 37.7368 37.0391 37.5261 37.4142 37.151C37.7893 36.7759 38 36.2672 38 35.7368V27.7368C38 27.2064 37.7893 26.6977 37.4142 26.3226C37.0391 25.9475 36.5304 25.7368 36 25.7368ZM34.5 32.7428C34.303 32.7427 34.1078 32.7039 33.9258 32.6284C33.7438 32.5529 33.5784 32.4423 33.4391 32.303C33.2998 32.1636 33.1894 31.9981 33.114 31.8161C33.0387 31.634 32.9999 31.4389 33 31.2418C33.0001 31.0448 33.0389 30.8496 33.1144 30.6676C33.1899 30.4856 33.3005 30.3202 33.4398 30.1809C33.5792 30.0416 33.7447 29.9312 33.9267 29.8558C34.1088 29.7805 34.304 29.7417 34.501 29.7418C34.899 29.7419 35.2806 29.9002 35.5619 30.1816C35.8432 30.4631 36.0011 30.8448 36.001 31.2428C36.0009 31.6408 35.8427 32.0224 35.5612 32.3037C35.2797 32.585 34.898 32.7429 34.5 32.7428Z" fill="black"/>
<defs>
<filter id="filter0_d_75_116" x="0" y="0" width="60" height="60" filterUnits="userSpaceOnUse" color-interpolation-filters="sRGB">
<feFlood flood-opacity="0" result="BackgroundImageFix"/>
<feColorMatrix in="SourceAlpha" type="matrix" values="0 0 0 0 0 0 0 0 0 0 0 0 0 0 0 0 0 0 127 0" result="hardAlpha"/>
<feOffset/>
<feGaussianBlur stdDeviation="4"/>
<feComposite in2="hardAlpha" operator="out"/>
<feColorMatrix type="matrix" values="0 0 0 0 0 0 0 0 0 0 0 0 0 0 0 0 0 0 0.15 0"/>
<feBlend mode="normal" in2="BackgroundImageFix" result="effect1_dropShadow_75_116"/>
<feBlend mode="normal" in="SourceGraphic" in2="effect1_dropShadow_75_116" result="shape"/>
</filter>
</defs>
</svg>
