<svg xmlns="http://www.w3.org/2000/svg" xmlns:xlink="http://www.w3.org/1999/xlink" width="500" zoomAndPan="magnify" viewBox="0 0 375 374.999991" height="500" preserveAspectRatio="xMidYMid meet" version="1.0"><defs><g/><clipPath id="02c6950ce8"><path d="M 19.5 133 L 111 133 L 111 224.5 L 19.5 224.5 Z M 19.5 133 " clip-rule="nonzero"/></clipPath><clipPath id="cf6e1701bf"><path d="M 53.371094 166.871094 L 77.332031 166.871094 L 77.332031 190.832031 L 53.371094 190.832031 Z M 53.371094 166.871094 " clip-rule="nonzero"/></clipPath><clipPath id="629c61c4fe"><path d="M 65.351562 166.871094 C 58.734375 166.871094 53.371094 172.234375 53.371094 178.851562 C 53.371094 185.46875 58.734375 190.832031 65.351562 190.832031 C 71.96875 190.832031 77.332031 185.46875 77.332031 178.851562 C 77.332031 172.234375 71.96875 166.871094 65.351562 166.871094 " clip-rule="nonzero"/></clipPath><clipPath id="490e2d42aa"><path d="M 21 117.351562 L 126.433594 117.351562 L 126.433594 222 L 21 222 Z M 21 117.351562 " clip-rule="nonzero"/></clipPath><clipPath id="c5b4db8e49"><path d="M 69 127 L 116 127 L 116 171 L 69 171 Z M 69 127 " clip-rule="nonzero"/></clipPath><clipPath id="98642fc750"><path d="M 69.023438 121.933594 L 124.257812 116.511719 L 129.019531 165.027344 L 73.785156 170.449219 Z M 69.023438 121.933594 " clip-rule="nonzero"/></clipPath><clipPath id="cb3037c055"><path d="M 124.1875 116.515625 L 52.535156 123.550781 L 58.6875 186.25 L 130.34375 179.214844 Z M 124.1875 116.515625 " clip-rule="nonzero"/></clipPath><clipPath id="84ef426374"><path d="M 102 127 L 126 127 L 126 142 L 102 142 Z M 102 127 " clip-rule="nonzero"/></clipPath><clipPath id="d15e4bf41d"><path d="M 69.023438 121.933594 L 124.257812 116.511719 L 129.019531 165.027344 L 73.785156 170.449219 Z M 69.023438 121.933594 " clip-rule="nonzero"/></clipPath><clipPath id="74dd9e3d2d"><path d="M 124.1875 116.515625 L 52.535156 123.550781 L 58.6875 186.25 L 130.34375 179.214844 Z M 124.1875 116.515625 " clip-rule="nonzero"/></clipPath><clipPath id="2231d27a26"><path d="M 101 117 L 116 117 L 116 141 L 101 141 Z M 101 117 " clip-rule="nonzero"/></clipPath><clipPath id="36e95e8e88"><path d="M 69.023438 121.933594 L 124.257812 116.511719 L 129.019531 165.027344 L 73.785156 170.449219 Z M 69.023438 121.933594 " clip-rule="nonzero"/></clipPath><clipPath id="18f316bf8a"><path d="M 124.1875 116.515625 L 52.535156 123.550781 L 58.6875 186.25 L 130.34375 179.214844 Z M 124.1875 116.515625 " clip-rule="nonzero"/></clipPath></defs><rect x="-37.5" width="450" fill="#ffffff" y="-37.499999" height="449.999989" fill-opacity="1"/><rect x="-37.5" width="450" fill="#ffffff" y="-37.499999" height="449.999989" fill-opacity="1"/><rect x="-37.5" width="450" fill="#ffffff" y="-37.499999" height="449.999989" fill-opacity="1"/><g fill="#020506" fill-opacity="1"><g transform="translate(110.270058, 197.905811)"><g><path d="M 13.484375 0 L 13.484375 -11.171875 L 24.65625 -11.171875 L 24.65625 0 Z M 13.484375 0 "/></g></g></g><g fill="#020506" fill-opacity="1"><g transform="translate(146.246955, 197.905811)"><g><path d="M 1.625 0 L 1.625 -50.46875 L 9.25 -50.46875 L 18.953125 -24.109375 L 19.5625 -24.109375 L 29.28125 -50.46875 L 36.90625 -50.46875 L 36.90625 0 L 29.65625 0 L 29.890625 -34.125 L 29.59375 -34.125 L 23.03125 -17.109375 L 15.484375 -17.109375 L 8.9375 -34.125 L 8.625 -34.125 L 8.859375 0 Z M 1.625 0 "/></g></g></g><g fill="#020506" fill-opacity="1"><g transform="translate(182.223853, 197.905811)"><g><path d="M 2.234375 -36.59375 L 10.859375 -36.59375 L 19.71875 -6.859375 L 20.34375 -6.859375 L 27.8125 -36.59375 L 36.21875 -36.59375 L 26.046875 -0.921875 C 24.960938 2.878906 23.957031 5.789062 23.03125 7.8125 C 22.113281 9.84375 20.832031 11.5 19.1875 12.78125 C 17.539062 14.070312 15.710938 14.894531 13.703125 15.25 C 11.703125 15.613281 8.878906 15.820312 5.234375 15.875 L 5.234375 8.703125 C 8.367188 8.703125 10.679688 8.367188 12.171875 7.703125 C 13.660156 7.035156 14.6875 5.984375 15.25 4.546875 L 15.71875 3.390625 Z M 2.234375 -36.59375 "/></g></g></g><g fill="#020506" fill-opacity="1"><g transform="translate(218.200745, 197.905811)"><g><path d="M 28.890625 0 L 28.890625 -6.703125 L 9.859375 -37.984375 L 9.625 -37.984375 L 9.625 0 L 2.390625 0 L 2.390625 -50.46875 L 9.625 -50.46875 L 28.578125 -18.875 L 28.890625 -18.875 L 28.890625 -50.46875 L 36.140625 -50.46875 L 36.140625 0 Z M 28.890625 0 "/></g></g></g><g fill="#020506" fill-opacity="1"><g transform="translate(254.177649, 197.905811)"><g><path d="M 16.640625 -6.625 C 18.078125 -6.625 19.664062 -6.957031 21.40625 -7.625 C 23.15625 -8.289062 24.546875 -9.035156 25.578125 -9.859375 L 25.578125 -15.25 C 22.492188 -15.507812 19.976562 -15.640625 18.03125 -15.640625 C 13.769531 -15.640625 11.640625 -14.046875 11.640625 -10.859375 C 11.640625 -8.035156 13.304688 -6.625 16.640625 -6.625 Z M 15.40625 0.84375 C 7.1875 0.84375 3.078125 -3.054688 3.078125 -10.859375 C 3.078125 -15.023438 4.398438 -17.941406 7.046875 -19.609375 C 9.691406 -21.273438 13.351562 -22.109375 18.03125 -22.109375 C 20.238281 -22.109375 22.753906 -21.984375 25.578125 -21.734375 C 25.578125 -24.804688 25.140625 -26.90625 24.265625 -28.03125 C 23.390625 -29.164062 21.875 -29.734375 19.71875 -29.734375 C 17.5625 -29.734375 15.046875 -29.476562 12.171875 -28.96875 C 9.296875 -28.457031 7.085938 -27.941406 5.546875 -27.421875 L 4.078125 -34.75 C 9.472656 -36.394531 14.738281 -37.21875 19.875 -37.21875 C 25.007812 -37.21875 28.566406 -36.085938 30.546875 -33.828125 C 32.523438 -31.566406 33.515625 -27.738281 33.515625 -22.34375 L 33.515625 -6.703125 L 34.359375 0.078125 L 26.421875 0.84375 L 25.65625 -2.703125 C 21.34375 -0.335938 17.925781 0.84375 15.40625 0.84375 Z M 15.40625 0.84375 "/></g></g></g><g fill="#020506" fill-opacity="1"><g transform="translate(290.154553, 197.905811)"><g><path d="M 9.328125 -36.59375 L 9.546875 -34.515625 C 11.503906 -36.316406 13.40625 -37.21875 15.25 -37.21875 C 17.875 -37.21875 19.851562 -36.238281 21.1875 -34.28125 C 23.851562 -36.238281 26.21875 -37.21875 28.28125 -37.21875 C 31.363281 -37.21875 33.554688 -36.316406 34.859375 -34.515625 C 36.171875 -32.722656 36.828125 -29.382812 36.828125 -24.5 L 36.828125 0 L 28.96875 0 L 28.96875 -21.109375 C 28.96875 -25.835938 28.554688 -28.5625 27.734375 -29.28125 C 27.328125 -29.6875 26.738281 -29.890625 25.96875 -29.890625 C 25.195312 -29.890625 24.21875 -29.378906 23.03125 -28.359375 C 23.289062 -27.171875 23.421875 -24.753906 23.421875 -21.109375 L 23.421875 -12.5625 L 15.640625 -12.5625 L 15.640625 -21.109375 C 15.640625 -25.785156 15.359375 -28.507812 14.796875 -29.28125 C 14.484375 -29.6875 13.953125 -29.890625 13.203125 -29.890625 C 12.460938 -29.890625 11.347656 -29.328125 9.859375 -28.203125 L 9.859375 0 L 1.765625 0 L 1.765625 -36.59375 Z M 9.328125 -36.59375 "/></g></g></g><g fill="#020506" fill-opacity="1"><g transform="translate(326.131456, 197.905811)"><g><path d="M 3.78125 -18.265625 C 3.78125 -24.472656 5.164062 -29.179688 7.9375 -32.390625 C 10.707031 -35.609375 14.554688 -37.21875 19.484375 -37.21875 C 24.421875 -37.21875 28.238281 -35.765625 30.9375 -32.859375 C 33.632812 -29.953125 35.035156 -25.703125 35.140625 -20.109375 L 34.828125 -14.40625 L 12.328125 -14.40625 C 12.785156 -8.863281 15.5625 -6.09375 20.65625 -6.09375 C 24.195312 -6.09375 27.941406 -6.734375 31.890625 -8.015625 L 33.515625 -1.3125 C 31.867188 -0.75 29.734375 -0.25 27.109375 0.1875 C 24.492188 0.625 22.34375 0.84375 20.65625 0.84375 C 9.40625 0.84375 3.78125 -5.523438 3.78125 -18.265625 Z M 19.796875 -30.046875 C 17.390625 -30.046875 15.582031 -29.335938 14.375 -27.921875 C 13.164062 -26.515625 12.484375 -24.164062 12.328125 -20.875 L 26.578125 -20.875 C 26.578125 -26.988281 24.316406 -30.046875 19.796875 -30.046875 Z M 19.796875 -30.046875 "/></g></g></g><path fill="#040606" d="M 73.34375 170.660156 C 77.800781 175.128906 77.800781 182.375 73.34375 186.839844 C 68.875 191.300781 61.628906 191.300781 57.160156 186.839844 C 52.703125 182.375 52.703125 175.128906 57.160156 170.660156 C 61.628906 166.199219 68.875 166.199219 73.34375 170.660156 " fill-opacity="1" fill-rule="nonzero"/><path fill="#040606" d="M 65.25 155.875 C 52.621094 155.875 42.375 166.121094 42.375 178.75 C 42.375 191.382812 52.621094 201.625 65.25 201.625 C 77.882812 201.625 88.125 191.382812 88.125 178.75 C 88.125 166.121094 77.882812 155.875 65.25 155.875 Z M 36.65625 178.75 C 36.65625 162.960938 49.460938 150.15625 65.25 150.15625 C 81.042969 150.15625 93.84375 162.960938 93.84375 178.75 C 93.84375 194.542969 81.042969 207.34375 65.25 207.34375 C 49.460938 207.34375 36.65625 194.542969 36.65625 178.75 " fill-opacity="1" fill-rule="nonzero"/><g clip-path="url(#02c6950ce8)"><path fill="#040606" d="M 25.21875 178.75 C 25.21875 156.640625 43.140625 138.71875 65.25 138.71875 C 87.363281 138.71875 105.28125 156.640625 105.28125 178.75 C 105.28125 200.863281 87.363281 218.78125 65.25 218.78125 C 43.140625 218.78125 25.21875 200.863281 25.21875 178.75 Z M 65.25 133 C 39.988281 133 19.5 153.480469 19.5 178.75 C 19.5 204.015625 39.988281 224.5 65.25 224.5 C 90.523438 224.5 111 204.015625 111 178.75 C 111 153.480469 90.523438 133 65.25 133 " fill-opacity="1" fill-rule="nonzero"/></g><g clip-path="url(#cf6e1701bf)"><g clip-path="url(#629c61c4fe)"><path fill="#ea3438" d="M 53.371094 166.871094 L 77.332031 166.871094 L 77.332031 190.832031 L 53.371094 190.832031 Z M 53.371094 166.871094 " fill-opacity="1" fill-rule="nonzero"/></g></g><g clip-path="url(#490e2d42aa)"><path fill="#000000" d="M 112.90625 143.039062 C 112.652344 143.292969 112.347656 143.421875 111.984375 143.421875 L 102.101562 143.421875 L 65.988281 179.394531 C 65.867188 179.515625 65.726562 179.609375 65.566406 179.671875 C 65.40625 179.738281 65.242188 179.769531 65.070312 179.769531 C 64.898438 179.769531 64.730469 179.738281 64.570312 179.671875 C 64.414062 179.605469 64.273438 179.511719 64.152344 179.390625 C 64.027344 179.269531 63.933594 179.128906 63.867188 178.972656 C 63.800781 178.8125 63.769531 178.648438 63.769531 178.476562 C 63.769531 178.304688 63.800781 178.136719 63.867188 177.980469 C 63.933594 177.820312 64.027344 177.679688 64.148438 177.558594 L 72.390625 169.347656 C 72.019531 169.054688 71.632812 168.78125 71.230469 168.535156 C 70.828125 168.289062 70.414062 168.066406 69.984375 167.871094 C 69.554688 167.671875 69.113281 167.503906 68.664062 167.359375 C 68.214844 167.214844 67.757812 167.101562 67.292969 167.011719 C 66.828125 166.921875 66.359375 166.863281 65.886719 166.832031 C 65.417969 166.800781 64.945312 166.796875 64.472656 166.820312 C 64 166.84375 63.53125 166.898438 63.066406 166.980469 C 62.601562 167.0625 62.140625 167.171875 61.691406 167.308594 C 61.238281 167.445312 60.796875 167.609375 60.363281 167.800781 C 59.929688 167.988281 59.511719 168.207031 59.105469 168.445312 C 58.699219 168.6875 58.308594 168.953125 57.933594 169.242188 C 57.5625 169.527344 57.207031 169.839844 56.871094 170.167969 C 56.535156 170.5 56.21875 170.851562 55.925781 171.21875 C 55.628906 171.589844 55.359375 171.972656 55.113281 172.375 C 54.867188 172.777344 54.644531 173.191406 54.449219 173.621094 C 54.253906 174.046875 54.082031 174.488281 53.941406 174.9375 C 53.796875 175.382812 53.679688 175.839844 53.59375 176.304688 C 53.507812 176.765625 53.445312 177.230469 53.417969 177.703125 C 53.386719 178.171875 53.382812 178.640625 53.410156 179.113281 C 53.4375 179.582031 53.492188 180.050781 53.574219 180.511719 C 53.65625 180.976562 53.769531 181.433594 53.90625 181.882812 C 54.046875 182.335938 54.210938 182.773438 54.402344 183.203125 C 54.59375 183.636719 54.8125 184.050781 55.054688 184.457031 C 55.296875 184.859375 55.566406 185.246094 55.855469 185.621094 C 56.144531 185.992188 56.457031 186.34375 56.789062 186.679688 C 57.125 187.011719 57.476562 187.324219 57.847656 187.617188 C 58.21875 187.910156 58.605469 188.175781 59.007812 188.421875 C 59.414062 188.667969 59.828125 188.886719 60.261719 189.082031 C 60.691406 189.277344 61.132812 189.445312 61.582031 189.585938 C 62.035156 189.726562 62.492188 189.839844 62.957031 189.925781 C 63.421875 190.011719 63.890625 190.070312 64.359375 190.097656 C 64.832031 190.128906 65.304688 190.128906 65.777344 190.101562 C 66.25 190.074219 66.714844 190.019531 67.183594 189.933594 C 67.648438 189.851562 68.105469 189.738281 68.558594 189.601562 C 69.007812 189.460938 69.449219 189.296875 69.882812 189.101562 C 70.3125 188.910156 70.730469 188.691406 71.136719 188.449219 C 71.539062 188.207031 71.929688 187.9375 72.300781 187.648438 C 72.675781 187.359375 73.027344 187.046875 73.363281 186.714844 C 73.695312 186.382812 74.011719 186.03125 74.300781 185.660156 C 74.59375 185.289062 74.863281 184.902344 75.105469 184.5 C 75.351562 184.097656 75.570312 183.679688 75.765625 183.253906 C 75.960938 182.824219 76.125 182.382812 76.265625 181.933594 C 76.40625 181.484375 76.519531 181.027344 76.605469 180.5625 C 76.691406 180.101562 76.75 179.632812 76.777344 179.164062 C 76.804688 178.695312 76.804688 178.222656 76.777344 177.753906 C 76.746094 177.285156 76.691406 176.816406 76.605469 176.355469 C 76.519531 175.890625 76.40625 175.433594 76.265625 174.984375 C 76.125 174.535156 75.957031 174.097656 75.761719 173.667969 C 75.691406 173.511719 75.652344 173.347656 75.648438 173.175781 C 75.644531 173.003906 75.671875 172.835938 75.734375 172.675781 C 75.792969 172.515625 75.882812 172.375 76.003906 172.25 C 76.121094 172.125 76.257812 172.023438 76.414062 171.953125 C 76.570312 171.882812 76.734375 171.84375 76.910156 171.839844 C 77.082031 171.835938 77.246094 171.863281 77.410156 171.921875 C 77.570312 171.980469 77.714844 172.070312 77.839844 172.1875 C 77.964844 172.304688 78.066406 172.441406 78.136719 172.597656 C 78.375 173.125 78.582031 173.664062 78.757812 174.21875 C 78.929688 174.773438 79.070312 175.332031 79.175781 175.902344 C 79.28125 176.472656 79.351562 177.046875 79.386719 177.625 C 79.421875 178.203125 79.421875 178.78125 79.382812 179.359375 C 79.347656 179.9375 79.277344 180.511719 79.171875 181.082031 C 79.066406 181.652344 78.925781 182.214844 78.753906 182.765625 C 78.578125 183.320312 78.371094 183.859375 78.132812 184.386719 C 77.890625 184.914062 77.621094 185.425781 77.316406 185.921875 C 77.015625 186.417969 76.683594 186.890625 76.324219 187.347656 C 75.960938 187.800781 75.574219 188.230469 75.160156 188.640625 C 74.75 189.046875 74.3125 189.429688 73.851562 189.785156 C 73.390625 190.140625 72.914062 190.464844 72.414062 190.761719 C 71.914062 191.058594 71.398438 191.324219 70.867188 191.558594 C 70.332031 191.792969 69.789062 191.992188 69.234375 192.160156 C 68.675781 192.332031 68.113281 192.464844 67.539062 192.5625 C 66.964844 192.664062 66.390625 192.730469 65.808594 192.757812 C 65.226562 192.789062 64.648438 192.785156 64.066406 192.742188 C 63.484375 192.703125 62.910156 192.628906 62.339844 192.519531 C 61.769531 192.40625 61.207031 192.265625 60.652344 192.085938 C 60.097656 191.90625 59.558594 191.695312 59.03125 191.453125 C 58.503906 191.207031 57.992188 190.933594 57.5 190.628906 C 57.003906 190.324219 56.53125 189.988281 56.078125 189.625 C 55.625 189.261719 55.195312 188.875 54.789062 188.457031 C 54.382812 188.042969 54.003906 187.605469 53.652344 187.144531 C 53.296875 186.683594 52.976562 186.203125 52.683594 185.703125 C 52.386719 185.203125 52.125 184.6875 51.894531 184.152344 C 51.664062 183.621094 51.46875 183.078125 51.304688 182.523438 C 51.140625 181.964844 51.007812 181.402344 50.914062 180.832031 C 50.820312 180.257812 50.757812 179.683594 50.734375 179.105469 C 50.707031 178.527344 50.71875 177.949219 50.761719 177.371094 C 50.808594 176.792969 50.890625 176.21875 51.003906 175.652344 C 51.121094 175.082031 51.269531 174.523438 51.453125 173.976562 C 51.636719 173.425781 51.851562 172.890625 52.101562 172.363281 C 52.351562 171.839844 52.632812 171.335938 52.941406 170.84375 C 53.253906 170.355469 53.59375 169.886719 53.960938 169.4375 C 54.328125 168.988281 54.722656 168.566406 55.144531 168.164062 C 55.5625 167.761719 56.007812 167.390625 56.472656 167.042969 C 56.9375 166.695312 57.421875 166.378906 57.929688 166.089844 C 58.433594 165.800781 58.953125 165.542969 59.488281 165.320312 C 60.023438 165.09375 60.570312 164.902344 61.132812 164.742188 C 61.691406 164.582031 62.257812 164.460938 62.832031 164.367188 C 63.40625 164.277344 63.984375 164.222656 64.566406 164.203125 C 65.148438 164.183594 65.726562 164.199219 66.308594 164.25 C 66.886719 164.296875 67.460938 164.382812 68.03125 164.503906 C 68.597656 164.621094 69.160156 164.777344 69.710938 164.964844 C 70.257812 165.152344 70.796875 165.371094 71.320312 165.625 C 71.84375 165.878906 72.347656 166.160156 72.839844 166.472656 C 73.328125 166.789062 73.796875 167.128906 74.242188 167.5 L 82.554688 159.21875 C 81.371094 158.144531 80.09375 157.1875 78.730469 156.351562 C 77.367188 155.511719 75.9375 154.804688 74.441406 154.230469 C 72.949219 153.660156 71.410156 153.226562 69.835938 152.9375 C 68.261719 152.648438 66.671875 152.503906 65.070312 152.507812 C 50.695312 152.507812 39.003906 164.160156 39.003906 178.476562 C 39.003906 192.792969 50.695312 204.445312 65.070312 204.445312 C 79.441406 204.445312 91.132812 192.792969 91.132812 178.476562 C 91.140625 175.789062 90.734375 173.160156 89.914062 170.597656 C 89.097656 168.035156 87.90625 165.660156 86.339844 163.46875 C 86.242188 163.328125 86.171875 163.171875 86.132812 163.003906 C 86.09375 162.835938 86.089844 162.667969 86.117188 162.5 C 86.148438 162.328125 86.207031 162.171875 86.300781 162.023438 C 86.390625 161.878906 86.507812 161.757812 86.648438 161.65625 C 86.789062 161.558594 86.945312 161.488281 87.113281 161.449219 C 87.28125 161.410156 87.453125 161.40625 87.621094 161.4375 C 87.792969 161.464844 87.953125 161.523438 88.097656 161.617188 C 88.246094 161.707031 88.367188 161.824219 88.46875 161.964844 C 88.816406 162.457031 89.152344 162.957031 89.46875 163.472656 C 89.789062 163.984375 90.089844 164.507812 90.375 165.039062 C 90.660156 165.570312 90.925781 166.109375 91.175781 166.65625 C 91.429688 167.207031 91.660156 167.761719 91.875 168.324219 C 92.089844 168.890625 92.289062 169.457031 92.46875 170.035156 C 92.648438 170.609375 92.808594 171.191406 92.949219 171.777344 C 93.09375 172.363281 93.214844 172.953125 93.320312 173.546875 C 93.425781 174.136719 93.511719 174.734375 93.578125 175.332031 C 93.644531 175.933594 93.695312 176.53125 93.722656 177.136719 C 93.753906 177.738281 93.761719 178.339844 93.753906 178.941406 C 93.742188 179.542969 93.714844 180.144531 93.667969 180.746094 C 93.621094 181.347656 93.554688 181.945312 93.46875 182.542969 C 93.382812 183.140625 93.277344 183.734375 93.15625 184.324219 C 93.03125 184.914062 92.890625 185.5 92.730469 186.082031 C 92.570312 186.660156 92.390625 187.238281 92.195312 187.808594 C 91.996094 188.375 91.78125 188.941406 91.550781 189.496094 C 91.316406 190.050781 91.066406 190.601562 90.800781 191.140625 C 90.53125 191.683594 90.25 192.214844 89.949219 192.738281 C 89.644531 193.257812 89.328125 193.773438 88.996094 194.273438 C 88.660156 194.777344 88.3125 195.269531 87.949219 195.75 C 87.582031 196.230469 87.203125 196.699219 86.808594 197.15625 C 86.414062 197.613281 86.003906 198.058594 85.582031 198.488281 C 85.160156 198.917969 84.722656 199.335938 84.273438 199.738281 C 83.824219 200.144531 83.363281 200.53125 82.886719 200.90625 C 82.414062 201.28125 81.929688 201.640625 81.433594 201.984375 C 80.933594 202.328125 80.429688 202.65625 79.910156 202.96875 C 79.394531 203.28125 78.867188 203.574219 78.328125 203.855469 C 77.792969 204.132812 77.25 204.394531 76.695312 204.636719 C 76.140625 204.882812 75.582031 205.109375 75.015625 205.320312 C 74.449219 205.527344 73.875 205.71875 73.292969 205.890625 C 72.714844 206.066406 72.128906 206.21875 71.542969 206.355469 C 70.953125 206.492188 70.359375 206.609375 69.761719 206.707031 C 69.164062 206.808594 68.566406 206.886719 67.964844 206.949219 C 67.363281 207.007812 66.757812 207.050781 66.15625 207.074219 C 65.550781 207.097656 64.945312 207.101562 64.339844 207.085938 C 63.734375 207.070312 63.132812 207.035156 62.53125 206.984375 C 61.925781 206.929688 61.328125 206.859375 60.730469 206.769531 C 60.128906 206.675781 59.535156 206.566406 58.945312 206.4375 C 58.355469 206.3125 57.765625 206.164062 57.1875 206 C 56.605469 205.832031 56.027344 205.648438 55.457031 205.449219 C 54.886719 205.246094 54.324219 205.027344 53.769531 204.789062 C 53.210938 204.554688 52.664062 204.300781 52.125 204.027344 C 51.585938 203.757812 51.054688 203.46875 50.53125 203.164062 C 50.007812 202.859375 49.496094 202.535156 48.996094 202.199219 C 48.496094 201.863281 48.003906 201.507812 47.527344 201.140625 C 47.046875 200.773438 46.582031 200.390625 46.125 199.992188 C 45.671875 199.59375 45.230469 199.183594 44.800781 198.757812 C 44.371094 198.332031 43.957031 197.894531 43.558594 197.441406 C 43.15625 196.992188 42.769531 196.527344 42.398438 196.050781 C 42.027344 195.574219 41.671875 195.089844 41.332031 194.589844 C 40.992188 194.09375 40.667969 193.585938 40.359375 193.066406 C 40.050781 192.546875 39.757812 192.019531 39.484375 191.480469 C 39.210938 190.945312 38.953125 190.398438 38.710938 189.847656 C 38.472656 189.292969 38.25 188.734375 38.046875 188.164062 C 37.839844 187.597656 37.65625 187.027344 37.488281 186.445312 C 37.320312 185.867188 37.167969 185.285156 37.039062 184.695312 C 36.90625 184.105469 36.796875 183.515625 36.703125 182.917969 C 36.609375 182.324219 36.535156 181.726562 36.476562 181.125 C 36.421875 180.527344 36.386719 179.925781 36.371094 179.324219 C 36.351562 178.71875 36.355469 178.117188 36.375 177.515625 C 36.394531 176.914062 36.433594 176.3125 36.496094 175.710938 C 36.554688 175.113281 36.632812 174.515625 36.730469 173.921875 C 36.824219 173.324219 36.941406 172.734375 37.074219 172.148438 C 37.210938 171.558594 37.363281 170.976562 37.535156 170.398438 C 37.707031 169.820312 37.894531 169.25 38.105469 168.683594 C 38.3125 168.117188 38.539062 167.558594 38.78125 167.003906 C 39.023438 166.453125 39.285156 165.910156 39.5625 165.375 C 39.839844 164.839844 40.132812 164.3125 40.445312 163.796875 C 40.757812 163.28125 41.085938 162.773438 41.425781 162.277344 C 41.769531 161.78125 42.128906 161.296875 42.503906 160.820312 C 42.878906 160.347656 43.265625 159.886719 43.667969 159.4375 C 44.074219 158.988281 44.492188 158.554688 44.921875 158.128906 C 45.351562 157.707031 45.796875 157.296875 46.253906 156.902344 C 46.710938 156.507812 47.179688 156.128906 47.660156 155.761719 C 48.140625 155.398438 48.632812 155.046875 49.136719 154.714844 C 49.640625 154.378906 50.15625 154.0625 50.679688 153.757812 C 51.203125 153.457031 51.734375 153.171875 52.277344 152.902344 C 52.816406 152.636719 53.367188 152.382812 53.925781 152.152344 C 54.484375 151.917969 55.046875 151.699219 55.617188 151.503906 C 56.191406 151.304688 56.765625 151.125 57.347656 150.960938 C 57.933594 150.800781 58.519531 150.65625 59.109375 150.53125 C 59.703125 150.40625 60.296875 150.300781 60.898438 150.214844 C 61.496094 150.128906 62.097656 150.058594 62.699219 150.007812 C 63.300781 149.960938 63.90625 149.929688 64.511719 149.917969 C 65.117188 149.90625 65.71875 149.914062 66.324219 149.941406 C 66.929688 149.96875 67.53125 150.011719 68.132812 150.078125 C 68.734375 150.140625 69.332031 150.226562 69.929688 150.328125 C 70.527344 150.429688 71.117188 150.550781 71.707031 150.691406 C 72.296875 150.832031 72.878906 150.988281 73.457031 151.164062 C 74.035156 151.339844 74.609375 151.535156 75.175781 151.746094 C 75.742188 151.960938 76.300781 152.191406 76.851562 152.4375 C 77.402344 152.6875 77.945312 152.949219 78.480469 153.234375 C 79.015625 153.515625 79.539062 153.8125 80.054688 154.128906 C 80.570312 154.441406 81.078125 154.773438 81.570312 155.121094 C 82.066406 155.46875 82.550781 155.828125 83.019531 156.207031 C 83.492188 156.582031 83.953125 156.976562 84.398438 157.382812 L 92.699219 149.113281 C 92.070312 148.527344 91.421875 147.960938 90.753906 147.414062 C 90.089844 146.867188 89.40625 146.34375 88.707031 145.839844 C 88.007812 145.339844 87.292969 144.859375 86.5625 144.402344 C 85.832031 143.945312 85.089844 143.511719 84.332031 143.105469 C 83.570312 142.695312 82.800781 142.308594 82.019531 141.949219 C 81.234375 141.589844 80.441406 141.253906 79.636719 140.945312 C 78.832031 140.632812 78.019531 140.351562 77.199219 140.09375 C 76.375 139.835938 75.542969 139.605469 74.707031 139.398438 C 73.871094 139.195312 73.027344 139.015625 72.175781 138.863281 C 71.328125 138.714844 70.476562 138.589844 69.617188 138.492188 C 68.761719 138.394531 67.902344 138.328125 67.042969 138.285156 C 66.179688 138.242188 65.320312 138.226562 64.457031 138.242188 C 63.59375 138.253906 62.734375 138.292969 61.875 138.363281 C 61.015625 138.429688 60.15625 138.523438 59.304688 138.648438 C 58.449219 138.769531 57.601562 138.917969 56.757812 139.09375 C 55.914062 139.269531 55.074219 139.472656 54.246094 139.703125 C 53.414062 139.933594 52.589844 140.191406 51.777344 140.472656 C 50.960938 140.753906 50.15625 141.0625 49.363281 141.394531 C 48.570312 141.730469 47.785156 142.089844 47.015625 142.472656 C 46.242188 142.855469 45.484375 143.261719 44.738281 143.695312 C 43.992188 144.125 43.261719 144.582031 42.546875 145.058594 C 41.828125 145.539062 41.128906 146.039062 40.445312 146.5625 C 39.761719 147.085938 39.09375 147.628906 38.445312 148.195312 C 37.796875 148.761719 37.164062 149.347656 36.554688 149.953125 C 35.941406 150.558594 35.351562 151.183594 34.78125 151.828125 C 34.207031 152.46875 33.65625 153.128906 33.128906 153.808594 C 32.601562 154.488281 32.09375 155.183594 31.609375 155.894531 C 31.125 156.605469 30.664062 157.328125 30.226562 158.070312 C 29.789062 158.808594 29.375 159.5625 28.984375 160.328125 C 28.597656 161.097656 28.230469 161.875 27.890625 162.664062 C 27.554688 163.453125 27.238281 164.253906 26.953125 165.0625 C 26.664062 165.875 26.402344 166.691406 26.167969 167.519531 C 25.929688 168.34375 25.722656 169.175781 25.539062 170.015625 C 25.359375 170.855469 25.203125 171.703125 25.074219 172.550781 C 24.949219 173.402344 24.847656 174.253906 24.773438 175.109375 C 24.703125 175.964844 24.65625 176.824219 24.636719 177.683594 C 24.621094 178.539062 24.628906 179.398438 24.667969 180.257812 C 24.703125 181.117188 24.769531 181.972656 24.863281 182.828125 C 24.953125 183.679688 25.074219 184.53125 25.21875 185.378906 C 25.367188 186.222656 25.539062 187.066406 25.742188 187.902344 C 25.941406 188.734375 26.171875 189.5625 26.425781 190.386719 C 26.679688 191.207031 26.957031 192.019531 27.265625 192.820312 C 27.570312 193.625 27.902344 194.417969 28.261719 195.199219 C 28.617188 195.980469 29 196.75 29.40625 197.507812 C 29.8125 198.265625 30.242188 199.011719 30.695312 199.738281 C 31.152344 200.46875 31.628906 201.183594 32.128906 201.886719 C 32.628906 202.585938 33.152344 203.269531 33.695312 203.933594 C 34.238281 204.601562 34.804688 205.25 35.390625 205.878906 C 35.976562 206.511719 36.582031 207.121094 37.207031 207.714844 C 37.832031 208.304688 38.476562 208.875 39.136719 209.425781 C 39.796875 209.976562 40.476562 210.507812 41.171875 211.015625 C 41.867188 211.523438 42.582031 212.007812 43.308594 212.46875 C 44.035156 212.933594 44.773438 213.371094 45.53125 213.785156 C 46.285156 214.199219 47.050781 214.589844 47.832031 214.957031 C 48.613281 215.324219 49.402344 215.664062 50.207031 215.980469 C 51.007812 216.296875 51.820312 216.585938 52.640625 216.847656 C 53.460938 217.113281 54.289062 217.351562 55.125 217.5625 C 55.960938 217.773438 56.800781 217.957031 57.648438 218.113281 C 58.496094 218.273438 59.351562 218.402344 60.207031 218.507812 C 61.0625 218.609375 61.921875 218.683594 62.78125 218.734375 C 63.640625 218.78125 64.503906 218.804688 65.367188 218.796875 C 66.230469 218.789062 67.089844 218.757812 67.949219 218.695312 C 68.808594 218.632812 69.667969 218.542969 70.523438 218.429688 C 71.375 218.3125 72.226562 218.167969 73.070312 218 C 73.917969 217.828125 74.757812 217.632812 75.589844 217.410156 C 76.421875 217.183594 77.246094 216.933594 78.0625 216.660156 C 78.878906 216.382812 79.6875 216.082031 80.484375 215.753906 C 81.28125 215.425781 82.066406 215.074219 82.839844 214.695312 C 83.613281 214.316406 84.375 213.914062 85.125 213.488281 C 85.875 213.0625 86.609375 212.613281 87.328125 212.140625 C 88.046875 211.667969 88.75 211.171875 89.441406 210.652344 C 90.128906 210.136719 90.796875 209.597656 91.453125 209.035156 C 92.105469 208.476562 92.738281 207.894531 93.355469 207.292969 C 93.972656 206.691406 94.566406 206.070312 95.144531 205.433594 C 95.71875 204.792969 96.277344 204.136719 96.808594 203.460938 C 97.34375 202.785156 97.855469 202.097656 98.34375 201.390625 C 98.835938 200.683594 99.300781 199.960938 99.746094 199.222656 C 100.1875 198.484375 100.605469 197.734375 101.003906 196.972656 C 101.398438 196.207031 101.765625 195.433594 102.113281 194.644531 C 102.457031 193.859375 102.777344 193.0625 103.070312 192.253906 C 103.367188 191.445312 103.632812 190.628906 103.875 189.804688 C 104.117188 188.980469 104.332031 188.148438 104.519531 187.308594 C 104.707031 186.472656 104.871094 185.628906 105.003906 184.78125 C 105.136719 183.929688 105.246094 183.078125 105.324219 182.222656 C 105.402344 181.367188 105.457031 180.511719 105.480469 179.652344 C 105.503906 178.792969 105.5 177.933594 105.46875 177.078125 C 105.4375 176.21875 105.378906 175.359375 105.292969 174.507812 C 105.207031 173.652344 105.097656 172.800781 104.957031 171.953125 C 104.816406 171.105469 104.648438 170.261719 104.453125 169.425781 C 104.257812 168.589844 104.035156 167.757812 103.789062 166.9375 C 103.539062 166.113281 103.265625 165.300781 102.964844 164.492188 C 102.667969 163.6875 102.339844 162.894531 101.988281 162.109375 C 101.636719 161.324219 101.261719 160.550781 100.859375 159.792969 C 100.460938 159.03125 100.035156 158.285156 99.585938 157.550781 C 99.136719 156.816406 98.664062 156.097656 98.171875 155.394531 C 97.675781 154.691406 97.160156 154.003906 96.621094 153.332031 C 96.511719 153.199219 96.4375 153.050781 96.390625 152.886719 C 96.34375 152.71875 96.332031 152.554688 96.351562 152.382812 C 96.371094 152.214844 96.421875 152.054688 96.503906 151.902344 C 96.589844 151.753906 96.695312 151.625 96.832031 151.519531 C 96.964844 151.414062 97.113281 151.335938 97.277344 151.289062 C 97.445312 151.238281 97.609375 151.222656 97.78125 151.242188 C 97.953125 151.257812 98.113281 151.308594 98.265625 151.390625 C 98.414062 151.472656 98.546875 151.578125 98.652344 151.710938 C 99.226562 152.425781 99.777344 153.15625 100.304688 153.90625 C 100.832031 154.65625 101.335938 155.421875 101.8125 156.203125 C 102.292969 156.984375 102.746094 157.777344 103.171875 158.589844 C 103.597656 159.398438 104 160.222656 104.375 161.058594 C 104.746094 161.894531 105.09375 162.742188 105.414062 163.597656 C 105.734375 164.457031 106.023438 165.324219 106.289062 166.199219 C 106.554688 167.078125 106.789062 167.960938 106.996094 168.851562 C 107.203125 169.742188 107.382812 170.640625 107.53125 171.542969 C 107.679688 172.445312 107.800781 173.355469 107.890625 174.265625 C 107.984375 175.175781 108.046875 176.085938 108.078125 177 C 108.109375 177.917969 108.113281 178.832031 108.085938 179.746094 C 108.0625 180.660156 108.007812 181.574219 107.921875 182.484375 C 107.835938 183.394531 107.722656 184.304688 107.578125 185.207031 C 107.4375 186.109375 107.265625 187.007812 107.0625 187.902344 C 106.863281 188.796875 106.632812 189.679688 106.375 190.558594 C 106.117188 191.4375 105.832031 192.308594 105.519531 193.167969 C 105.207031 194.027344 104.863281 194.875 104.496094 195.714844 C 104.128906 196.554688 103.734375 197.378906 103.3125 198.191406 C 102.890625 199.003906 102.445312 199.804688 101.972656 200.589844 C 101.5 201.375 101.003906 202.144531 100.480469 202.894531 C 99.957031 203.648438 99.414062 204.382812 98.84375 205.101562 C 98.273438 205.820312 97.683594 206.519531 97.070312 207.199219 C 96.453125 207.882812 95.820312 208.542969 95.164062 209.183594 C 94.507812 209.820312 93.828125 210.441406 93.132812 211.039062 C 92.4375 211.632812 91.722656 212.207031 90.988281 212.757812 C 90.257812 213.3125 89.507812 213.839844 88.738281 214.339844 C 87.972656 214.84375 87.191406 215.324219 86.390625 215.777344 C 85.59375 216.230469 84.78125 216.660156 83.957031 217.058594 C 83.132812 217.460938 82.296875 217.835938 81.445312 218.1875 C 80.597656 218.535156 79.738281 218.855469 78.867188 219.148438 C 77.996094 219.441406 77.117188 219.707031 76.230469 219.945312 C 75.34375 220.183594 74.449219 220.394531 73.550781 220.574219 C 72.648438 220.753906 71.746094 220.90625 70.832031 221.027344 C 69.921875 221.152344 69.011719 221.246094 68.09375 221.308594 C 67.179688 221.375 66.261719 221.410156 65.34375 221.417969 C 64.421875 221.421875 63.503906 221.398438 62.589844 221.347656 C 61.671875 221.292969 60.757812 221.214844 59.84375 221.101562 C 58.933594 220.992188 58.027344 220.851562 57.125 220.683594 C 56.21875 220.515625 55.324219 220.316406 54.433594 220.09375 C 53.542969 219.867188 52.660156 219.613281 51.789062 219.332031 C 50.914062 219.050781 50.050781 218.738281 49.195312 218.402344 C 48.34375 218.066406 47.5 217.703125 46.667969 217.3125 C 45.839844 216.921875 45.019531 216.503906 44.21875 216.0625 C 43.414062 215.617188 42.625 215.148438 41.851562 214.65625 C 41.078125 214.164062 40.320312 213.648438 39.578125 213.105469 C 38.839844 212.5625 38.117188 212 37.410156 211.414062 C 36.707031 210.824219 36.023438 210.214844 35.359375 209.585938 C 34.691406 208.953125 34.046875 208.300781 33.425781 207.628906 C 32.800781 206.957031 32.199219 206.265625 31.621094 205.554688 C 31.042969 204.84375 30.488281 204.117188 29.957031 203.371094 C 29.421875 202.625 28.917969 201.863281 28.433594 201.085938 C 27.949219 200.304688 27.492188 199.511719 27.058594 198.707031 C 26.628906 197.898438 26.222656 197.078125 25.84375 196.246094 C 25.464844 195.410156 25.109375 194.566406 24.785156 193.710938 C 24.460938 192.855469 24.164062 191.988281 23.894531 191.113281 C 23.625 190.238281 23.382812 189.359375 23.167969 188.46875 C 22.957031 187.578125 22.773438 186.679688 22.617188 185.777344 C 22.460938 184.878906 22.335938 183.972656 22.238281 183.0625 C 22.140625 182.152344 22.074219 181.238281 22.035156 180.324219 C 21.996094 179.410156 21.988281 178.496094 22.007812 177.582031 C 22.027344 176.667969 22.078125 175.753906 22.15625 174.839844 C 22.234375 173.929688 22.34375 173.019531 22.480469 172.117188 C 22.617188 171.210938 22.785156 170.3125 22.980469 169.417969 C 23.175781 168.523438 23.398438 167.636719 23.648438 166.757812 C 23.902344 165.875 24.179688 165.003906 24.488281 164.144531 C 24.796875 163.28125 25.132812 162.429688 25.496094 161.589844 C 25.859375 160.75 26.246094 159.921875 26.664062 159.105469 C 27.078125 158.289062 27.519531 157.488281 27.988281 156.699219 C 28.457031 155.910156 28.949219 155.140625 29.464844 154.382812 C 29.980469 153.625 30.523438 152.886719 31.085938 152.164062 C 31.652344 151.445312 32.238281 150.742188 32.847656 150.054688 C 33.457031 149.371094 34.089844 148.707031 34.742188 148.0625 C 35.394531 147.417969 36.066406 146.796875 36.757812 146.195312 C 37.453125 145.59375 38.164062 145.015625 38.890625 144.457031 C 39.621094 143.902344 40.367188 143.371094 41.132812 142.863281 C 41.894531 142.355469 42.675781 141.871094 43.46875 141.410156 C 44.265625 140.953125 45.074219 140.519531 45.894531 140.113281 C 46.71875 139.707031 47.554688 139.324219 48.402344 138.972656 C 49.246094 138.617188 50.105469 138.289062 50.972656 137.992188 C 51.839844 137.691406 52.71875 137.421875 53.605469 137.179688 C 54.488281 136.933594 55.382812 136.71875 56.28125 136.53125 C 57.179688 136.347656 58.085938 136.1875 58.992188 136.058594 C 59.902344 135.933594 60.816406 135.832031 61.730469 135.761719 C 62.648438 135.691406 63.566406 135.648438 64.484375 135.636719 C 65.402344 135.625 66.320312 135.644531 67.238281 135.6875 C 68.15625 135.734375 69.070312 135.8125 69.980469 135.917969 C 70.894531 136.019531 71.800781 136.15625 72.707031 136.316406 C 73.609375 136.480469 74.507812 136.671875 75.398438 136.890625 C 76.292969 137.109375 77.175781 137.359375 78.050781 137.636719 C 78.925781 137.910156 79.792969 138.214844 80.648438 138.546875 C 81.503906 138.878906 82.347656 139.238281 83.183594 139.621094 C 84.015625 140.007812 84.835938 140.417969 85.640625 140.855469 C 86.449219 141.292969 87.242188 141.757812 88.015625 142.246094 C 88.792969 142.734375 89.554688 143.246094 90.300781 143.78125 C 91.042969 144.320312 91.769531 144.878906 92.476562 145.460938 C 93.183594 146.046875 93.875 146.648438 94.542969 147.277344 L 100.257812 141.585938 L 100.257812 131.734375 C 100.257812 131.378906 100.382812 131.070312 100.636719 130.816406 L 113.671875 117.835938 C 113.855469 117.648438 114.078125 117.53125 114.339844 117.480469 C 114.597656 117.425781 114.847656 117.453125 115.089844 117.554688 C 115.335938 117.652344 115.53125 117.8125 115.675781 118.03125 C 115.824219 118.25 115.894531 118.488281 115.894531 118.753906 L 115.894531 127.839844 L 125.019531 127.839844 C 125.28125 127.839844 125.523438 127.914062 125.742188 128.058594 C 125.960938 128.207031 126.121094 128.398438 126.222656 128.640625 C 126.324219 128.886719 126.347656 129.136719 126.296875 129.390625 C 126.246094 129.648438 126.125 129.871094 125.941406 130.058594 Z M 102.863281 132.273438 L 102.863281 138.988281 L 113.289062 128.601562 L 113.289062 121.886719 Z M 115.132812 130.4375 L 104.707031 140.824219 L 111.445312 140.824219 L 121.871094 130.4375 Z M 115.132812 130.4375 " fill-opacity="1" fill-rule="nonzero"/></g><g fill="#ff1616" fill-opacity="1"><g transform="translate(110.551947, 197.905811)"><g><path d="M 13.484375 0 L 13.484375 -11.171875 L 24.65625 -11.171875 L 24.65625 0 Z M 13.484375 0 "/></g></g></g><g fill="#ff1616" fill-opacity="1"><g transform="translate(146.528844, 197.905811)"><g><path d="M 1.625 0 L 1.625 -50.46875 L 9.25 -50.46875 L 18.953125 -24.109375 L 19.5625 -24.109375 L 29.28125 -50.46875 L 36.90625 -50.46875 L 36.90625 0 L 29.65625 0 L 29.890625 -34.125 L 29.59375 -34.125 L 23.03125 -17.109375 L 15.484375 -17.109375 L 8.9375 -34.125 L 8.625 -34.125 L 8.859375 0 Z M 1.625 0 "/></g></g></g><g fill="#ff1616" fill-opacity="1"><g transform="translate(182.505742, 197.905811)"><g/></g></g><g fill="#ff1616" fill-opacity="1"><g transform="translate(218.482634, 197.905811)"><g><path d="M 28.890625 0 L 28.890625 -6.703125 L 9.859375 -37.984375 L 9.625 -37.984375 L 9.625 0 L 2.390625 0 L 2.390625 -50.46875 L 9.625 -50.46875 L 28.578125 -18.875 L 28.890625 -18.875 L 28.890625 -50.46875 L 36.140625 -50.46875 L 36.140625 0 Z M 28.890625 0 "/></g></g></g><g clip-path="url(#c5b4db8e49)"><g clip-path="url(#98642fc750)"><g clip-path="url(#cb3037c055)"><path fill="#000000" d="M 62.386719 179.664062 L 65.253906 182.375 L 105.402344 140.5625 L 115.222656 127.488281 L 102.535156 137.855469 L 62.386719 179.664062 " fill-opacity="1" fill-rule="nonzero"/><path fill="#000000" d="M 63.820312 181.019531 L 115.222656 127.488281 L 102.535156 137.855469 L 62.386719 179.664062 L 63.820312 181.019531 " fill-opacity="1" fill-rule="nonzero"/></g></g></g><g clip-path="url(#84ef426374)"><g clip-path="url(#d15e4bf41d)"><g clip-path="url(#74dd9e3d2d)"><path fill="#000000" d="M 102.832031 140.390625 L 112.90625 141.699219 L 125.296875 128.796875 L 115.222656 127.488281 L 102.832031 140.390625 " fill-opacity="1" fill-rule="nonzero"/></g></g></g><g clip-path="url(#2231d27a26)"><g clip-path="url(#36e95e8e88)"><g clip-path="url(#18f316bf8a)"><path fill="#000000" d="M 113.410156 117.574219 L 115.222656 127.488281 L 102.832031 140.390625 L 101.019531 130.476562 L 113.410156 117.574219 " fill-opacity="1" fill-rule="nonzero"/></g></g></g></svg>