<svg xmlns="http://www.w3.org/2000/svg" xmlns:xlink="http://www.w3.org/1999/xlink" width="500" zoomAndPan="magnify" viewBox="0 0 375 374.999991" height="500" preserveAspectRatio="xMidYMid meet" version="1.0"><defs><g/><clipPath id="28dcd7cdf6"><path d="M 150.769531 119 L 225.019531 119 L 225.019531 154 L 150.769531 154 Z M 150.769531 119 " clip-rule="nonzero"/></clipPath><clipPath id="9e35e98a62"><path d="M 166 81.570312 L 207 81.570312 L 207 122 L 166 122 Z M 166 81.570312 " clip-rule="nonzero"/></clipPath><clipPath id="f488fb02d6"><path d="M 197.476562 130 L 271.726562 130 L 271.726562 166 L 197.476562 166 Z M 197.476562 130 " clip-rule="nonzero"/></clipPath><clipPath id="2e78f3ca96"><path d="M 213 93.011719 L 254 93.011719 L 254 133 L 213 133 Z M 213 93.011719 " clip-rule="nonzero"/></clipPath><clipPath id="780374d365"><path d="M 106 160.480469 L 270 160.480469 L 270 218.746094 L 106 218.746094 Z M 106 160.480469 " clip-rule="nonzero"/></clipPath><clipPath id="8d88d2b045"><path d="M 104.296875 130 L 178.546875 130 L 178.546875 166 L 104.296875 166 Z M 104.296875 130 " clip-rule="nonzero"/></clipPath><clipPath id="6a94a98a2f"><path d="M 120 93.011719 L 161 93.011719 L 161 133 L 120 133 Z M 120 93.011719 " clip-rule="nonzero"/></clipPath><clipPath id="2a0def9c88"><path d="M 150.769531 174 L 225.019531 174 L 225.019531 209 L 150.769531 209 Z M 150.769531 174 " clip-rule="nonzero"/></clipPath><clipPath id="c17d42c496"><path d="M 166 136.296875 L 207 136.296875 L 207 176 L 166 176 Z M 166 136.296875 " clip-rule="nonzero"/></clipPath></defs><rect x="-37.5" width="450" fill="#ffffff" y="-37.499999" height="449.999989" fill-opacity="1"/><rect x="-37.5" width="450" fill="#ffffff" y="-37.499999" height="449.999989" fill-opacity="1"/><rect x="-37.5" width="450" fill="#ffffff" y="-37.499999" height="449.999989" fill-opacity="1"/><g clip-path="url(#28dcd7cdf6)"><path fill="#0284c7" d="M 201.015625 119.414062 C 197.113281 122.46875 192.195312 124.300781 186.851562 124.300781 C 181.640625 124.300781 176.828125 122.5625 172.972656 119.640625 C 160.386719 121.664062 150.769531 132.515625 150.769531 145.601562 C 150.769531 160.128906 162.613281 150.683594 177.226562 150.683594 L 198.566406 150.683594 C 213.175781 150.683594 225.019531 160.128906 225.019531 145.601562 C 225.019531 131.898438 214.476562 120.644531 201.015625 119.414062 Z M 201.015625 119.414062 " fill-opacity="1" fill-rule="nonzero"/></g><g clip-path="url(#9e35e98a62)"><path fill="#0284c7" d="M 186.851562 121.238281 C 197.808594 121.238281 206.726562 112.371094 206.726562 101.472656 C 206.726562 90.574219 197.808594 81.710938 186.851562 81.710938 C 175.890625 81.710938 166.972656 90.574219 166.972656 101.472656 C 166.972656 112.371094 175.890625 121.238281 186.851562 121.238281 Z M 186.851562 121.238281 " fill-opacity="1" fill-rule="nonzero"/></g><g clip-path="url(#f488fb02d6)"><path fill="#11348d" d="M 247.722656 130.855469 C 243.820312 133.910156 238.902344 135.738281 233.558594 135.738281 C 228.347656 135.738281 223.535156 134 219.679688 131.078125 C 207.09375 133.101562 197.476562 143.953125 197.476562 157.039062 C 197.476562 171.570312 209.320312 162.125 223.933594 162.125 L 245.273438 162.125 C 259.882812 162.125 271.726562 171.570312 271.726562 157.039062 C 271.726562 143.335938 261.183594 132.082031 247.722656 130.855469 Z M 247.722656 130.855469 " fill-opacity="1" fill-rule="nonzero"/></g><g clip-path="url(#2e78f3ca96)"><path fill="#11348d" d="M 233.558594 132.675781 C 244.515625 132.675781 253.433594 123.8125 253.433594 112.914062 C 253.433594 102.015625 244.515625 93.148438 233.558594 93.148438 C 222.597656 93.148438 213.679688 102.015625 213.679688 112.914062 C 213.679688 123.8125 222.597656 132.675781 233.558594 132.675781 Z M 233.558594 132.675781 " fill-opacity="1" fill-rule="nonzero"/></g><g clip-path="url(#780374d365)"><path fill="#000002" d="M 267.453125 160.570312 C 267.085938 160.570312 266.75 160.671875 266.445312 160.878906 C 266.140625 161.085938 265.921875 161.363281 265.785156 161.707031 C 265.019531 163.660156 264.179688 165.585938 263.273438 167.476562 C 262.363281 169.371094 261.386719 171.226562 260.339844 173.042969 C 259.292969 174.863281 258.179688 176.640625 257 178.375 C 255.820312 180.113281 254.582031 181.800781 253.277344 183.441406 C 251.972656 185.082031 250.605469 186.675781 249.183594 188.214844 C 247.761719 189.753906 246.28125 191.238281 244.75 192.664062 C 243.214844 194.09375 241.632812 195.460938 239.996094 196.773438 C 238.359375 198.082031 236.679688 199.328125 234.949219 200.511719 C 233.222656 201.691406 231.453125 202.808594 229.640625 203.859375 C 227.828125 204.910156 225.980469 205.890625 224.097656 206.800781 C 222.214844 207.710938 220.296875 208.550781 218.351562 209.320312 C 216.40625 210.085938 214.433594 210.777344 212.433594 211.398438 C 210.4375 212.015625 208.417969 212.558594 206.378906 213.027344 C 204.339844 213.492188 202.285156 213.882812 200.21875 214.195312 C 198.152344 214.511719 196.074219 214.746094 193.988281 214.902344 C 191.90625 215.058594 189.816406 215.136719 187.726562 215.136719 C 185.632812 215.136719 183.546875 215.058594 181.460938 214.902344 C 179.375 214.746094 177.300781 214.511719 175.230469 214.195312 C 173.164062 213.882812 171.109375 213.492188 169.070312 213.027344 C 167.035156 212.558594 165.015625 212.015625 163.015625 211.398438 C 161.019531 210.777344 159.046875 210.085938 157.097656 209.320312 C 155.152344 208.550781 153.238281 207.710938 151.351562 206.800781 C 149.46875 205.890625 147.621094 204.910156 145.808594 203.859375 C 144 202.808594 142.230469 201.691406 140.5 200.511719 C 138.773438 199.328125 137.089844 198.082031 135.457031 196.773438 C 133.820312 195.460938 132.234375 194.09375 130.703125 192.664062 C 129.167969 191.238281 127.691406 189.753906 126.265625 188.214844 C 124.84375 186.675781 123.480469 185.082031 122.175781 183.441406 C 120.871094 181.800781 119.628906 180.113281 118.449219 178.375 C 117.269531 176.640625 116.15625 174.863281 115.113281 173.042969 C 114.066406 171.226562 113.085938 169.371094 112.179688 167.476562 C 111.269531 165.585938 110.433594 163.660156 109.667969 161.707031 C 109.578125 161.484375 109.453125 161.285156 109.285156 161.113281 C 109.121094 160.945312 108.925781 160.808594 108.707031 160.714844 C 108.488281 160.621094 108.261719 160.570312 108.019531 160.566406 C 107.78125 160.566406 107.554688 160.609375 107.332031 160.695312 C 107.109375 160.785156 106.914062 160.914062 106.742188 161.078125 C 106.570312 161.246094 106.4375 161.441406 106.34375 161.660156 C 106.25 161.878906 106.203125 162.109375 106.199219 162.347656 C 106.195312 162.589844 106.238281 162.820312 106.324219 163.042969 C 107.125 165.082031 107.996094 167.085938 108.945312 169.0625 C 109.890625 171.035156 110.910156 172.96875 112.003906 174.867188 C 113.09375 176.761719 114.253906 178.617188 115.484375 180.425781 C 116.714844 182.234375 118.007812 183.996094 119.371094 185.707031 C 120.730469 187.417969 122.152344 189.078125 123.636719 190.683594 C 125.121094 192.289062 126.664062 193.835938 128.261719 195.324219 C 129.859375 196.816406 131.511719 198.242188 133.21875 199.605469 C 134.925781 200.972656 136.675781 202.273438 138.480469 203.503906 C 140.28125 204.738281 142.128906 205.902344 144.015625 206.996094 C 145.90625 208.09375 147.832031 209.113281 149.796875 210.066406 C 151.761719 211.015625 153.757812 211.890625 155.789062 212.691406 C 157.820312 213.488281 159.875 214.210938 161.960938 214.859375 C 164.042969 215.503906 166.148438 216.070312 168.273438 216.554688 C 170.398438 217.042969 172.542969 217.449219 174.695312 217.777344 C 176.851562 218.101562 179.019531 218.347656 181.191406 218.511719 C 183.367188 218.675781 185.546875 218.757812 187.726562 218.757812 C 189.90625 218.757812 192.082031 218.675781 194.257812 218.511719 C 196.433594 218.347656 198.597656 218.101562 200.753906 217.777344 C 202.910156 217.449219 205.050781 217.042969 207.175781 216.554688 C 209.304688 216.070312 211.40625 215.503906 213.492188 214.859375 C 215.574219 214.210938 217.632812 213.488281 219.664062 212.691406 C 221.691406 211.890625 223.691406 211.015625 225.65625 210.066406 C 227.621094 209.113281 229.546875 208.09375 231.433594 206.996094 C 233.324219 205.902344 235.167969 204.738281 236.972656 203.503906 C 238.773438 202.273438 240.527344 200.972656 242.234375 199.605469 C 243.9375 198.242188 245.589844 196.816406 247.191406 195.324219 C 248.789062 193.835938 250.332031 192.289062 251.8125 190.683594 C 253.296875 189.078125 254.722656 187.417969 256.082031 185.707031 C 257.441406 183.996094 258.738281 182.234375 259.964844 180.425781 C 261.195312 178.617188 262.355469 176.761719 263.449219 174.867188 C 264.539062 172.96875 265.558594 171.035156 266.507812 169.0625 C 267.453125 167.085938 268.328125 165.082031 269.125 163.042969 C 269.214844 162.820312 269.253906 162.585938 269.25 162.347656 C 269.246094 162.105469 269.195312 161.875 269.101562 161.65625 C 269.003906 161.433594 268.871094 161.242188 268.695312 161.074219 C 268.523438 160.910156 268.324219 160.78125 268.101562 160.695312 C 267.894531 160.609375 267.679688 160.566406 267.453125 160.570312 Z M 267.453125 160.570312 " fill-opacity="1" fill-rule="nonzero"/></g><g clip-path="url(#8d88d2b045)"><path fill="#00adef" d="M 154.542969 130.855469 C 150.636719 133.910156 145.71875 135.738281 140.375 135.738281 C 135.164062 135.738281 130.355469 134 126.496094 131.078125 C 113.910156 133.101562 104.296875 143.953125 104.296875 157.039062 C 104.296875 171.570312 116.140625 162.125 130.75 162.125 L 152.089844 162.125 C 166.699219 162.125 178.546875 171.570312 178.546875 157.039062 C 178.546875 143.335938 168 132.082031 154.542969 130.855469 Z M 154.542969 130.855469 " fill-opacity="1" fill-rule="nonzero"/></g><g clip-path="url(#6a94a98a2f)"><path fill="#00adef" d="M 140.375 132.675781 C 151.335938 132.675781 160.25 123.8125 160.25 112.914062 C 160.25 102.015625 151.335938 93.148438 140.375 93.148438 C 129.414062 93.148438 120.496094 102.015625 120.496094 112.914062 C 120.5 123.8125 129.414062 132.675781 140.375 132.675781 Z M 140.375 132.675781 " fill-opacity="1" fill-rule="nonzero"/></g><g clip-path="url(#2a0def9c88)"><path fill="#b7edff" d="M 201.015625 174.140625 C 197.113281 177.195312 192.195312 179.027344 186.851562 179.027344 C 181.640625 179.027344 176.828125 177.289062 172.972656 174.367188 C 160.386719 176.390625 150.769531 187.242188 150.769531 200.328125 C 150.769531 214.855469 162.613281 205.410156 177.226562 205.410156 L 198.566406 205.410156 C 213.175781 205.410156 225.019531 214.855469 225.019531 200.328125 C 225.019531 186.625 214.476562 175.371094 201.015625 174.140625 Z M 201.015625 174.140625 " fill-opacity="1" fill-rule="nonzero"/></g><g clip-path="url(#c17d42c496)"><path fill="#b7edff" d="M 186.851562 175.964844 C 197.808594 175.964844 206.726562 167.097656 206.726562 156.199219 C 206.726562 145.300781 197.808594 136.4375 186.851562 136.4375 C 175.890625 136.4375 166.972656 145.300781 166.972656 156.199219 C 166.972656 167.097656 175.890625 175.964844 186.851562 175.964844 Z M 186.851562 175.964844 " fill-opacity="1" fill-rule="nonzero"/></g><g fill="#272727" fill-opacity="1"><g transform="translate(68.008498, 281.840065)"><g><path d="M 7.03125 -3.398438 C 7.03125 -1.445312 5.46875 0.15625 3.515625 0.15625 C 1.5625 0.15625 0 -1.445312 0 -3.398438 C 0 -5.3125 1.5625 -6.914062 3.515625 -6.914062 C 5.46875 -6.914062 7.03125 -5.3125 7.03125 -3.398438 Z M 7.03125 -3.398438 "/></g></g></g><g fill="#272727" fill-opacity="1"><g transform="translate(81.208198, 281.840065)"><g><path d="M 17.339844 -31.632812 C 8.511719 -31.632812 1.367188 -24.484375 1.367188 -15.660156 C 1.367188 -6.835938 8.511719 0.3125 17.339844 0.3125 C 26.164062 0.3125 33.3125 -6.835938 33.3125 -15.660156 C 33.3125 -24.484375 26.164062 -31.632812 17.339844 -31.632812 Z M 17.339844 -25.65625 C 22.882812 -25.65625 26.789062 -21.167969 26.789062 -15.660156 C 26.789062 -10.152344 22.882812 -5.664062 17.339844 -5.664062 C 11.832031 -5.664062 7.925781 -10.152344 7.925781 -15.660156 C 7.925781 -21.167969 11.832031 -25.65625 17.339844 -25.65625 Z M 17.339844 -25.65625 "/></g></g></g><g fill="#272727" fill-opacity="1"><g transform="translate(122.053092, 281.840065)"><g><path d="M 20.699219 -31.242188 L 20.699219 -10.816406 C 20.699219 -7.652344 18.160156 -5.117188 15.035156 -5.117188 L 14.253906 -5.117188 C 11.128906 -5.117188 8.589844 -7.652344 8.589844 -10.816406 L 8.589844 -31.242188 L 2.734375 -31.242188 L 2.734375 -10.816406 C 2.734375 -4.492188 7.925781 0.703125 14.253906 0.703125 L 15.035156 0.703125 C 21.363281 0.703125 26.515625 -4.492188 26.515625 -10.816406 L 26.515625 -31.242188 Z M 20.699219 -31.242188 "/></g></g></g><g fill="#272727" fill-opacity="1"><g transform="translate(157.470477, 281.840065)"><g><path d="M 27.140625 -19.527344 C 27.140625 -26.007812 24.171875 -31.242188 16.207031 -31.242188 L 2.734375 -31.242188 L 2.734375 0 L 8.589844 0 L 8.589844 -7.769531 L 16.207031 -7.769531 C 16.910156 -7.769531 17.574219 -7.808594 18.199219 -7.886719 L 21.011719 0 L 27.140625 0 L 23.585938 -9.996094 C 26.164062 -12.144531 27.140625 -15.621094 27.140625 -19.527344 Z M 8.589844 -13.628906 L 8.589844 -25.421875 L 16.207031 -25.421875 C 19.097656 -25.421875 19.878906 -24.445312 20.152344 -24.132812 C 20.894531 -23.195312 21.285156 -21.558594 21.285156 -19.527344 C 21.285156 -17.378906 20.894531 -15.738281 20.191406 -14.878906 C 19.527344 -14.019531 18.199219 -13.628906 16.207031 -13.628906 Z M 8.589844 -13.628906 "/></g></g></g><g fill="#272727" fill-opacity="1"><g transform="translate(193.512606, 281.840065)"><g><path d="M 21.285156 -31.242188 L 21.285156 -10.152344 L 9.136719 -31.242188 L 2.734375 -31.242188 L 2.734375 0 L 8.589844 0 L 8.589844 -19.566406 L 19.839844 0 L 27.140625 0 L 27.140625 -31.242188 Z M 21.285156 -31.242188 "/></g></g></g><g fill="#272727" fill-opacity="1"><g transform="translate(229.55473, 281.840065)"><g><path d="M 21.167969 0 L 27.257812 0 L 18.082031 -31.164062 L 18.082031 -31.242188 L 11.949219 -31.242188 L 2.734375 0 L 8.863281 0 L 11.167969 -7.769531 L 18.863281 -7.769531 Z M 12.886719 -13.589844 L 15.035156 -20.855469 L 17.144531 -13.589844 Z M 12.886719 -13.589844 "/></g></g></g><g fill="#272727" fill-opacity="1"><g transform="translate(265.714006, 281.840065)"><g><path d="M 28.742188 -31.242188 L 22.339844 -31.242188 L 15.738281 -15.503906 L 9.175781 -31.242188 L 2.734375 -31.242188 L 2.734375 0 L 8.589844 0 L 8.589844 -17.261719 L 12.535156 -7.847656 L 18.941406 -7.847656 L 22.921875 -17.339844 L 22.921875 0 L 28.742188 0 Z M 28.742188 -31.242188 "/></g></g></g><g fill="#272727" fill-opacity="1"><g transform="translate(303.357055, 281.840065)"><g><path d="M 20.855469 -25.460938 L 20.855469 -31.28125 L 2.734375 -31.28125 L 2.734375 0 L 20.855469 0 L 20.855469 -5.820312 L 8.589844 -5.820312 L 8.589844 -12.769531 L 15.894531 -12.769531 L 15.894531 -18.589844 L 8.589844 -18.589844 L 8.589844 -25.460938 Z M 20.855469 -25.460938 "/></g></g></g><g fill="#0284c7" fill-opacity="1"><g transform="translate(85.450392, 281.840065)"><g><path d="M 17.339844 -31.632812 C 8.511719 -31.632812 1.367188 -24.484375 1.367188 -15.660156 C 1.367188 -6.835938 8.511719 0.3125 17.339844 0.3125 C 26.164062 0.3125 33.3125 -6.835938 33.3125 -15.660156 C 33.3125 -24.484375 26.164062 -31.632812 17.339844 -31.632812 Z M 17.339844 -25.65625 C 22.882812 -25.65625 26.789062 -21.167969 26.789062 -15.660156 C 26.789062 -10.152344 22.882812 -5.664062 17.339844 -5.664062 C 11.832031 -5.664062 7.925781 -10.152344 7.925781 -15.660156 C 7.925781 -21.167969 11.832031 -25.65625 17.339844 -25.65625 Z M 17.339844 -25.65625 "/></g></g></g><g fill="#00adef" fill-opacity="1"><g transform="translate(126.653815, 281.840065)"><g><path d="M 20.699219 -31.242188 L 20.699219 -10.816406 C 20.699219 -7.652344 18.160156 -5.117188 15.035156 -5.117188 L 14.253906 -5.117188 C 11.128906 -5.117188 8.589844 -7.652344 8.589844 -10.816406 L 8.589844 -31.242188 L 2.734375 -31.242188 L 2.734375 -10.816406 C 2.734375 -4.492188 7.925781 0.703125 14.253906 0.703125 L 15.035156 0.703125 C 21.363281 0.703125 26.515625 -4.492188 26.515625 -10.816406 L 26.515625 -31.242188 Z M 20.699219 -31.242188 "/></g></g></g><g fill="#b7edff" fill-opacity="1"><g transform="translate(161.345385, 281.840065)"><g><path d="M 27.140625 -19.527344 C 27.140625 -26.007812 24.171875 -31.242188 16.207031 -31.242188 L 2.734375 -31.242188 L 2.734375 0 L 8.589844 0 L 8.589844 -7.769531 L 16.207031 -7.769531 C 16.910156 -7.769531 17.574219 -7.808594 18.199219 -7.886719 L 21.011719 0 L 27.140625 0 L 23.585938 -9.996094 C 26.164062 -12.144531 27.140625 -15.621094 27.140625 -19.527344 Z M 8.589844 -13.628906 L 8.589844 -25.421875 L 16.207031 -25.421875 C 19.097656 -25.421875 19.878906 -24.445312 20.152344 -24.132812 C 20.894531 -23.195312 21.285156 -21.558594 21.285156 -19.527344 C 21.285156 -17.378906 20.894531 -15.738281 20.191406 -14.878906 C 19.527344 -14.019531 18.199219 -13.628906 16.207031 -13.628906 Z M 8.589844 -13.628906 "/></g></g></g></svg>