<svg xmlns="http://www.w3.org/2000/svg" xmlns:xlink="http://www.w3.org/1999/xlink" viewBox="0,0,256,256" width="256px" height="256px"><g fill="#0076ff" fill-rule="nonzero" stroke="none" stroke-width="1" stroke-linecap="butt" stroke-linejoin="miter" stroke-miterlimit="10" stroke-dasharray="" stroke-dashoffset="0" font-family="none" font-weight="none" font-size="none" text-anchor="none" style="mix-blend-mode: normal"><g transform="scale(2,2)"><path d="M79.9,77.8c-5.1,-1.8 -10.4,-2.8 -15.9,-2.8v0v0c-16.4,0 -31.6,8.9 -39.7,23.1c-0.8,1.4 -0.3,3.3 1.1,4.1c0.5,0.3 1,0.4 1.5,0.4c1,0 2.1,-0.5 2.6,-1.5c7.1,-12.4 20.3,-20.1 34.5,-20.1v0v0c4.7,0 9.4,0.8 13.8,2.5c0.3,0.1 0.7,0.2 1,0.2c1.2,0 2.4,-0.7 2.8,-2c0.6,-1.6 -0.2,-3.3 -1.7,-3.9zM64,67c12.7,0 23,-10.3 23,-23c0,-12.7 -10.3,-23 -23,-23c-12.7,0 -23,10.3 -23,23c0,12.7 10.3,23 23,23zM64,27c9.4,0 17,7.6 17,17c0,9.4 -7.6,17 -17,17c-9.4,0 -17,-7.6 -17,-17c0,-9.4 7.6,-17 17,-17zM101,86c-11,0 -20,9 -20,20c0,11 9,20 20,20c11,0 20,-9 20,-20c0,-11 -9,-20 -20,-20zM108,109h-4v4c0,1.7 -1.3,3 -3,3c-1.7,0 -3,-1.3 -3,-3v-4h-4c-1.7,0 -3,-1.3 -3,-3c0,-1.7 1.3,-3 3,-3h4v-4c0,-1.7 1.3,-3 3,-3c1.7,0 3,1.3 3,3v4h4c1.7,0 3,1.3 3,3c0,1.7 -1.3,3 -3,3z"></path></g></g></svg>