<svg xmlns="http://www.w3.org/2000/svg"  viewBox="0 0 512 512" width="256px" height="256px"><path fill="#ddaf4a" d="M280.00037,24H231.99982l.00036,368h48.00019A183.9998,183.9998,0,0,0,464.00018,208.00018v-.00036A183.9998,183.9998,0,0,0,280.00037,24Z"/><path fill="#f2c34e" d="M371.48145,88h48.00024a185.1409,185.1409,0,0,0-15.54895-16H355.93243A185.13334,185.13334,0,0,1,371.48145,88Z"/><path fill="#f2c34e" d="M455.3111,152q-2.6078-8.17062-5.93622-16H401.37457q3.32859,7.82016,5.93628,16Z"/><path fill="#f2c34e" d="M463.81653,200H415.81635c.11358,2.65356.18365,5.31848.18365,8s-.07007,5.34644-.18365,8h48.00018c.11358-2.6535.18365-5.31836.18365-7.99982v-.00036C464.00018,205.31836,463.93011,202.6535,463.81653,200Z"/><path fill="#f2c34e" d="M455.3111,264H407.31085q-2.60778,8.17053-5.93628,16h48.00031Q452.70345,272.17984,455.3111,264Z"/><path fill="#f2c34e" d="M371.48145,328a185.13334,185.13334,0,0,1-15.549,16h48.00031a185.1409,185.1409,0,0,0,15.54895-16Z"/><rect width="368" height="48" x="120" y="440" fill="#f2c34e"/><rect width="16" height="48" x="296" y="440" fill="#f9d48a"/><rect width="16" height="48" x="360" y="440" fill="#f9d48a"/><rect width="16" height="48" x="424" y="440" fill="#f9d48a"/><rect width="16" height="48" x="168" y="440" fill="#f9d48a"/><rect width="16" height="48" x="232" y="440" fill="#f9d48a"/><rect width="368" height="48" x="24" y="392" fill="#ddaf4a"/><rect width="16" height="48" x="200" y="392" fill="#f2c34e"/><rect width="16" height="48" x="264" y="392" fill="#f2c34e"/><rect width="16" height="48" x="328" y="392" fill="#f2c34e"/><rect width="16" height="48" x="72" y="392" fill="#f2c34e"/><rect width="16" height="48" x="136" y="392" fill="#f2c34e"/><circle cx="232" cy="208" r="184" fill="#f2c34e"/><path fill="#ffe0a9" d="M232.08789,368H232a161.20875,161.20875,0,0,1-31.10742-3.02344l3.09472-15.69824A145.14954,145.14954,0,0,0,232,352Zm31.20117-3.05908-3.1123-15.69434a143.18585,143.18585,0,0,0,26.99463-8.19189l6.13476,14.77734A159.256,159.256,0,0,1,263.28906,364.94092Zm-92.42383-9.03809a159.958,159.958,0,0,1-27.66162-14.78515l8.89063-13.30274a143.95391,143.95391,0,0,0,24.88818,13.30371Zm150.0835-14.88672-8.90625-13.292a145.12024,145.12024,0,0,0,21.80957-17.9292l11.31641,11.31055A161.11931,161.11931,0,0,1,320.94873,341.01611ZM118.96045,321.23389a161.00223,161.00223,0,0,1-19.92481-24.20948l13.28809-8.91259a144.95017,144.95017,0,0,0,17.94043,21.79882Zm246.106-24.35987L351.769,287.97559a143.913,143.913,0,0,0,13.31739-24.88086l14.78125,6.126A159.97072,159.97072,0,0,1,365.06641,296.874ZM84.20312,269.39111a159.28511,159.28511,0,0,1-9.126-30.01123l15.69238-3.12207a143.253,143.253,0,0,0,8.207,26.99073ZM388.959,239.19727l-15.69628-3.10254A145.19234,145.19234,0,0,0,376,208v-.31836l16-.06641v.418A161.12515,161.12515,0,0,1,388.959,239.19727ZM88,208.17578H72V208a161.25736,161.25736,0,0,1,3.00537-31.0166l15.7002,3.085A145.18363,145.18363,0,0,0,88,208Zm285.19678-28.59766a143.2004,143.2004,0,0,0-8.2378-26.98l14.76661-6.16015a159.28063,159.28063,0,0,1,9.16064,30.00049Zm-274.34717-26.519-14.78809-6.1084a159.99871,159.99871,0,0,1,14.76953-27.67041l13.30762,8.88282A143.94011,143.94011,0,0,0,98.84961,153.05908ZM351.58447,127.75a144.98026,144.98026,0,0,0-17.96631-21.77783l11.291-11.33692a161.07986,161.07986,0,0,1,19.95264,24.186ZM130.03076,106.32324,118.70068,95.02539a161.13844,161.13844,0,0,1,24.19776-19.93848l8.9209,13.28223A145.069,145.069,0,0,0,130.03076,106.32324ZM311.76807,88.09229a143.93329,143.93329,0,0,0-24.90381-13.27393l6.09961-14.792a159.96059,159.96059,0,0,1,27.6792,14.75342ZM176.67432,75.00977,170.523,60.23926a159.32525,159.32525,0,0,1,30.00586-9.14307l3.13086,15.69043A143.27539,143.27539,0,0,0,176.67432,75.00977Zm83.17529-8.32032A145.1925,145.1925,0,0,0,232,64l-.26367.00049v-16L231.95557,48a161.33243,161.33243,0,0,1,30.97021,2.98828Z"/><path fill="#ffe0a9" d="M290.49323,208A47.98286,47.98286,0,0,0,264,120H224V96H208v24H192V96H176v24H160v16h16V280H160v16h16v24h16V296h16v24h16V296h40a47.98286,47.98286,0,0,0,26.49323-88ZM264,136a32,32,0,0,1,0,64H192V136Zm0,144H192V216h72a32,32,0,0,1,0,64Z"/><path d="M488,432H400V392a7.99977,7.99977,0,0,0-8-8H356.69006C424.49615,354.3396,472,286.61853,472,208c0-105.86914-86.13086-192-192-192H232C126.13086,16,40,102.13086,40,208c0,78.61853,47.50415,146.3396,115.31036,176H24a7.99977,7.99977,0,0,0-8,8v48a7.99977,7.99977,0,0,0,8,8h88v40a7.99977,7.99977,0,0,0,8,8H488a7.99977,7.99977,0,0,0,8-8V440A7.99977,7.99977,0,0,0,488,432ZM88,432V400h48v32Zm64-32h48v32H152Zm112,0v32H216V400Zm103.39465-56h24.19544a175.48476,175.48476,0,0,1-74.40839,36.03467A192.95163,192.95163,0,0,0,367.39465,344ZM328,400v32H280V400h48Zm-96,48v32H184V448Zm16,0h48v32H248Zm64,0h48v32H312Zm64,0h48v32H376Zm8-16H344V400h40Zm24.61969-104H381.76117A192.144,192.144,0,0,0,409.978,280H440.588A176.60089,176.60089,0,0,1,408.61969,328Zm47.19067-128H423.8208a191.02434,191.02434,0,0,0-8.15961-48h31.2024A174.97514,174.97514,0,0,1,455.81036,200ZM423.8208,216h31.98956a174.97514,174.97514,0,0,1-8.94677,48h-31.2024A191.02434,191.02434,0,0,0,423.8208,216ZM440.588,136H409.978a192.1422,192.1422,0,0,0-28.21686-48h26.85852A176.60089,176.60089,0,0,1,440.588,136ZM391.59009,72H367.39465a192.95285,192.95285,0,0,0-50.21307-36.03473A175.485,175.485,0,0,1,391.59009,72ZM56,208c0-97.04688,78.95312-176,176-176s176,78.95312,176,176S329.04688,384,232,384,56,305.04688,56,208ZM32,400H72v32H32Zm96,48h40v32H128Zm352,32H440V448h40Z"/><path d="M376,208a145.19234,145.19234,0,0,1-2.7373,28.09473l15.69628,3.10254A161.12515,161.12515,0,0,0,392,208.0332v-.418l-16,.06641Z"/><path d="M88,208a145.18363,145.18363,0,0,1,2.70557-27.93164l-15.7002-3.085A161.25736,161.25736,0,0,0,72,208v.17578H88Z"/><path d="M203.9873,349.27832l-3.09472,15.69824A161.20875,161.20875,0,0,0,232,368h.08789L232,352A145.14954,145.14954,0,0,1,203.9873,349.27832Z"/><path d="M143.20361,341.11768a159.958,159.958,0,0,0,27.66162,14.78515l6.11719-14.78418a143.95391,143.95391,0,0,1-24.88818-13.30371Z"/><path d="M260.17676,349.24658l3.1123,15.69434a159.256,159.256,0,0,0,30.01709-9.10889l-6.13476-14.77734A143.18585,143.18585,0,0,1,260.17676,349.24658Z"/><path d="M379.86768,269.2207l-14.78125-6.126A143.913,143.913,0,0,1,351.769,287.97559l13.29737,8.89843A159.97072,159.97072,0,0,0,379.86768,269.2207Z"/><path d="M99.03564,297.02441a161.00223,161.00223,0,0,0,19.92481,24.20948l11.30371-11.32325a144.95017,144.95017,0,0,1-17.94043-21.79882Z"/><path d="M344.90918,94.63525l-11.291,11.33692A144.98026,144.98026,0,0,1,351.58447,127.75l13.27735-8.92871A161.07986,161.07986,0,0,0,344.90918,94.63525Z"/><path d="M312.04248,327.72412l8.90625,13.292a161.11931,161.11931,0,0,0,24.21973-19.91064l-11.31641-11.31055A145.12024,145.12024,0,0,1,312.04248,327.72412Z"/><path d="M388.88623,176.43848a159.28063,159.28063,0,0,0-9.16064-30.00049L364.959,152.59814a143.2004,143.2004,0,0,1,8.2378,26.98Z"/><path d="M259.84961,66.68945l3.07617-15.70117A161.33243,161.33243,0,0,0,231.95557,48l-.21924.00049v16L232,64A145.1925,145.1925,0,0,1,259.84961,66.68945Z"/><path d="M75.07715,239.37988a159.28511,159.28511,0,0,0,9.126,30.01123l14.77344-6.14257a143.253,143.253,0,0,1-8.207-26.99073Z"/><path d="M203.65967,66.78662l-3.13086-15.69043A159.32525,159.32525,0,0,0,170.523,60.23926l6.15137,14.77051A143.27539,143.27539,0,0,1,203.65967,66.78662Z"/><path d="M320.64307,74.77979a159.96059,159.96059,0,0,0-27.6792-14.75342l-6.09961,14.792a143.93329,143.93329,0,0,1,24.90381,13.27393Z"/><path d="M151.81934,88.36914l-8.9209-13.28223a161.13844,161.13844,0,0,0-24.19776,19.93848l11.33008,11.29785A145.069,145.069,0,0,1,151.81934,88.36914Z"/><path d="M112.13867,128.16309l-13.30762-8.88282a159.99871,159.99871,0,0,0-14.76953,27.67041l14.78809,6.1084A143.94011,143.94011,0,0,1,112.13867,128.16309Z"/><path d="M312,168a48.05436,48.05436,0,0,0-48-48H224V96H208v24H192V96H176v24H160v16h16V280H160v16h16v24h16V296h16v24h16V296h40a47.98286,47.98286,0,0,0,26.49323-88A47.98828,47.98828,0,0,0,312,168Zm-16,80a32.036,32.036,0,0,1-32,32H192V216h72A32.036,32.036,0,0,1,296,248Zm-32-48H192V136h72a32,32,0,0,1,0,64Z"/></svg>