<svg xmlns="http://www.w3.org/2000/svg"  viewBox="0 0 64 64" width="256px" height="256px"><g data-name="Etherium"><path fill="#a2f4c1" d="M40.6,21.2A19.41,19.41,0,0,0,21.2,40.6h0A19.41,19.41,0,0,0,40.6,60h0A19.41,19.41,0,0,0,60,40.6h0A19.41,19.41,0,0,0,40.6,21.2Zm0,4.84A14.56,14.56,0,0,1,55.16,40.6h0A14.56,14.56,0,0,1,40.6,55.16h0A14.57,14.57,0,0,1,26,40.6h0A14.56,14.56,0,0,1,40.6,26Z"/><path fill="#86f1a7" d="M40.6,21.2a19.43,19.43,0,0,0-2.28.17,19.39,19.39,0,0,1,0,38.47A21.84,21.84,0,0,0,40.6,60a19.4,19.4,0,0,0,0-38.8Z"/><path fill="#ffc3ac" d="M40.6,26A14.55,14.55,0,0,0,26.05,40.6h0A14.55,14.55,0,0,0,40.6,55.16h0A14.56,14.56,0,0,0,55.16,40.6h0A14.56,14.56,0,0,0,40.6,26Zm-.17,5.47a.87.87,0,0,1,.91.39l4.58,7.39-4.56,1.54a2.33,2.33,0,0,1-1.52,0l-4.55-1.54,4.58-7.39a.85.85,0,0,1,.56-.39ZM35.72,42.6l3.16,1.08a5.47,5.47,0,0,0,3.44,0l3.17-1.08-4.15,6.7a.86.86,0,0,1-1.19.28.83.83,0,0,1-.28-.28Z"/><path fill="#eaaa89" d="M40.6,26a14.29,14.29,0,0,0-2.69.29,14.55,14.55,0,0,1,0,28.54,14.29,14.29,0,0,0,2.69.29A14.56,14.56,0,0,0,40.6,26Z"/><path fill="#a2f4c1" d="M20.19,4a14.23,14.23,0,0,0,0,28.46,14.28,14.28,0,0,0,3-.36l.06-.07a19.46,19.46,0,0,1,10.44-9.5l.09-.08a14,14,0,0,0,.66-4.22A14.23,14.23,0,0,0,20.19,4Zm0,4.88a9.34,9.34,0,0,1,9.35,9.35h0a9.34,9.34,0,0,1-9.35,9.35h0a9.35,9.35,0,0,1-9.35-9.35h0a9.35,9.35,0,0,1,9.35-9.35Z"/><path fill="#86f1a7" d="M20.19,4a14.22,14.22,0,0,0-1.73.11A14.16,14.16,0,0,1,30.3,22.45l-.09.08a21.36,21.36,0,0,0-2.42,1.14A9.35,9.35,0,0,1,23.41,27c-2.29,2-2.82,4.73-5.06,5.33a14.1,14.1,0,0,0,1.84.12,14.28,14.28,0,0,0,3-.36l.06-.07a19.46,19.46,0,0,1,10.44-9.5l.09-.08a14,14,0,0,0,.66-4.22A14.23,14.23,0,0,0,20.19,4Z"/><path fill="#ffc3ac" d="M20.19,8.88a9.35,9.35,0,0,0-9.35,9.35h0a9.35,9.35,0,0,0,9.35,9.35h0a9.35,9.35,0,0,0,9.36-9.35h0a9.35,9.35,0,0,0-9.36-9.35Zm0,3.64,3.54,5.71L20.19,24l-3.54-5.72Z"/><path fill="#eaaa89" d="M20.19,8.88a9,9,0,0,0-2.07.25,9.36,9.36,0,0,1,0,18.2,9,9,0,0,0,2.07.25,9.34,9.34,0,0,0,9.35-9.35h0a9.34,9.34,0,0,0-9.35-9.35Z"/><path fill="#a2f4c1" d="M6,53.11a2,2,0,0,0-2,2V58a2,2,0,0,0,2,2H40.6a19.37,19.37,0,0,1-14.8-6.89ZM40.6,60h.32l0,0-.28,0Z"/><path fill="#a2f4c1" d="M6,46.23a2,2,0,0,0-2,2v2.81a2,2,0,0,0,2,2H25.8a19.27,19.27,0,0,1-3.74-6.87H6Z"/><path fill="#a2f4c1" d="M21.3,39.27l-9.94.08a2,2,0,0,0-2,2v2.81a2,2,0,0,0,2,2H22.05a19.5,19.5,0,0,1-.85-5.63c0-.44.05-.88.1-1.33Z"/><path fill="#a2f4c1" d="M6,32.46a2,2,0,0,0-2,2v2.81a2,2,0,0,0,2,2H21.29A19.3,19.3,0,0,1,23,32.46Z"/><path fill="#86f1a7" d="M18.12,32.46a24.32,24.32,0,0,0-1.49,8.14,24,24,0,0,0,10,19.4h14A19.38,19.38,0,0,1,23,32.46Z"/><path fill="#2e3c69" d="M9.08,55.56a1,1,0,1,0,0,2,1,1,0,0,0,0-2Z"/><path fill="#2e3c69" d="M14.05,55.56a1,1,0,1,0,1,1A1,1,0,0,0,14.05,55.56Z"/><path fill="#2e3c69" d="M19,55.56a1,1,0,1,0,1,1A1,1,0,0,0,19,55.56Z"/><path fill="#2e3c69" d="M24,55.56a1,1,0,1,0,1,1A1,1,0,0,0,24,55.56Z"/><path fill="#2e3c69" d="M9.08,48.67a1,1,0,1,0,1,1A1,1,0,0,0,9.08,48.67Z"/><path fill="#2e3c69" d="M14.05,48.67a1,1,0,1,0,1,1A1,1,0,0,0,14.05,48.67Z"/><path fill="#2e3c69" d="M19,48.67a1,1,0,1,0,1,1A1,1,0,0,0,19,48.67Z"/><path fill="#2e3c69" d="M14.4,41.79a1,1,0,1,0,1,1A1,1,0,0,0,14.4,41.79Z"/><path fill="#2e3c69" d="M9.08,34.9a1,1,0,1,0,1,1A1,1,0,0,0,9.08,34.9Z"/><path fill="#2e3c69" d="M14.05,34.9a1,1,0,0,0,0,2,1,1,0,1,0,0-2Z"/><path fill="#2e3c69" d="M19,34.9a1,1,0,1,0,1,1A1,1,0,0,0,19,34.9Z"/><path fill="#2e3c69" d="M19,41.79a1,1,0,1,0,1,1A1,1,0,0,0,19,41.79Z"/><path fill="#363e67" d="M40.6,20.2h0a20.44,20.44,0,0,0-5.45.76,14.61,14.61,0,0,0,.27-2.73A15.23,15.23,0,1,0,12.68,31.46H6a3,3,0,0,0-3,3v2.81a3,3,0,0,0,3,3H8.52a2.94,2.94,0,0,0-.19,1v2.81a3,3,0,0,0,.19,1H6a3,3,0,0,0-3,3v2.81a3,3,0,0,0,.8,2,3,3,0,0,0-.8,2V58a3,3,0,0,0,3,3H40.92a20.4,20.4,0,0,0-.32-40.8ZM57,48.91l-2.46-1.42a15.6,15.6,0,0,0,1.58-5.89H59A18.21,18.21,0,0,1,57,48.91ZM25.21,50.64l2.46-1.42A15.55,15.55,0,0,0,32,53.54L30.56,56A18.46,18.46,0,0,1,25.21,50.64Zm-5-24.06a8.35,8.35,0,1,1,8.36-8.35A8.36,8.36,0,0,1,20.19,26.58Zm10.37-1.37L32,27.66A15.68,15.68,0,0,0,27.67,32l-2.46-1.42A18.43,18.43,0,0,1,30.56,25.21Zm9-3V25.1a15.31,15.31,0,0,0-5.88,1.57l-1.43-2.46A18.16,18.16,0,0,1,39.6,22.25Zm2,2.85V22.25a18.37,18.37,0,0,1,7.31,2l-1.42,2.46A15.36,15.36,0,0,0,41.6,25.1ZM25.1,41.6a15.24,15.24,0,0,0,1.58,5.89l-2.47,1.42a18.37,18.37,0,0,1-2-7.31Zm0-2H22.25a18.31,18.31,0,0,1,1.79-7h0a3.54,3.54,0,0,1,.16-.34l2.47,1.42A15.24,15.24,0,0,0,25.1,39.6Zm8.62,14.93a15.5,15.5,0,0,0,5.88,1.58V59a18.21,18.21,0,0,1-7.31-2ZM41.6,59V56.11a15.55,15.55,0,0,0,5.89-1.58L48.91,57A18.21,18.21,0,0,1,41.6,59Zm-1-4.79A13.56,13.56,0,1,1,54.16,40.6,13.57,13.57,0,0,1,40.6,54.16ZM56.11,39.6a15.6,15.6,0,0,0-1.58-5.89L57,32.29a18.21,18.21,0,0,1,2,7.31Zm-.11-9L53.54,32a15.68,15.68,0,0,0-4.31-4.32l1.42-2.45A18.55,18.55,0,0,1,56,30.56ZM7,18.23a13.23,13.23,0,0,1,26.46,0,12.77,12.77,0,0,1-.49,3.48A20.43,20.43,0,0,0,28.78,24a10.32,10.32,0,1,0-3.61,3.3,21.28,21.28,0,0,0-2.66,3.9,13.06,13.06,0,0,1-2.32.25A13.25,13.25,0,0,1,7,18.23ZM5,37.31V34.5a1,1,0,0,1,1-1H21.52a19.86,19.86,0,0,0-1.18,4.89H6A1,1,0,0,1,5,37.31Zm5.33,6.88V41.38a1,1,0,0,1,1-1h8.86c0,.08,0,.16,0,.25a20.73,20.73,0,0,0,.55,4.63H11.36A1,1,0,0,1,10.33,44.19ZM5,48.27a1,1,0,0,1,1-1H21.33a20.92,20.92,0,0,0,2.45,4.89H6a1,1,0,0,1-1-1ZM5,58V55.15a1,1,0,0,1,1-1H25.36A20.69,20.69,0,0,0,31.85,59H6A1,1,0,0,1,5,58Zm45.65-2-1.42-2.46a15.68,15.68,0,0,0,4.31-4.32L56,50.64A18.59,18.59,0,0,1,50.65,56Z"/><path fill="#363e67" d="M21,12a1,1,0,0,0-1.7,0L15.8,17.7a1,1,0,0,0,0,1.06l3.54,5.71a1,1,0,0,0,.85.47,1,1,0,0,0,.85-.47l3.54-5.71a1,1,0,0,0,0-1.06Zm-.85,2.42,2,3.28-2,.68-2-.68Zm0,7.64-1.22-2,.9.3a.91.91,0,0,0,.32.06.87.87,0,0,0,.32-.06l.91-.3Z"/><path fill="#363e67" d="M45.17,41.66,42,42.73a4.47,4.47,0,0,1-2.8,0L36,41.66a1,1,0,0,0-1.17,1.47L39,49.82a1.86,1.86,0,0,0,3.17,0l4.15-6.69A1,1,0,0,0,46.27,42,1,1,0,0,0,45.17,41.66ZM40.61,48.6,38,44.44l.53.18a6.33,6.33,0,0,0,4.08,0l.54-.18Z"/><path fill="#363e67" d="M42.19,31.38a1.87,1.87,0,0,0-2-.85h0a1.88,1.88,0,0,0-1.2.85l-4.58,7.39a1,1,0,0,0-.09.86,1,1,0,0,0,.62.61l4.56,1.54a3.3,3.3,0,0,0,2.15,0l4.56-1.54a1,1,0,0,0,.62-.61,1,1,0,0,0-.09-.86ZM41,39.89a1.44,1.44,0,0,1-.87,0L36.8,38.75l3.8-6.14,3.8,6.14Z"/></g></svg>