<svg xmlns="http://www.w3.org/2000/svg" xmlns:xlink="http://www.w3.org/1999/xlink" viewBox="0,0,256,256" width="300px" height="300px"><g fill="none" fill-rule="nonzero" stroke="none" stroke-width="1" stroke-linecap="butt" stroke-linejoin="miter" stroke-miterlimit="10" stroke-dasharray="" stroke-dashoffset="0" font-family="none" font-weight="none" font-size="none" text-anchor="none" style="mix-blend-mode: normal"><g transform="scale(2.56,2.56)"><path d="M17,48h-4c0,-0.705 -0.021,-1.43 -0.042,-2.172c-0.189,-6.695 -0.45,-15.865 14.013,-24.543l2.059,3.43c-12.456,7.474 -12.253,14.659 -12.073,21c0.022,0.78 0.043,1.543 0.043,2.285z" fill="#0076ff"></path><path d="M86.911,48h-4c0,-0.742 0.021,-1.505 0.044,-2.285c0.18,-6.341 0.383,-13.526 -12.073,-21l2.059,-3.43c14.463,8.678 14.202,17.848 14.013,24.543c-0.022,0.742 -0.043,1.467 -0.043,2.172z" fill="#0076ff"></path><path d="M76.475,63.918c-1.448,-1.448 -2.343,-3.448 -2.343,-5.657v-6c0,-12.981 -5,-26.985 -23.839,-26.985c-0.055,0 -0.106,0.004 -0.161,0.004c-0.055,0 -0.106,-0.004 -0.161,-0.004c-18.839,0 -23.839,14.004 -23.839,26.985v6c0,2.209 -0.895,4.209 -2.343,5.657c-3.461,3.461 -5.657,4.983 -5.657,9.878v0.466h64v-0.466c0,-4.895 -2.195,-6.416 -5.657,-9.878z" fill="#ff8405"></path><path d="M79.697,62.881c-0.35,-0.342 -0.717,-0.7 -1.1,-1.084h-0.001c-0.944,-0.944 -1.464,-2.2 -1.464,-3.535v-6c0,-18.084 -8.655,-29.211 -24.132,-30.262v-7h-6v7c-15.117,1.278 -23.868,12.404 -23.868,30.262v6c0,1.335 -0.521,2.591 -1.466,3.535c-0.382,0.383 -0.749,0.741 -1.099,1.083c-2.917,2.851 -5.436,5.313 -5.436,10.916v3.466h70v-3.466c0.001,-5.604 -2.517,-8.065 -5.434,-10.915zM21.494,71.262c0.492,-1.378 1.517,-2.379 3.268,-4.091c0.365,-0.357 0.749,-0.731 1.148,-1.131c2.078,-2.077 3.223,-4.84 3.223,-7.778v-6c0,-10.942 3.615,-23.985 20.804,-23.985l0.144,0.005l0.214,-0.005c17.224,0 20.839,13.043 20.839,23.985v6c0,2.938 1.144,5.7 3.221,7.777c0.401,0.4 0.785,0.775 1.15,1.134c1.751,1.71 2.775,2.712 3.267,4.089z" fill="#0076ff"></path><path d="M90,68h-80v10h35v6h10v-6h35z" fill="#3abcf8"></path><path d="M38.872,43.23h-4c0,-6.15 5.862,-11.546 12.546,-11.546v4c-4.393,0 -8.546,3.667 -8.546,7.546z" fill="#edf7f5"></path></g></g></svg>