<svg xmlns="http://www.w3.org/2000/svg"  viewBox="0 0 512 512" width="256px" height="256px"><path fill="#ef7070" d="M280.00124,23.9988H232.00069l.00036,368h48.00019A183.9998,183.9998,0,0,0,464.00105,207.999v-.00037A183.9998,183.9998,0,0,0,280.00124,23.9988Z"/><rect width="368" height="48" x="120.001" y="439.999" fill="#fa8481"/><rect width="16" height="48" x="296.001" y="439.999" fill="#fb9c9a"/><rect width="16" height="48" x="360.001" y="439.999" fill="#fb9c9a"/><rect width="16" height="48" x="424.001" y="439.999" fill="#fb9c9a"/><rect width="16" height="48" x="168.001" y="439.999" fill="#fb9c9a"/><rect width="16" height="48" x="232.001" y="439.999" fill="#fb9c9a"/><rect width="368" height="48" x="24.001" y="391.999" fill="#ef7070"/><rect width="16" height="48" x="200.001" y="391.999" fill="#fa8481"/><rect width="16" height="48" x="264.001" y="391.999" fill="#fa8481"/><rect width="16" height="48" x="328.001" y="391.999" fill="#fa8481"/><rect width="16" height="48" x="72.001" y="391.999" fill="#fa8481"/><rect width="16" height="48" x="136.001" y="391.999" fill="#fa8481"/><circle cx="232.001" cy="207.999" r="184" fill="#fa8481"/><path fill="#fcb0ae" d="M232.08876,367.9988h-.08789a161.20953,161.20953,0,0,1-31.10742-3.02343l3.09473-15.69825a145.14857,145.14857,0,0,0,28.01269,2.72168Zm31.20117-3.05908-3.1123-15.69433a143.18514,143.18514,0,0,0,26.99463-8.1919l6.13476,14.77735A159.2558,159.2558,0,0,1,263.28993,364.93972Zm-92.42382-9.03808a159.95777,159.95777,0,0,1-27.66163-14.78516l8.89063-13.30273a143.9546,143.9546,0,0,0,24.88818,13.30371ZM320.9496,341.01492l-8.90625-13.292a145.12024,145.12024,0,0,0,21.80957-17.9292l11.31641,11.31054A161.11938,161.11938,0,0,1,320.9496,341.01492ZM118.96132,321.23269a161.002,161.002,0,0,1-19.9248-24.20947l13.28808-8.9126A144.95075,144.95075,0,0,0,130.265,309.90945Zm246.106-24.35986-13.29737-8.89844a143.91263,143.91263,0,0,0,13.31739-24.88086l14.78125,6.126A159.97072,159.97072,0,0,1,365.06728,296.87283ZM84.204,269.38992a159.28558,159.28558,0,0,1-9.126-30.01123l15.69238-3.12207a143.25288,143.25288,0,0,0,8.207,26.99072Zm304.75586-30.19385-15.69629-3.10254a145.19227,145.19227,0,0,0,2.7373-28.09473v-.31836l16-.0664v.418A161.12575,161.12575,0,0,1,388.95986,239.19607Zm-300.959-31.02148h-16v-.17579a161.25736,161.25736,0,0,1,3.00537-31.0166l15.7002,3.085a145.18363,145.18363,0,0,0-2.70557,27.93164Zm285.19678-28.59766a143.20065,143.20065,0,0,0-8.23779-26.98l14.7666-6.16016a159.28035,159.28035,0,0,1,9.16064,30.00049Zm-274.34717-26.519-14.78809-6.1084a159.99807,159.99807,0,0,1,14.76954-27.67041l13.30761,8.88281A143.9402,143.9402,0,0,0,98.85048,153.05789ZM351.58534,127.7488A144.9807,144.9807,0,0,0,333.619,105.971l11.291-11.33691a161.07978,161.07978,0,0,1,19.95264,24.186ZM130.03163,106.32205,118.70155,95.02419a161.13837,161.13837,0,0,1,24.19776-19.93847l8.9209,13.28222A145.069,145.069,0,0,0,130.03163,106.32205Zm181.73731-18.231a143.934,143.934,0,0,0-24.90381-13.27393l6.09961-14.792a159.96059,159.96059,0,0,1,27.6792,14.75342ZM176.67519,75.00857l-6.15137-14.77051A159.32522,159.32522,0,0,1,200.52968,51.095l3.13086,15.69043A143.27536,143.27536,0,0,0,176.67519,75.00857Zm83.17529-8.32031a145.19171,145.19171,0,0,0-27.84961-2.68946l-.26367.00049v-16l.21924-.00049a161.33244,161.33244,0,0,1,30.97021,2.98829Z"/><path fill="#fa8481" d="M371.48213,87.9988h48.00025a185.14381,185.14381,0,0,0-15.54895-16H355.93312A185.13175,185.13175,0,0,1,371.48213,87.9988Z"/><path fill="#fa8481" d="M455.31178,151.9988q-2.60778-8.17062-5.93621-16H401.37526q3.32859,7.82016,5.93628,16Z"/><path fill="#fa8481" d="M463.81722,199.9988H415.817c.11359,2.65357.18366,5.31849.18366,8s-.07007,5.34644-.18366,8h48.00019c.11358-2.6535.18365-5.31836.18365-7.99981v-.00037C464.00087,205.31716,463.9308,202.65231,463.81722,199.9988Z"/><path fill="#fa8481" d="M455.31178,263.9988H407.31154q-2.60779,8.17055-5.93628,16h48.00031Q452.70415,272.17864,455.31178,263.9988Z"/><path fill="#fa8481" d="M371.48213,327.9988a185.13032,185.13032,0,0,1-15.549,16h48.00031a185.14094,185.14094,0,0,0,15.54895-16Z"/><path fill="#fcb0ae" d="M284.45068,220.45093a40.161,40.161,0,0,0-8.29571.86148,16.29554,16.29554,0,0,1-14.7486-4.50774l-2.85092-2.82282a16,16,0,0,1-4.74246-11.3696V182.89141a15.87458,15.87458,0,0,1,7.15867-13.32822,39.97651,39.97651,0,1,0-43.55079.00033,15.87371,15.87371,0,0,1,7.15807,13.32771l0,1.68759A16,16,0,0,1,208.57882,200.579l-1.68762,0a15.87372,15.87372,0,0,1-13.32777-7.15816,39.97619,39.97619,0,1,0-.00061,43.55132,15.875,15.875,0,0,1,13.3285-7.15911h26.24784v-.002l7.81872,7.81873a15.87306,15.87306,0,0,1,4.36285,14.48507,40.00455,40.00455,0,1,0,39.12995-31.6639Z"/><path d="M488,432H400V392a8.00039,8.00039,0,0,0-8-8H356.68945C424.49609,354.3396,472,286.61865,472,208c0-105.86914-86.13086-192-192-192H232C126.13086,16,40,102.13086,40,208c0,78.61865,47.50415,146.3396,115.3103,176H24a8.00039,8.00039,0,0,0-8,8v48a8.00039,8.00039,0,0,0,8,8h88v40a8.00039,8.00039,0,0,0,8,8H488a8.00039,8.00039,0,0,0,8-8V440A8.00039,8.00039,0,0,0,488,432ZM88,432V400h48v32Zm64-32h48v32H152Zm112,0v32H216V400Zm103.39453-56h24.19531a175.48567,175.48567,0,0,1-74.40771,36.03467A192.95519,192.95519,0,0,0,367.39453,344ZM328,400v32H280V400Zm-96,48v32H184V448Zm16,0h48v32H248Zm64,0h48v32H312Zm64,0h48v32H376Zm8-16H344V400h40Zm24.61963-104h-26.8584a192.14563,192.14563,0,0,0,28.2168-48h30.60986A176.6103,176.6103,0,0,1,408.61963,328Zm47.19092-128H423.8208a191.0055,191.0055,0,0,0-8.15967-48h31.20264A174.99927,174.99927,0,0,1,455.81055,200ZM423.8208,216h31.98975a174.99927,174.99927,0,0,1-8.94678,48H415.66113A191.0055,191.0055,0,0,0,423.8208,216Zm16.76709-80H409.978a192.14563,192.14563,0,0,0-28.2168-48h26.8584A176.6103,176.6103,0,0,1,440.58789,136ZM391.58984,72H367.39453a192.9521,192.9521,0,0,0-50.21289-36.03467A175.482,175.482,0,0,1,391.58984,72ZM56,208c0-97.04688,78.95312-176,176-176s176,78.95312,176,176S329.04688,384,232,384,56,305.04688,56,208ZM32,400H72v32H32Zm96,48h40v32H128Zm352,32H440V448h40Z"/><path d="M376,208a145.21855,145.21855,0,0,1-2.7373,28.09473l15.69628,3.10351A161.29235,161.29235,0,0,0,392,208v-.35156H376Z"/><path d="M112.13867,128.16211l-13.30859-8.88086A159.95537,159.95537,0,0,0,84.0625,146.9502l14.78711,6.10937A144.03455,144.03455,0,0,1,112.13867,128.16211Z"/><path d="M203.98633,349.27832l-3.09375,15.69727A161.20914,161.20914,0,0,0,232,368h.08789L232,352A145.23566,145.23566,0,0,1,203.98633,349.27832Z"/><path d="M388.8877,176.43848a159.17734,159.17734,0,0,0-9.16211-30.001L364.96,152.59766a143.18752,143.18752,0,0,1,8.23828,26.98046Z"/><path d="M99.03516,297.02539a161.1806,161.1806,0,0,0,19.9248,24.208l11.30469-11.32227a145.18057,145.18057,0,0,1-17.94238-21.7998Z"/><path d="M260.17578,349.24707l3.11328,15.69336a159.32913,159.32913,0,0,0,30.0166-9.1084l-6.13476-14.77734A143.30951,143.30951,0,0,1,260.17578,349.24707Z"/><path d="M312.042,327.72363l8.90625,13.293A161.14119,161.14119,0,0,0,345.168,321.10547l-11.31641-11.31055A145.01714,145.01714,0,0,1,312.042,327.72363Z"/><path d="M379.86719,269.22168l-14.78125-6.12695a143.93032,143.93032,0,0,1-13.31739,24.87988l13.29688,8.89844A159.9456,159.9456,0,0,0,379.86719,269.22168Z"/><path d="M344.90918,94.63574l-11.291,11.33594A145.0983,145.0983,0,0,1,351.585,127.751l13.27734-8.92969A161.20591,161.20591,0,0,0,344.90918,94.63574Z"/><path d="M143.2041,341.11816a159.99677,159.99677,0,0,0,27.66113,14.78516l6.11719-14.78516a143.90667,143.90667,0,0,1-24.88769-13.30273Z"/><path d="M203.66016,66.78516,200.52734,51.0957a159.35321,159.35321,0,0,0-30.00488,9.14356l6.15234,14.76953A143.39112,143.39112,0,0,1,203.66016,66.78516Z"/><path d="M259.84961,66.68945l3.07617-15.70117A161.20779,161.20779,0,0,0,232,48h-.26367V64H232A145.25737,145.25737,0,0,1,259.84961,66.68945Z"/><path d="M320.64062,74.77734a160.038,160.038,0,0,0-27.67773-14.751l-6.09961,14.791a144.00716,144.00716,0,0,1,24.9043,13.27442Z"/><path d="M88,208a145.24213,145.24213,0,0,1,2.70508-27.93066l-15.69922-3.084A161.19,161.19,0,0,0,72,208v.17578H88Z"/><path d="M151.81934,88.36816l-8.92188-13.28125a161.175,161.175,0,0,0-24.19726,19.9375l11.33007,11.29883A145.02919,145.02919,0,0,1,151.81934,88.36816Z"/><path d="M75.07812,239.37988a159.12206,159.12206,0,0,0,9.126,30.0127l14.77344-6.14453a143.16842,143.16842,0,0,1-8.20606-26.98731Z"/><path d="M284.502,308.45312a47.52534,47.52534,0,0,0,32.6875-12.90039,48.17125,48.17125,0,0,0,15.26075-35.10156,47.99906,47.99906,0,0,0-48-48,48.28293,48.28293,0,0,0-9.94532,1.03321,8.36513,8.36513,0,0,1-7.46875-2.36329l-2.85254-2.82519a8.05023,8.05023,0,0,1-2.37109-5.6836V182.8916a7.83356,7.83356,0,0,1,3.52051-6.62109,48.45419,48.45419,0,0,0,9.71484-8.35059A48.00023,48.00023,0,0,0,239.20312,88h-.00683a48.0116,48.0116,0,0,0-26.13574,88.27051,7.83522,7.83522,0,0,1,3.51855,6.62109v1.6875a8.00917,8.00917,0,0,1-8,8h-1.6875a7.83522,7.83522,0,0,1-6.62109-3.51855,48.37315,48.37315,0,0,0-8.35645-9.72071,47.81825,47.81825,0,0,0-31.9082-12.0957h-.15918a47.98069,47.98069,0,1,0,32.07422,83.80274,48.38985,48.38985,0,0,0,8.34863-9.71387,7.83932,7.83932,0,0,1,6.62305-3.52051l22.93262-.00195,5.47558,5.47656a7.83314,7.83314,0,0,1,2.19336,7.16992A48.02864,48.02864,0,0,0,281.043,308.332Q282.78174,308.45362,284.502,308.45312Zm-31.999-46.14843a32.387,32.387,0,0,1,.64355-8.53028,23.778,23.778,0,0,0-6.53222-21.80175l-7.81934-7.81739a8.00005,8.00005,0,0,0-5.65625-2.34277H206.8916a23.78319,23.78319,0,0,0-20.03711,10.7998,32.02261,32.02261,0,0,1-48.25976,6.37305,32.004,32.004,0,0,1-.00879-47.56933,32.02486,32.02486,0,0,1,48.27051,6.36523A23.77635,23.77635,0,0,0,206.8916,208.5791h1.6875a24.0275,24.0275,0,0,0,24-24v-1.6875a23.77635,23.77635,0,0,0-10.79785-20.03515,32.02721,32.02721,0,0,1-6.36523-48.27051A31.68778,31.68778,0,0,1,239.19531,104h.00586a31.692,31.692,0,0,1,23.78321,10.59375,32.02337,32.02337,0,0,1-6.373,48.2627A23.77851,23.77851,0,0,0,245.8125,182.8916v19.7207a24.15,24.15,0,0,0,7.11328,17.05274l2.85254,2.82519a24.20613,24.20613,0,0,0,22.02832,6.65039,32.18985,32.18985,0,0,1,6.64356-.68945,32.00135,32.00135,0,1,1-31.94727,33.85352Z"/></svg>