<svg xmlns="http://www.w3.org/2000/svg" xmlns:xlink="http://www.w3.org/1999/xlink" viewBox="0,0,256,256" width="256px" height="256px"><g fill="#0076ff" fill-rule="nonzero" stroke="none" stroke-width="1" stroke-linecap="butt" stroke-linejoin="miter" stroke-miterlimit="10" stroke-dasharray="" stroke-dashoffset="0" font-family="none" font-weight="none" font-size="none" text-anchor="none" style="mix-blend-mode: normal"><g transform="scale(2,2)"><path d="M64,37c-12.70255,0 -23,10.29745 -23,23c0,12.70255 10.29745,23 23,23c12.70255,0 23,-10.29745 23,-23c0,-12.70255 -10.29745,-23 -23,-23zM34.5,47c-11.5,0.9 -20.30078,11.19961 -18.80078,23.09961c1.2,9 8.40039,16.29961 17.40039,17.59961c4.4,0.6 8.60117,-0.2 12.20117,-2c1.2,-0.6 1.39844,-2.39883 0.39844,-3.29883c-6.6,-5.3 -10.69922,-13.40039 -10.69922,-22.40039c0,-3.6 0.70039,-7.10078 1.90039,-10.30078c0.5,-1.3 -0.50039,-2.69922 -1.90039,-2.69922zM93,47c-1.4,0 -2.40039,1.39922 -1.90039,2.69922c1.2,3.2 1.90039,6.70078 1.90039,10.30078c0,9 -4.09961,17.10039 -10.59961,22.40039c-1.1,0.9 -0.89961,2.59883 0.40039,3.29883c3.6,1.8 7.69922,2.7 12.19922,2c9.1,-1.3 16.30039,-8.59922 17.40039,-17.69922c1.5,-12 -7.60117,-22.4 -19.20117,-23zM64,91c-15,0 -29.1,7.39922 -37.5,19.69922c-1.7,2.5 -2.5,5.40039 -2.5,8.40039c0,1.6 1.4,2.90039 3,2.90039h74c1.6,0 3,-1.30039 3,-2.90039c0.1,-3 -0.8,-6.00039 -2.5,-8.40039c-8.4,-12.3 -22.5,-19.69922 -37.5,-19.69922zM27.66602,95.04102c-0.11902,0.00881 -0.24023,0.02734 -0.36523,0.05859c-9.9,2.2 -18.7,8.00039 -24.5,16.40039c-1.2,2 0.2,4.5 2.5,4.5h10.39844c1.3,0 2.50078,-0.89922 2.80078,-2.19922c0.4,-1.8 1.09961,-3.50156 2.09961,-5.10156v-0.09961c2.4,-3.8 5.3,-7.09961 8.5,-10.09961c1.40625,-1.3125 0.35168,-3.59119 -1.43359,-3.45898zM100.23438,95.05859c-1.78528,-0.05017 -2.83985,2.22266 -1.4336,3.44141c2.9,2.7 5.59844,5.69961 7.89844,9.09961c0.2,0.3 0.50078,0.70117 0.80078,1.20117c0.9,1.6 1.59961,3.2 2.09961,5c0.3,1.3 1.50078,2.09961 2.80078,2.09961h10.40039c2.3,0 3.69844,-2.50039 2.39844,-4.40039c-5.9,-8.4 -14.69961,-14.20039 -24.59961,-16.40039c-0.125,-0.025 -0.24622,-0.03767 -0.36523,-0.04102z"></path></g></g></svg>