<svg xmlns="http://www.w3.org/2000/svg" xmlns:xlink="http://www.w3.org/1999/xlink" viewBox="0,0,256,256" width="256px" height="256px"><g fill="none" fill-rule="nonzero" stroke="none" stroke-width="1" stroke-linecap="butt" stroke-linejoin="miter" stroke-miterlimit="10" stroke-dasharray="" stroke-dashoffset="0" font-family="none" font-weight="none" font-size="none" text-anchor="none" style="mix-blend-mode: normal"><g><circle cx="128" cy="128" r="119.4" fill="#0076ff"></circle><path d="M166.448,117.599h-5.02c-1.381,0 -2.5,1.119 -2.5,2.5c0,1.381 1.119,2.5 2.5,2.5h5.02c17.329,0 31.427,-14.099 31.427,-31.428c0,-13.301 -8.175,-24.934 -20.519,-29.478c-1.31,-16.309 -14.733,-28.839 -31.294,-28.839c-6.55,0 -12.754,1.973 -18.062,5.725c-5.308,-3.752 -11.513,-5.725 -18.063,-5.725c-16.561,0 -29.984,12.53 -31.294,28.839c-12.344,4.545 -20.518,16.177 -20.518,29.478c0,17.329 14.098,31.428 31.427,31.428h5.02c1.381,0 2.5,-1.119 2.5,-2.5c0,-1.381 -1.119,-2.5 -2.5,-2.5h-5.02c-14.572,0 -26.427,-11.855 -26.427,-26.428c0,-11.683 7.498,-21.834 18.658,-25.262c1.027,-0.315 1.737,-1.251 1.765,-2.324c0.377,-14.429 11.969,-25.73 26.39,-25.73c6.055,0 11.76,2.007 16.5,5.804c0.913,0.732 2.212,0.732 3.126,0c4.738,-3.797 10.444,-5.804 16.499,-5.804c14.421,0 26.013,11.302 26.39,25.73c0.028,1.073 0.738,2.009 1.765,2.324c11.16,3.428 18.658,13.579 18.658,25.262c-0.001,14.572 -11.856,26.428 -26.428,26.428z" fill="#291b4a"></path><path d="M135.188,112.538c1.381,0 2.5,-1.119 2.5,-2.5c0,-1.381 -1.119,-2.5 -2.5,-2.5h-2.637c-1.381,0 -2.5,1.119 -2.5,2.5c0,1.381 1.119,2.5 2.5,2.5z" fill="#291b4a"></path><path d="M145,112.538c1.381,0 2.5,-1.119 2.5,-2.5c0,-1.381 -1.119,-2.5 -2.5,-2.5h-2.637c-1.381,0 -2.5,1.119 -2.5,2.5c0,1.381 1.119,2.5 2.5,2.5z" fill="#291b4a"></path><path d="M113.637,112.538c1.381,0 2.5,-1.119 2.5,-2.5c0,-1.381 -1.119,-2.5 -2.5,-2.5h-2.637c-1.381,0 -2.5,1.119 -2.5,2.5c0,1.381 1.119,2.5 2.5,2.5z" fill="#291b4a"></path><path d="M135.188,82.241c1.381,0 2.5,-1.119 2.5,-2.5c0,-1.381 -1.119,-2.5 -2.5,-2.5h-2.637c-1.381,0 -2.5,1.119 -2.5,2.5c0,1.381 1.119,2.5 2.5,2.5z" fill="#291b4a"></path><path d="M145,82.241c1.381,0 2.5,-1.119 2.5,-2.5c0,-1.381 -1.119,-2.5 -2.5,-2.5h-2.637c-1.381,0 -2.5,1.119 -2.5,2.5c0,1.381 1.119,2.5 2.5,2.5z" fill="#291b4a"></path><path d="M113.637,82.241c1.381,0 2.5,-1.119 2.5,-2.5c0,-1.381 -1.119,-2.5 -2.5,-2.5h-2.637c-1.381,0 -2.5,1.119 -2.5,2.5c0,1.381 1.119,2.5 2.5,2.5z" fill="#291b4a"></path><path d="M85.471,162.207c1.381,0 2.5,-1.119 2.5,-2.5c0,-1.381 -1.119,-2.5 -2.5,-2.5h-18.642c-1.381,0 -2.5,1.119 -2.5,2.5c0,1.381 1.119,2.5 2.5,2.5z" fill="#291b4a"></path><path d="M85.471,172.566c1.381,0 2.5,-1.119 2.5,-2.5c0,-1.381 -1.119,-2.5 -2.5,-2.5h-18.642c-1.381,0 -2.5,1.119 -2.5,2.5c0,1.381 1.119,2.5 2.5,2.5z" fill="#291b4a"></path><path d="M85.471,182.926c1.381,0 2.5,-1.119 2.5,-2.5c0,-1.381 -1.119,-2.5 -2.5,-2.5h-18.642c-1.381,0 -2.5,1.119 -2.5,2.5c0,1.381 1.119,2.5 2.5,2.5z" fill="#291b4a"></path><path d="M81.571,197.843c1.381,0 2.5,-1.119 2.5,-2.5c0,-1.381 -1.119,-2.5 -2.5,-2.5h-10.842c-1.381,0 -2.5,1.119 -2.5,2.5c0,1.381 1.119,2.5 2.5,2.5z" fill="#291b4a"></path><path d="M137.321,162.207c1.381,0 2.5,-1.119 2.5,-2.5c0,-1.381 -1.119,-2.5 -2.5,-2.5h-18.642c-1.381,0 -2.5,1.119 -2.5,2.5c0,1.381 1.119,2.5 2.5,2.5z" fill="#291b4a"></path><path d="M137.321,172.566c1.381,0 2.5,-1.119 2.5,-2.5c0,-1.381 -1.119,-2.5 -2.5,-2.5h-18.642c-1.381,0 -2.5,1.119 -2.5,2.5c0,1.381 1.119,2.5 2.5,2.5z" fill="#291b4a"></path><path d="M137.321,182.926c1.381,0 2.5,-1.119 2.5,-2.5c0,-1.381 -1.119,-2.5 -2.5,-2.5h-18.642c-1.381,0 -2.5,1.119 -2.5,2.5c0,1.381 1.119,2.5 2.5,2.5z" fill="#291b4a"></path><path d="M133.421,197.843c1.381,0 2.5,-1.119 2.5,-2.5c0,-1.381 -1.119,-2.5 -2.5,-2.5h-10.842c-1.381,0 -2.5,1.119 -2.5,2.5c0,1.381 1.119,2.5 2.5,2.5z" fill="#291b4a"></path><path d="M76.15,132.189c-1.381,0 -2.5,1.119 -2.5,2.5v12.091h-17.004c-1.381,0 -2.5,1.119 -2.5,2.5v59.365c0,1.381 1.119,2.5 2.5,2.5h39.007c1.381,0 2.5,-1.119 2.5,-2.5v-59.365c0,-1.381 -1.119,-2.5 -2.5,-2.5h-17.003v-9.591h46.85v9.591h-17.003c-1.381,0 -2.5,1.119 -2.5,2.5v59.365c0,1.381 1.119,2.5 2.5,2.5h39.006c1.381,0 2.5,-1.119 2.5,-2.5v-59.365c0,-1.381 -1.119,-2.5 -2.5,-2.5h-17.003v-9.591h46.851v9.591h-17.004c-1.381,0 -2.5,1.119 -2.5,2.5v59.365c0,1.381 1.119,2.5 2.5,2.5h39.007c1.381,0 2.5,-1.119 2.5,-2.5v-59.365c0,-1.381 -1.119,-2.5 -2.5,-2.5h-17.003v-12.091c0,-1.381 -1.119,-2.5 -2.5,-2.5h-49.351v-9.591h20.202c2.426,0 4.398,-1.973 4.398,-4.398v-16.324c0,-2.426 -1.973,-4.398 -4.398,-4.398h-2.891v-5.176h2.891c2.426,0 4.398,-1.973 4.398,-4.397v-16.326c0,-2.426 -1.973,-4.398 -4.398,-4.398h-45.405c-2.425,0 -4.398,1.973 -4.398,4.398v16.325c0,2.425 1.973,4.397 4.398,4.397h2.891v5.176h-2.891c-2.425,0 -4.398,1.973 -4.398,4.398v16.325c0,2.426 1.973,4.398 4.398,4.398h20.203v9.591zM93.153,151.78v54.365h-34.007v-54.365zM196.854,151.78v54.365h-34.007v-54.365zM105.899,87.302v-15.121h44.201v15.121zM142.812,92.302v5.176h-29.623v-5.176zM105.899,117.599v-15.121h44.201v15.121zM145.003,151.78v54.365h-34.006v-54.365z" fill="#291b4a"></path><path d="M189.171,162.207c1.381,0 2.5,-1.119 2.5,-2.5c0,-1.381 -1.119,-2.5 -2.5,-2.5h-18.642c-1.381,0 -2.5,1.119 -2.5,2.5c0,1.381 1.119,2.5 2.5,2.5z" fill="#291b4a"></path><path d="M189.171,172.566c1.381,0 2.5,-1.119 2.5,-2.5c0,-1.381 -1.119,-2.5 -2.5,-2.5h-18.642c-1.381,0 -2.5,1.119 -2.5,2.5c0,1.381 1.119,2.5 2.5,2.5z" fill="#291b4a"></path><path d="M189.171,182.926c1.381,0 2.5,-1.119 2.5,-2.5c0,-1.381 -1.119,-2.5 -2.5,-2.5h-18.642c-1.381,0 -2.5,1.119 -2.5,2.5c0,1.381 1.119,2.5 2.5,2.5z" fill="#291b4a"></path><path d="M185.271,197.843c1.381,0 2.5,-1.119 2.5,-2.5c0,-1.381 -1.119,-2.5 -2.5,-2.5h-10.843c-1.381,0 -2.5,1.119 -2.5,2.5c0,1.381 1.119,2.5 2.5,2.5z" fill="#291b4a"></path><g><path d="M130.5,145.28v-29.182c0,-1.381 -1.119,-2.5 -2.5,-2.5c-1.381,0 -2.5,1.119 -2.5,2.5v29.182c0,1.381 1.119,2.5 2.5,2.5c1.381,0 2.5,-1.119 2.5,-2.5z" fill="#d3d3d3"></path><path d="M179.851,147.78c1.381,0 2.5,-1.119 2.5,-2.5v-14.591c0,-1.381 -1.119,-2.5 -2.5,-2.5h-103.701c-1.381,0 -2.5,1.119 -2.5,2.5v14.591c0,1.381 1.119,2.5 2.5,2.5c1.381,0 2.5,-1.119 2.5,-2.5v-12.091h98.701v12.091c0,1.381 1.119,2.5 2.5,2.5z" fill="#d3d3d3"></path><path d="M128,113.599c-1.381,0 -2.5,1.119 -2.5,2.5v12.091h-49.35c-1.381,0 -2.5,1.119 -2.5,2.5v14.591c0,1.381 1.119,2.5 2.5,2.5c1.381,0 2.5,-1.119 2.5,-2.5v-12.091h46.85v12.091c0,1.381 1.119,2.5 2.5,2.5c1.381,0 2.5,-1.119 2.5,-2.5v-12.091h46.851v12.091c0,1.381 1.119,2.5 2.5,2.5c1.381,0 2.5,-1.119 2.5,-2.5v-14.591c0,-1.381 -1.119,-2.5 -2.5,-2.5h-49.351v-12.091c0,-1.381 -1.119,-2.5 -2.5,-2.5zM179.851,129.689c0.551,0 1,0.449 1,1v14.591c0,0.551 -0.449,1 -1,1c-0.551,0 -1,-0.449 -1,-1v-12.091c0,-0.829 -0.672,-1.5 -1.5,-1.5h-46.851c-0.828,0 -1.5,0.671 -1.5,1.5v12.091c0,0.551 -0.449,1 -1,1c-0.551,0 -1,-0.449 -1,-1v-12.091c0,-0.829 -0.672,-1.5 -1.5,-1.5h-46.85c-0.828,0 -1.5,0.671 -1.5,1.5v12.091c0,0.551 -0.449,1 -1,1c-0.551,0 -1,-0.449 -1,-1v-14.591c0,-0.551 0.449,-1 1,-1h49.35c0.828,0 1.5,-0.671 1.5,-1.5v-12.091c0,-0.551 0.449,-1 1,-1c0.551,0 1,0.449 1,1v12.091c0,0.829 0.672,1.5 1.5,1.5z" fill="#ebe7f2"></path><path d="M166.448,113.599h-5.02c-1.381,0 -2.5,1.119 -2.5,2.5c0,1.381 1.119,2.5 2.5,2.5h5.02c17.329,0 31.427,-14.099 31.427,-31.428c0,-13.301 -8.175,-24.934 -20.519,-29.478c-1.31,-16.309 -14.733,-28.839 -31.294,-28.839c-6.55,0 -12.754,1.973 -18.062,5.725c-5.308,-3.752 -11.513,-5.725 -18.063,-5.725c-16.561,0 -29.984,12.53 -31.294,28.839c-12.344,4.545 -20.518,16.177 -20.518,29.478c0,17.329 14.098,31.428 31.427,31.428h5.02c1.381,0 2.5,-1.119 2.5,-2.5c0,-1.381 -1.119,-2.5 -2.5,-2.5h-5.02c-14.572,0 -26.427,-11.855 -26.427,-26.428c0,-11.683 7.498,-21.834 18.658,-25.262c1.027,-0.315 1.737,-1.251 1.765,-2.324c0.377,-14.429 11.969,-25.73 26.39,-25.73c6.055,0 11.76,2.007 16.5,5.804c0.913,0.732 2.212,0.732 3.126,0c4.738,-3.797 10.444,-5.804 16.499,-5.804c14.421,0 26.013,11.302 26.39,25.73c0.028,1.073 0.738,2.009 1.765,2.324c11.16,3.428 18.658,13.579 18.658,25.262c-0.001,14.572 -11.856,26.428 -26.428,26.428z" fill="#f9b087"></path><path d="M113.188,95.978v-10.176c0,-1.381 -1.119,-2.5 -2.5,-2.5c-1.381,0 -2.5,1.119 -2.5,2.5v10.176c0,1.381 1.119,2.5 2.5,2.5c1.381,0 2.5,-1.12 2.5,-2.5z" fill="#f9b087"></path><path d="M147.812,95.978v-10.176c0,-1.381 -1.119,-2.5 -2.5,-2.5c-1.381,0 -2.5,1.119 -2.5,2.5v10.176c0,1.381 1.119,2.5 2.5,2.5c1.381,0 2.5,-1.12 2.5,-2.5z" fill="#f9b087"></path><path d="M150.702,118.599c2.426,0 4.398,-1.973 4.398,-4.398v-16.325c0,-2.426 -1.973,-4.398 -4.398,-4.398h-45.405c-2.425,0 -4.398,1.973 -4.398,4.398v16.324c0,2.426 1.973,4.398 4.398,4.398h45.405zM105.899,98.478h44.201v15.121h-44.201z" fill="#f9b087"></path><path d="M135.188,108.538c1.381,0 2.5,-1.119 2.5,-2.5c0,-1.381 -1.119,-2.5 -2.5,-2.5h-2.637c-1.381,0 -2.5,1.119 -2.5,2.5c0,1.381 1.119,2.5 2.5,2.5z" fill="#f9b087"></path><path d="M145,108.538c1.381,0 2.5,-1.119 2.5,-2.5c0,-1.381 -1.119,-2.5 -2.5,-2.5h-2.637c-1.381,0 -2.5,1.119 -2.5,2.5c0,1.381 1.119,2.5 2.5,2.5z" fill="#f9b087"></path><path d="M113.637,108.538c1.381,0 2.5,-1.119 2.5,-2.5c0,-1.381 -1.119,-2.5 -2.5,-2.5h-2.637c-1.381,0 -2.5,1.119 -2.5,2.5c0,1.381 1.119,2.5 2.5,2.5z" fill="#f9b087"></path><g fill="#f9b087"><path d="M150.702,88.302c2.426,0 4.398,-1.973 4.398,-4.397v-16.326c0,-2.426 -1.973,-4.398 -4.398,-4.398h-45.405c-2.425,0 -4.398,1.973 -4.398,4.398v16.325c0,2.425 1.973,4.397 4.398,4.397h45.405zM105.899,68.181h44.201v15.121h-44.201z"></path><path d="M135.188,78.241c1.381,0 2.5,-1.119 2.5,-2.5c0,-1.381 -1.119,-2.5 -2.5,-2.5h-2.637c-1.381,0 -2.5,1.119 -2.5,2.5c0,1.381 1.119,2.5 2.5,2.5z"></path><path d="M145,78.241c1.381,0 2.5,-1.119 2.5,-2.5c0,-1.381 -1.119,-2.5 -2.5,-2.5h-2.637c-1.381,0 -2.5,1.119 -2.5,2.5c0,1.381 1.119,2.5 2.5,2.5z"></path><path d="M113.637,78.241c1.381,0 2.5,-1.119 2.5,-2.5c0,-1.381 -1.119,-2.5 -2.5,-2.5h-2.637c-1.381,0 -2.5,1.119 -2.5,2.5c0,1.381 1.119,2.5 2.5,2.5z"></path></g><g fill="#ff8639"><path d="M166.448,113.599h-5.02c-1.381,0 -2.5,1.119 -2.5,2.5c0,1.381 1.119,2.5 2.5,2.5h5.02c17.329,0 31.427,-14.099 31.427,-31.428c0,-13.301 -8.175,-24.934 -20.519,-29.478c-1.31,-16.309 -14.733,-28.839 -31.294,-28.839c-6.55,0 -12.754,1.973 -18.062,5.725c-5.308,-3.752 -11.513,-5.725 -18.063,-5.725c-16.561,0 -29.984,12.53 -31.294,28.839c-12.344,4.545 -20.518,16.177 -20.518,29.478c0,17.329 14.098,31.428 31.427,31.428h5.02c1.381,0 2.5,-1.119 2.5,-2.5c0,-1.381 -1.119,-2.5 -2.5,-2.5h-5.02c-14.572,0 -26.427,-11.855 -26.427,-26.428c0,-11.683 7.498,-21.834 18.658,-25.262c1.027,-0.315 1.737,-1.251 1.765,-2.324c0.377,-14.429 11.969,-25.73 26.39,-25.73c6.055,0 11.76,2.007 16.5,5.804c0.457,0.366 1.01,0.549 1.563,0.549c0.553,0 1.107,-0.183 1.564,-0.549c4.738,-3.797 10.444,-5.804 16.499,-5.804c14.421,0 26.013,11.302 26.39,25.73c0.028,1.073 0.738,2.009 1.765,2.324c11.16,3.428 18.658,13.579 18.658,25.262c-0.002,14.572 -11.857,26.428 -26.429,26.428zM194.375,87.171c0,-12.345 -7.924,-23.073 -19.718,-26.695c-0.411,-0.126 -0.695,-0.5 -0.706,-0.93c-0.398,-15.248 -12.649,-27.191 -27.889,-27.191c-6.4,0 -12.43,2.121 -17.437,6.133c-0.227,0.182 -0.465,0.22 -0.626,0.22c-0.16,0 -0.398,-0.038 -0.625,-0.22c-5.008,-4.013 -11.038,-6.133 -17.437,-6.133c-15.24,0 -27.491,11.944 -27.889,27.191c-0.011,0.43 -0.295,0.803 -0.706,0.929c-11.794,3.623 -19.718,14.351 -19.718,26.696c0,15.399 12.528,27.928 27.927,27.928h5.02c0.551,0 1,0.449 1,1c0,0.551 -0.449,1 -1,1h-5.02c-16.502,0 -29.927,-13.425 -29.927,-29.928c0,-12.682 7.669,-23.7 19.537,-28.07c0.549,-0.202 0.93,-0.705 0.977,-1.288c1.258,-15.654 14.068,-27.459 29.799,-27.459c6.206,0 12.153,1.884 17.197,5.45c0.259,0.183 0.563,0.275 0.866,0.275c0.303,0 0.606,-0.092 0.866,-0.275c5.044,-3.565 10.991,-5.45 17.197,-5.45c15.731,0 28.542,11.805 29.799,27.459c0.047,0.583 0.428,1.085 0.977,1.288c11.868,4.369 19.537,15.387 19.537,28.07c0,16.502 -13.425,29.928 -29.927,29.928h-5.02c-0.551,0 -1,-0.449 -1,-1c0,-0.551 0.449,-1 1,-1h5.02c15.398,0 27.926,-12.529 27.926,-27.928z"></path><path d="M135.188,108.538c1.381,0 2.5,-1.119 2.5,-2.5c0,-1.381 -1.119,-2.5 -2.5,-2.5h-2.637c-1.381,0 -2.5,1.119 -2.5,2.5c0,1.381 1.119,2.5 2.5,2.5zM131.552,106.038c0,-0.551 0.449,-1 1,-1h2.637c0.551,0 1,0.449 1,1c0,0.551 -0.449,1 -1,1h-2.637c-0.552,0 -1,-0.449 -1,-1z"></path><path d="M145,108.538c1.381,0 2.5,-1.119 2.5,-2.5c0,-1.381 -1.119,-2.5 -2.5,-2.5h-2.637c-1.381,0 -2.5,1.119 -2.5,2.5c0,1.381 1.119,2.5 2.5,2.5zM141.363,106.038c0,-0.551 0.449,-1 1,-1h2.637c0.551,0 1,0.449 1,1c0,0.551 -0.449,1 -1,1h-2.637c-0.551,0 -1,-0.449 -1,-1z"></path><path d="M113.637,108.538c1.381,0 2.5,-1.119 2.5,-2.5c0,-1.381 -1.119,-2.5 -2.5,-2.5h-2.637c-1.381,0 -2.5,1.119 -2.5,2.5c0,1.381 1.119,2.5 2.5,2.5zM110,106.038c0,-0.551 0.449,-1 1,-1h2.637c0.551,0 1,0.449 1,1c0,0.551 -0.449,1 -1,1h-2.637c-0.551,0 -1,-0.449 -1,-1z"></path><path d="M151.601,83.302v-15.121c0,-0.829 -0.672,-1.5 -1.5,-1.5h-44.201c-0.828,0 -1.5,0.671 -1.5,1.5v15.121c0,0.829 0.672,1.5 1.5,1.5h44.201c0.828,0 1.5,-0.672 1.5,-1.5zM105.899,68.181h44.201v15.121h-44.201z"></path><path d="M104.399,98.478v15.121c0,0.829 0.672,1.5 1.5,1.5h44.201c0.828,0 1.5,-0.671 1.5,-1.5v-15.121c0,-0.829 -0.672,-1.5 -1.5,-1.5h-44.201c-0.828,0 -1.5,0.671 -1.5,1.5zM150.101,113.599h-44.201v-15.121h44.201z"></path><path d="M105.297,93.478c-2.425,0 -4.398,1.973 -4.398,4.398v16.324c0,2.426 1.973,4.398 4.398,4.398h45.405c2.426,0 4.398,-1.973 4.398,-4.398v-16.324c0,-2.426 -1.973,-4.398 -4.398,-4.398h-2.891v-5.176h2.891c2.426,0 4.398,-1.973 4.398,-4.397v-16.326c0,-2.426 -1.973,-4.398 -4.398,-4.398h-45.405c-2.425,0 -4.398,1.973 -4.398,4.398v16.325c0,2.425 1.973,4.397 4.398,4.397h2.891v5.176h-2.891zM108.188,86.802h-2.891c-1.598,0 -2.898,-1.3 -2.898,-2.897v-16.326c0,-1.598 1.3,-2.898 2.898,-2.898h45.405c1.598,0 2.898,1.3 2.898,2.898v16.325c0,1.598 -1.3,2.897 -2.898,2.897h-2.891c-0.828,0 -1.5,0.671 -1.5,1.5v5.176c0,0.829 0.672,1.5 1.5,1.5h2.891c1.598,0 2.898,1.3 2.898,2.898v16.325c0,1.598 -1.3,2.898 -2.898,2.898h-45.405c-1.598,0 -2.898,-1.3 -2.898,-2.898v-16.324c0,-1.598 1.3,-2.898 2.898,-2.898h2.891c0.828,0 1.5,-0.671 1.5,-1.5v-5.176c0,-0.829 -0.671,-1.5 -1.5,-1.5z"></path><path d="M113.188,86.802c-0.828,0 -1.5,0.671 -1.5,1.5v5.176c0,0.829 0.672,1.5 1.5,1.5h29.623c0.828,0 1.5,-0.671 1.5,-1.5v-5.176c0,-0.829 -0.672,-1.5 -1.5,-1.5zM142.812,93.478h-29.623v-5.176h29.623z"></path><g><path d="M135.188,78.241c1.381,0 2.5,-1.119 2.5,-2.5c0,-1.381 -1.119,-2.5 -2.5,-2.5h-2.637c-1.381,0 -2.5,1.119 -2.5,2.5c0,1.381 1.119,2.5 2.5,2.5zM131.552,75.741c0,-0.551 0.449,-1 1,-1h2.637c0.551,0 1,0.449 1,1c0,0.551 -0.449,1 -1,1h-2.637c-0.552,0 -1,-0.449 -1,-1z"></path></g><g><path d="M145,78.241c1.381,0 2.5,-1.119 2.5,-2.5c0,-1.381 -1.119,-2.5 -2.5,-2.5h-2.637c-1.381,0 -2.5,1.119 -2.5,2.5c0,1.381 1.119,2.5 2.5,2.5zM141.363,75.741c0,-0.551 0.449,-1 1,-1h2.637c0.551,0 1,0.449 1,1c0,0.551 -0.449,1 -1,1h-2.637c-0.551,0 -1,-0.449 -1,-1z"></path></g><g><path d="M113.637,78.241c1.381,0 2.5,-1.119 2.5,-2.5c0,-1.381 -1.119,-2.5 -2.5,-2.5h-2.637c-1.381,0 -2.5,1.119 -2.5,2.5c0,1.381 1.119,2.5 2.5,2.5zM110,75.741c0,-0.551 0.449,-1 1,-1h2.637c0.551,0 1,0.449 1,1c0,0.551 -0.449,1 -1,1h-2.637c-0.551,0 -1,-0.449 -1,-1z"></path></g></g><g fill="#65c1d6"><path d="M95.653,207.146c1.381,0 2.5,-1.119 2.5,-2.5v-59.366c0,-1.381 -1.119,-2.5 -2.5,-2.5h-39.007c-1.381,0 -2.5,1.119 -2.5,2.5v59.365c0,1.381 1.119,2.5 2.5,2.5h39.007zM59.146,147.78h34.007v54.365h-34.007z"></path><path d="M85.471,158.207c1.381,0 2.5,-1.119 2.5,-2.5c0,-1.381 -1.119,-2.5 -2.5,-2.5h-18.642c-1.381,0 -2.5,1.119 -2.5,2.5c0,1.381 1.119,2.5 2.5,2.5z"></path><path d="M85.471,168.566c1.381,0 2.5,-1.119 2.5,-2.5c0,-1.381 -1.119,-2.5 -2.5,-2.5h-18.642c-1.381,0 -2.5,1.119 -2.5,2.5c0,1.381 1.119,2.5 2.5,2.5z"></path><path d="M85.471,178.926c1.381,0 2.5,-1.119 2.5,-2.5c0,-1.381 -1.119,-2.5 -2.5,-2.5h-18.642c-1.381,0 -2.5,1.119 -2.5,2.5c0,1.381 1.119,2.5 2.5,2.5z"></path><path d="M81.571,193.843c1.381,0 2.5,-1.119 2.5,-2.5c0,-1.381 -1.119,-2.5 -2.5,-2.5h-10.842c-1.381,0 -2.5,1.119 -2.5,2.5c0,1.381 1.119,2.5 2.5,2.5z"></path><g><path d="M147.503,207.146c1.381,0 2.5,-1.119 2.5,-2.5v-59.366c0,-1.381 -1.119,-2.5 -2.5,-2.5h-39.006c-1.381,0 -2.5,1.119 -2.5,2.5v59.365c0,1.381 1.119,2.5 2.5,2.5h39.006zM110.997,147.78h34.006v54.365h-34.006z"></path><path d="M137.321,158.207c1.381,0 2.5,-1.119 2.5,-2.5c0,-1.381 -1.119,-2.5 -2.5,-2.5h-18.642c-1.381,0 -2.5,1.119 -2.5,2.5c0,1.381 1.119,2.5 2.5,2.5z"></path><path d="M137.321,168.566c1.381,0 2.5,-1.119 2.5,-2.5c0,-1.381 -1.119,-2.5 -2.5,-2.5h-18.642c-1.381,0 -2.5,1.119 -2.5,2.5c0,1.381 1.119,2.5 2.5,2.5z"></path><path d="M137.321,178.926c1.381,0 2.5,-1.119 2.5,-2.5c0,-1.381 -1.119,-2.5 -2.5,-2.5h-18.642c-1.381,0 -2.5,1.119 -2.5,2.5c0,1.381 1.119,2.5 2.5,2.5z"></path><path d="M133.421,193.843c1.381,0 2.5,-1.119 2.5,-2.5c0,-1.381 -1.119,-2.5 -2.5,-2.5h-10.842c-1.381,0 -2.5,1.119 -2.5,2.5c0,1.381 1.119,2.5 2.5,2.5z"></path></g><g><path d="M199.354,207.146c1.381,0 2.5,-1.119 2.5,-2.5v-59.366c0,-1.381 -1.119,-2.5 -2.5,-2.5h-39.007c-1.381,0 -2.5,1.119 -2.5,2.5v59.365c0,1.381 1.119,2.5 2.5,2.5h39.007zM162.847,147.78h34.007v54.365h-34.007z"></path><path d="M189.171,158.207c1.381,0 2.5,-1.119 2.5,-2.5c0,-1.381 -1.119,-2.5 -2.5,-2.5h-18.642c-1.381,0 -2.5,1.119 -2.5,2.5c0,1.381 1.119,2.5 2.5,2.5z"></path><path d="M189.171,168.566c1.381,0 2.5,-1.119 2.5,-2.5c0,-1.381 -1.119,-2.5 -2.5,-2.5h-18.642c-1.381,0 -2.5,1.119 -2.5,2.5c0,1.381 1.119,2.5 2.5,2.5z"></path><path d="M189.171,178.926c1.381,0 2.5,-1.119 2.5,-2.5c0,-1.381 -1.119,-2.5 -2.5,-2.5h-18.642c-1.381,0 -2.5,1.119 -2.5,2.5c0,1.381 1.119,2.5 2.5,2.5z"></path><path d="M185.271,193.843c1.381,0 2.5,-1.119 2.5,-2.5c0,-1.381 -1.119,-2.5 -2.5,-2.5h-10.843c-1.381,0 -2.5,1.119 -2.5,2.5c0,1.381 1.119,2.5 2.5,2.5z"></path></g></g><g fill="#149cb2"><path d="M59.146,203.646h34.007c0.828,0 1.5,-0.671 1.5,-1.5v-54.366c0,-0.829 -0.672,-1.5 -1.5,-1.5h-34.007c-0.828,0 -1.5,0.671 -1.5,1.5v54.365c0,0.829 0.672,1.501 1.5,1.501zM59.146,147.78h34.007v54.365h-34.007z"></path><path d="M95.653,207.146c1.381,0 2.5,-1.119 2.5,-2.5v-59.366c0,-1.381 -1.119,-2.5 -2.5,-2.5h-39.007c-1.381,0 -2.5,1.119 -2.5,2.5v59.365c0,1.381 1.119,2.5 2.5,2.5h39.007zM55.646,204.646v-59.366c0,-0.551 0.449,-1 1,-1h39.007c0.551,0 1,0.449 1,1v59.365c0,0.551 -0.449,1 -1,1h-39.007c-0.551,0.001 -1,-0.448 -1,-0.999z"></path><path d="M85.471,158.207c1.381,0 2.5,-1.119 2.5,-2.5c0,-1.381 -1.119,-2.5 -2.5,-2.5h-18.642c-1.381,0 -2.5,1.119 -2.5,2.5c0,1.381 1.119,2.5 2.5,2.5zM65.829,155.707c0,-0.551 0.449,-1 1,-1h18.642c0.551,0 1,0.449 1,1c0,0.551 -0.449,1 -1,1h-18.642c-0.551,0 -1,-0.449 -1,-1z"></path><path d="M85.471,168.566c1.381,0 2.5,-1.119 2.5,-2.5c0,-1.381 -1.119,-2.5 -2.5,-2.5h-18.642c-1.381,0 -2.5,1.119 -2.5,2.5c0,1.381 1.119,2.5 2.5,2.5zM65.829,166.066c0,-0.551 0.449,-1 1,-1h18.642c0.551,0 1,0.449 1,1c0,0.551 -0.449,1 -1,1h-18.642c-0.551,0 -1,-0.448 -1,-1z"></path><path d="M85.471,178.926c1.381,0 2.5,-1.119 2.5,-2.5c0,-1.381 -1.119,-2.5 -2.5,-2.5h-18.642c-1.381,0 -2.5,1.119 -2.5,2.5c0,1.381 1.119,2.5 2.5,2.5zM65.829,176.426c0,-0.551 0.449,-1 1,-1h18.642c0.551,0 1,0.449 1,1c0,0.551 -0.449,1 -1,1h-18.642c-0.551,0 -1,-0.449 -1,-1z"></path><path d="M81.571,193.843c1.381,0 2.5,-1.119 2.5,-2.5c0,-1.381 -1.119,-2.5 -2.5,-2.5h-10.842c-1.381,0 -2.5,1.119 -2.5,2.5c0,1.381 1.119,2.5 2.5,2.5zM69.729,191.343c0,-0.551 0.449,-1 1,-1h10.842c0.551,0 1,0.449 1,1c0,0.551 -0.449,1 -1,1h-10.842c-0.551,0 -1,-0.449 -1,-1z"></path><path d="M110.997,203.646h34.006c0.828,0 1.5,-0.671 1.5,-1.5v-54.366c0,-0.829 -0.672,-1.5 -1.5,-1.5h-34.006c-0.828,0 -1.5,0.671 -1.5,1.5v54.365c0,0.829 0.671,1.501 1.5,1.501zM110.997,147.78h34.006v54.365h-34.006z"></path><path d="M147.503,207.146c1.381,0 2.5,-1.119 2.5,-2.5v-59.366c0,-1.381 -1.119,-2.5 -2.5,-2.5h-39.006c-1.381,0 -2.5,1.119 -2.5,2.5v59.365c0,1.381 1.119,2.5 2.5,2.5h39.006zM107.497,204.646v-59.366c0,-0.551 0.449,-1 1,-1h39.006c0.551,0 1,0.449 1,1v59.365c0,0.551 -0.449,1 -1,1h-39.006c-0.552,0.001 -1,-0.448 -1,-0.999z"></path><path d="M137.321,158.207c1.381,0 2.5,-1.119 2.5,-2.5c0,-1.381 -1.119,-2.5 -2.5,-2.5h-18.642c-1.381,0 -2.5,1.119 -2.5,2.5c0,1.381 1.119,2.5 2.5,2.5zM117.679,155.707c0,-0.551 0.449,-1 1,-1h18.642c0.551,0 1,0.449 1,1c0,0.551 -0.449,1 -1,1h-18.642c-0.551,0 -1,-0.449 -1,-1z"></path><path d="M137.321,168.566c1.381,0 2.5,-1.119 2.5,-2.5c0,-1.381 -1.119,-2.5 -2.5,-2.5h-18.642c-1.381,0 -2.5,1.119 -2.5,2.5c0,1.381 1.119,2.5 2.5,2.5zM117.679,166.066c0,-0.551 0.449,-1 1,-1h18.642c0.551,0 1,0.449 1,1c0,0.551 -0.449,1 -1,1h-18.642c-0.551,0 -1,-0.448 -1,-1z"></path><path d="M137.321,178.926c1.381,0 2.5,-1.119 2.5,-2.5c0,-1.381 -1.119,-2.5 -2.5,-2.5h-18.642c-1.381,0 -2.5,1.119 -2.5,2.5c0,1.381 1.119,2.5 2.5,2.5zM117.679,176.426c0,-0.551 0.449,-1 1,-1h18.642c0.551,0 1,0.449 1,1c0,0.551 -0.449,1 -1,1h-18.642c-0.551,0 -1,-0.449 -1,-1z"></path><path d="M133.421,193.843c1.381,0 2.5,-1.119 2.5,-2.5c0,-1.381 -1.119,-2.5 -2.5,-2.5h-10.842c-1.381,0 -2.5,1.119 -2.5,2.5c0,1.381 1.119,2.5 2.5,2.5zM121.579,191.343c0,-0.551 0.449,-1 1,-1h10.842c0.551,0 1,0.449 1,1c0,0.551 -0.449,1 -1,1h-10.842c-0.551,0 -1,-0.449 -1,-1z"></path><path d="M199.354,207.146c1.381,0 2.5,-1.119 2.5,-2.5v-59.366c0,-1.381 -1.119,-2.5 -2.5,-2.5h-39.007c-1.381,0 -2.5,1.119 -2.5,2.5v59.365c0,1.381 1.119,2.5 2.5,2.5h39.007zM159.347,204.646v-59.366c0,-0.551 0.449,-1 1,-1h39.007c0.551,0 1,0.449 1,1v59.365c0,0.551 -0.449,1 -1,1h-39.007c-0.552,0.001 -1,-0.448 -1,-0.999z"></path><path d="M162.847,203.646h34.007c0.828,0 1.5,-0.671 1.5,-1.5v-54.366c0,-0.829 -0.672,-1.5 -1.5,-1.5h-34.007c-0.828,0 -1.5,0.671 -1.5,1.5v54.365c0,0.829 0.671,1.501 1.5,1.501zM162.847,147.78h34.007v54.365h-34.007z"></path><path d="M189.171,158.207c1.381,0 2.5,-1.119 2.5,-2.5c0,-1.381 -1.119,-2.5 -2.5,-2.5h-18.642c-1.381,0 -2.5,1.119 -2.5,2.5c0,1.381 1.119,2.5 2.5,2.5zM169.529,155.707c0,-0.551 0.449,-1 1,-1h18.642c0.551,0 1,0.449 1,1c0,0.551 -0.449,1 -1,1h-18.642c-0.551,0 -1,-0.449 -1,-1z"></path><g><path d="M189.171,168.566c1.381,0 2.5,-1.119 2.5,-2.5c0,-1.381 -1.119,-2.5 -2.5,-2.5h-18.642c-1.381,0 -2.5,1.119 -2.5,2.5c0,1.381 1.119,2.5 2.5,2.5zM169.529,166.066c0,-0.551 0.449,-1 1,-1h18.642c0.551,0 1,0.449 1,1c0,0.551 -0.449,1 -1,1h-18.642c-0.551,0 -1,-0.448 -1,-1z"></path></g><g><path d="M189.171,178.926c1.381,0 2.5,-1.119 2.5,-2.5c0,-1.381 -1.119,-2.5 -2.5,-2.5h-18.642c-1.381,0 -2.5,1.119 -2.5,2.5c0,1.381 1.119,2.5 2.5,2.5zM169.529,176.426c0,-0.551 0.449,-1 1,-1h18.642c0.551,0 1,0.449 1,1c0,0.551 -0.449,1 -1,1h-18.642c-0.551,0 -1,-0.449 -1,-1z"></path></g><g><path d="M185.271,193.843c1.381,0 2.5,-1.119 2.5,-2.5c0,-1.381 -1.119,-2.5 -2.5,-2.5h-10.843c-1.381,0 -2.5,1.119 -2.5,2.5c0,1.381 1.119,2.5 2.5,2.5zM173.429,191.343c0,-0.551 0.449,-1 1,-1h10.843c0.551,0 1,0.449 1,1c0,0.551 -0.449,1 -1,1h-10.843c-0.552,0 -1,-0.449 -1,-1z"></path></g></g></g></g></g></svg>