<svg xmlns="http://www.w3.org/2000/svg" xmlns:xlink="http://www.w3.org/1999/xlink" viewBox="0,0,256,256" width="256px" height="256px"><g fill="none" fill-rule="nonzero" stroke="none" stroke-width="1" stroke-linecap="butt" stroke-linejoin="miter" stroke-miterlimit="10" stroke-dasharray="" stroke-dashoffset="0" font-family="none" font-weight="none" font-size="none" text-anchor="none" style="mix-blend-mode: normal"><g transform="scale(4,4)"><g><path d="M32,39c-6.08,0 -11,-2.24 -11,-5v7c0,2.76 4.92,5 11,5c1.04325,0.00136 2.08547,-0.06545 3.12,-0.2c4.56,-0.62 7.88,-2.53 7.88,-4.8v-7c0,2.76 -4.92,5 -11,5z" fill="#0076ff"></path><path d="M35,22c0.00166,0.0635 -0.00168,0.12703 -0.01,0.19c-0.09642,2.68559 -2.30268,4.81227 -4.99,4.81h-22c-2.76142,0 -5,-2.23858 -5,-5c0,-2.76142 2.23858,-5 5,-5h1.18c-0.40843,-1.13081 -0.09882,-2.39627 0.78556,-3.21077c0.88438,-0.8145 2.17099,-1.01915 3.26444,-0.51923c0.86986,-3.41817 4.14911,-5.65352 7.64872,-5.21384c3.49961,0.43967 6.124,3.41672 6.12128,6.94384c0.0019,0.67728 -0.09581,1.35115 -0.29,2h3.29c2.76142,0 5,2.23858 5,5z" fill="#5aaae7"></path><path d="M56,46h-3.29c0.19419,-0.64885 0.2919,-1.32272 0.29,-2c0,-3.86599 -3.13401,-7 -7,-7c-1.03864,-0.00391 -2.06455,0.22863 -3,0.68c-1.87393,0.89679 -3.25441,2.57753 -3.77,4.59c-0.92701,-0.42308 -2.00568,-0.34475 -2.86184,0.2078c-0.85616,0.55256 -1.37184,1.50322 -1.36816,2.5222c-0.00158,0.27127 0.0389,0.54114 0.12,0.8c0.02,0.07 0.04,0.14 0.06,0.2h-1.18c-2.76142,0 -5,2.23858 -5,5c0,2.76142 2.23858,5 5,5h22c2.76142,0 5,-2.23858 5,-5c0,-2.76142 -2.23858,-5 -5,-5z" fill="#5aaae7"></path><path d="M43,27v7c0,2.76 -4.92,5 -11,5c-6.08,0 -11,-2.24 -11,-5v-7c0,2.76 4.92,5 11,5c6.08,0 11,-2.24 11,-5z" fill="#d8d7da"></path><path d="M34.99,22.19c-0.9917,-0.1259 -1.99034,-0.18936 -2.99,-0.19c-6.08,0 -11,2.24 -11,5c0,2.76 4.92,5 11,5c6.08,0 11,-2.24 11,-5c0,-2.29 -3.39,-4.22 -8.01,-4.81z" fill="#0076ff"></path><rect x="23" y="33" width="2" height="2" fill="#0076ff"></rect><rect x="27" y="34" width="2" height="2" fill="#0076ff"></rect><rect x="23" y="40" width="2" height="2" fill="#898890"></rect><rect x="27" y="41" width="2" height="2" fill="#898890"></rect><rect x="26" y="26" width="12" height="2" fill="#898890"></rect><path d="M11.133,34.256l2.558,2.144l1.285,-1.532l-4.333,-3.636c-0.20314,-0.17056 -0.46573,-0.25342 -0.72998,-0.23036c-0.26425,0.02307 -0.5085,0.15018 -0.67902,0.35336l-3.634,4.336l1.53,1.285l2.026,-2.414c0.91159,8.50551 6.50013,15.78837 14.48,18.87l0.727,-1.864c-7.31426,-2.82411 -12.42583,-9.51281 -13.23,-17.312z" fill="#ffa733"></path><path d="M56.87,27.024l-2.017,2.4c-1.32432,-11.62433 -11.15348,-20.40877 -22.853,-20.424v2c10.72129,0.01405 19.71497,8.09264 20.875,18.751l-2.566,-2.151l-1.285,1.53l4.333,3.636c0.20314,0.17056 0.46573,0.25342 0.72998,0.23036c0.26425,-0.02307 0.5085,-0.15018 0.67902,-0.35336l3.634,-4.334z" fill="#ffa733"></path></g></g></g></svg>